<svg width="127" height="127" viewBox="0 0 127 127" fill="none" xmlns="http://www.w3.org/2000/svg">
<circle cx="63.5" cy="63.5" r="63.35" fill="#FFF0FA" stroke="#959595" stroke-width="0.3"/>
<g clip-path="url(#clip0)">
<g clip-path="url(#clip1)">
<path d="M94.2284 100.715H32.7645V99.4583C32.7645 83.9017 43.3004 70.5369 57.8174 67.6796C61.6453 66.9447 65.3526 66.9457 69.1704 67.6786C78.8346 69.584 91.104 79.4828 93.2684 90.6412C93.6506 92.621 94.2284 97.1464 94.2284 99.4583V100.715ZM34.8508 98.6387H92.131C92.0266 96.3598 91.5582 92.7356 91.2308 91.0355C89.2235 80.6861 77.7843 71.4934 68.7741 69.7163C65.2239 69.036 61.7741 69.035 58.2138 69.7173C44.9275 72.3328 35.2117 84.4238 34.8508 98.6387Z" fill="#3B3B3B"/>
<path d="M97.9905 98.6387H29.0024V100.715H97.9905V98.6387Z" fill="#3B3B3B"/>
<path d="M98.5876 108.241H28.5645L23 105.624L23.883 103.745L29.0288 106.165H98.1091L103.091 103.739L104 105.606L98.5876 108.241Z" fill="#BA2525"/>
<mask id="path-5-inside-1" fill="white">
<path d="M63.4965 69.2028C60.6164 69.2028 58.2736 66.86 58.2736 63.9799C58.2736 61.0998 60.6164 58.7565 63.4965 58.7565C66.3766 58.7565 68.7193 61.0998 68.7193 63.9799C68.7193 66.86 66.3766 69.2028 63.4965 69.2028ZM63.4965 60.8327C61.7609 60.8327 60.3498 62.2444 60.3498 63.9799C60.3498 65.7149 61.7609 67.1266 63.4965 67.1266C65.232 67.1266 66.6432 65.7149 66.6432 63.9799C66.6432 62.2444 65.232 60.8327 63.4965 60.8327Z"/>
</mask>
<path d="M63.4965 69.2028C60.6164 69.2028 58.2736 66.86 58.2736 63.9799C58.2736 61.0998 60.6164 58.7565 63.4965 58.7565C66.3766 58.7565 68.7193 61.0998 68.7193 63.9799C68.7193 66.86 66.3766 69.2028 63.4965 69.2028ZM63.4965 60.8327C61.7609 60.8327 60.3498 62.2444 60.3498 63.9799C60.3498 65.7149 61.7609 67.1266 63.4965 67.1266C65.232 67.1266 66.6432 65.7149 66.6432 63.9799C66.6432 62.2444 65.232 60.8327 63.4965 60.8327Z" fill="#BA2525"/>
<path d="M63.4965 65.0628C62.9029 65.0628 62.4136 64.5735 62.4136 63.9799H54.1336C54.1336 69.1464 58.3299 73.3428 63.4965 73.3428V65.0628ZM62.4136 63.9799C62.4136 63.3858 62.9034 62.8965 63.4965 62.8965V54.6165C58.3294 54.6165 54.1336 58.8139 54.1336 63.9799H62.4136ZM63.4965 62.8965C64.0896 62.8965 64.5793 63.3858 64.5793 63.9799H72.8593C72.8593 58.8139 68.6635 54.6165 63.4965 54.6165V62.8965ZM64.5793 63.9799C64.5793 64.5735 64.0901 65.0628 63.4965 65.0628V73.3428C68.663 73.3428 72.8593 69.1464 72.8593 63.9799H64.5793ZM63.4965 56.6927C59.4736 56.6927 56.2098 59.9588 56.2098 63.9799H64.4898C64.4898 64.5299 64.0483 64.9727 63.4965 64.9727V56.6927ZM56.2098 63.9799C56.2098 68.001 59.474 71.2666 63.4965 71.2666V62.9866C64.0478 62.9866 64.4898 63.4289 64.4898 63.9799H56.2098ZM63.4965 71.2666C67.5189 71.2666 70.7832 68.001 70.7832 63.9799H62.5032C62.5032 63.4289 62.9451 62.9866 63.4965 62.9866V71.2666ZM70.7832 63.9799C70.7832 59.9588 67.5194 56.6927 63.4965 56.6927V64.9727C62.9447 64.9727 62.5032 64.5299 62.5032 63.9799H70.7832Z" fill="#3B3B3B" mask="url(#path-5-inside-1)"/>
<circle cx="63.4975" cy="63.98" r="5.225" fill="#BA2525"/>
<path d="M87.6481 94.2374C87.1859 94.2374 86.7642 93.9261 86.6435 93.4573C86.3262 92.22 85.6298 90.3283 85.0915 89.2401C84.837 88.7266 85.0479 88.1036 85.5618 87.8492C86.0768 87.5942 86.6972 87.8056 86.9527 88.3196C87.5539 89.5351 88.302 91.5656 88.6548 92.9413C88.7967 93.4968 88.4622 94.0625 87.9067 94.2049C87.8205 94.2272 87.7333 94.2374 87.6481 94.2374Z" fill="#3B3B3B"/>
<path d="M83.8273 86.136C83.4907 86.136 83.1602 85.9728 82.9605 85.6707C78.8204 79.4163 72.4935 77.1607 72.4296 77.1384C71.8893 76.9504 71.6014 76.3599 71.789 75.8185C71.9765 75.2767 72.5675 74.9898 73.1068 75.1763C73.3927 75.2741 80.1494 77.662 84.692 84.5251C85.0083 85.0031 84.8775 85.6469 84.399 85.9637C84.2227 86.0802 84.024 86.136 83.8273 86.136Z" fill="#3B3B3B"/>
<path d="M47.1578 56.9647C46.9479 56.9647 46.735 56.9014 46.5515 56.7686C46.0862 56.4335 45.9818 55.7847 46.3164 55.3199L50.6846 49.2592C50.863 48.4659 50.6897 47.6174 50.2082 46.9595L46.6296 42.0661C45.3908 40.3721 45.0603 38.1768 45.7456 36.1944L45.8551 35.9704L50.2588 29.1519C50.5691 28.6698 51.2108 28.5325 51.6943 28.8432C52.1759 29.1539 52.3137 29.7966 52.0025 30.2782L47.6707 36.9857C47.2581 38.2949 47.4923 39.7274 48.3064 40.8405L51.8839 45.7334C52.775 46.9509 53.0568 48.5445 52.6381 49.9962L52.5885 50.169L48.0012 56.5334C47.7985 56.8152 47.4801 56.9647 47.1578 56.9647Z" fill="#A3A3A3"/>
<path d="M72.7358 56.9647C72.5259 56.9647 72.3131 56.9014 72.1296 56.7686C71.6643 56.4335 71.5598 55.7847 71.8944 55.3199L76.2626 49.2592C76.4421 48.4664 76.2687 47.6179 75.7862 46.9585L72.2076 42.0661C70.9698 40.3731 70.6393 38.1784 71.3236 36.1949L71.4331 35.9704L75.8369 29.1519C76.1481 28.6698 76.7898 28.5325 77.2723 28.8432C77.7539 29.1539 77.8917 29.7966 77.5805 30.2782L73.2488 36.9852C72.8362 38.2959 73.0703 39.7284 73.8844 40.8405L77.4629 45.7334C78.354 46.9529 78.6358 48.547 78.2162 49.9967L78.1655 50.1695L73.5792 56.5334C73.3765 56.8152 73.0582 56.9647 72.7358 56.9647Z" fill="#A3A3A3"/>
<path d="M60.6528 50.0463C60.443 50.0463 60.2301 49.983 60.0466 49.8502C59.5813 49.5151 59.4769 48.8663 59.8114 48.401L64.1797 42.3408C64.3622 41.5394 64.1918 40.7097 63.7032 40.0416L60.1247 35.1482C58.8859 33.4537 58.5554 31.2589 59.2407 29.2765L59.3502 29.0525L63.7539 22.2335C64.0651 21.7519 64.7058 21.6126 65.1894 21.9248C65.6709 22.2355 65.8088 22.8782 65.4976 23.3598L61.1658 30.0678C60.7532 31.377 60.9864 32.8095 61.8014 33.9226L65.379 38.8155C66.27 40.033 66.5519 41.6266 66.1332 43.0783L66.0835 43.2511L61.4963 49.6155C61.2935 49.8968 60.9752 50.0463 60.6528 50.0463Z" fill="#A3A3A3"/>
</g>
</g>
<defs>
<clipPath id="clip0">
<rect width="79.375" height="95.25" fill="white" transform="translate(23.8125 15.875)"/>
</clipPath>
<clipPath id="clip1">
<rect width="115.036" height="138.043" fill="white" transform="translate(23.8125 15.875) scale(0.69)"/>
</clipPath>
</defs>
</svg>
