<svg width="127" height="127" viewBox="0 0 127 127" fill="none" xmlns="http://www.w3.org/2000/svg">
<circle cx="63.5" cy="63.5" r="63.35" fill="#E7FFC0" stroke="#959595" stroke-width="0.3"/>
<g clip-path="url(#clip0)">
<path d="M36.2835 52.0236C38.7794 91.1103 91.5205 83.1371 89.6689 52.0236H36.2835Z" fill="#D2FFFF"/>
<path d="M41.4507 55.4266C41.3956 55.1093 41.2175 54.8264 40.955 54.6391C40.6924 54.4518 40.3665 54.3752 40.0478 54.4257C39.729 54.4763 39.443 54.65 39.2516 54.9093C39.0603 55.1686 38.9789 55.4926 39.0251 55.8113C39.9834 61.5511 42.9425 66.7689 47.3805 70.5445C51.8184 74.3202 57.4502 76.4112 63.2826 76.4488C63.6084 76.4488 63.9207 76.3197 64.1511 76.0899C64.3814 75.8601 64.5108 75.5485 64.5108 75.2235C64.5108 74.8985 64.3814 74.5869 64.1511 74.3571C63.9207 74.1273 63.6084 73.9982 63.2826 73.9982C58.0337 73.9646 52.9653 72.0831 48.9711 68.6854C44.9769 65.2877 42.3136 60.592 41.4507 55.4266Z" fill="#007296"/>
<path d="M68.2204 76.4493C68.5461 76.4493 68.8585 76.3202 69.0888 76.0904C69.3191 75.8606 69.4485 75.5489 69.4485 75.224C69.4485 74.899 69.3191 74.5873 69.0888 74.3575C68.8585 74.1278 68.5461 73.9987 68.2204 73.9987H68.2081C67.8824 74.0003 67.5706 74.1309 67.3414 74.3619C67.1123 74.5928 66.9844 74.9051 66.9861 75.2301C66.9877 75.5551 67.1186 75.8661 67.3501 76.0947C67.5816 76.3234 67.8946 76.4509 68.2204 76.4493Z" fill="#007296"/>
<path d="M75.5644 38.4664C75.5644 38.7914 75.6938 39.103 75.9241 39.3328C76.1544 39.5626 76.4668 39.6917 76.7926 39.6917C77.1183 39.6917 77.4307 39.5626 77.661 39.3328C77.8913 39.103 78.0207 38.7914 78.0207 38.4664C78.0207 37.4915 78.4089 36.5565 79.0999 35.8672C79.7909 35.1778 80.728 34.7905 81.7052 34.7905C82.031 34.7905 82.3433 34.6615 82.5737 34.4317C82.804 34.2019 82.9334 33.8902 82.9334 33.5653C82.9334 33.2403 82.804 32.9286 82.5737 32.6989C82.3433 32.4691 82.031 32.34 81.7052 32.34C80.728 32.34 79.7909 31.9527 79.0999 31.2633C78.4089 30.574 78.0207 29.639 78.0207 28.6641C78.0207 28.3392 77.8913 28.0275 77.661 27.7977C77.4307 27.5679 77.1183 27.4388 76.7926 27.4388C76.4668 27.4388 76.1544 27.5679 75.9241 27.7977C75.6938 28.0275 75.5644 28.3392 75.5644 28.6641C75.5644 29.639 75.1762 30.574 74.4852 31.2633C73.7943 31.9527 72.8571 32.34 71.8799 32.34C71.5542 32.34 71.2418 32.4691 71.0115 32.6989C70.7811 32.9286 70.6517 33.2403 70.6517 33.5653C70.6517 33.8902 70.7811 34.2019 71.0115 34.4317C71.2418 34.6615 71.5542 34.7905 71.8799 34.7905C72.8571 34.7905 73.7943 35.1778 74.4852 35.8672C75.1762 36.5565 75.5644 37.4915 75.5644 38.4664ZM76.7926 32.34C77.1426 32.8036 77.556 33.2161 78.0207 33.5653C77.556 33.9144 77.1426 34.3269 76.7926 34.7905C76.4426 34.3269 76.0292 33.9144 75.5644 33.5653C76.0292 33.2161 76.4426 32.8036 76.7926 32.34Z" fill="#D1C1FF"/>
<path d="M68.1952 39.6901H65.7388V42.1406H68.1952V39.6901Z" fill="#FEE505"/>
<path d="M68.1952 44.5914H65.7388V47.042H68.1952V44.5914Z" fill="#FEE505"/>
<path d="M65.7387 42.1407H63.2824V44.5913H65.7387V42.1407Z" fill="#FEE505"/>
<path d="M70.6516 42.1407H68.1953V44.5913H70.6516V42.1407Z" fill="#FEE505"/>
<path d="M91.5306 42.1407C89.465 42.1431 87.4694 42.8874 85.9087 44.2374C84.3481 45.5874 83.3268 47.4528 83.0317 49.4924H50.5946L46.0884 36.2936C46.0435 35.575 45.7886 34.8852 45.3551 34.3094C44.9217 33.7337 44.3286 33.2973 43.6493 33.054L28.0786 27.5084C27.7718 27.3992 27.434 27.4161 27.1397 27.5553C26.8453 27.6946 26.6185 27.9448 26.509 28.2509C26.3996 28.557 26.4165 28.894 26.5561 29.1876C26.6957 29.4813 26.9464 29.7076 27.2533 29.8168L42.8166 35.3624C43.0553 35.4474 43.2618 35.6039 43.4078 35.8105C43.5538 36.0172 43.6321 36.2638 43.6321 36.5166C43.632 36.6509 43.6544 36.7843 43.6984 36.9112L47.9995 49.4924H35.0349C34.7092 49.4924 34.3968 49.6215 34.1665 49.8513C33.9362 50.0811 33.8068 50.3927 33.8068 50.7177V51.943C33.8163 59.5267 36.7589 66.8142 42.0213 72.2869C47.2837 77.7595 54.46 80.995 62.0546 81.3192V93.6026H59.5983C59.3829 93.6015 59.171 93.6573 58.9842 93.7644L50.6756 98.5038H44.8603C44.5346 98.5038 44.2222 98.6329 43.9918 98.8627C43.7615 99.0924 43.6321 99.4041 43.6321 99.7291C43.6321 100.054 43.7615 100.366 43.9918 100.595C44.2222 100.825 44.5346 100.954 44.8603 100.954H81.7053C82.031 100.954 82.3434 100.825 82.5737 100.595C82.804 100.366 82.9334 100.054 82.9334 99.7291C82.9334 99.4041 82.804 99.0924 82.5737 98.8627C82.3434 98.6329 82.031 98.5038 81.7053 98.5038H75.8899L67.5814 93.7644C67.3946 93.6573 67.1827 93.6015 66.9673 93.6026H64.5109V81.3192C70.8298 81.048 76.8945 78.7603 81.8125 74.7929C86.7305 70.8254 90.2421 65.3877 91.8303 59.28C94.0511 59.158 96.1382 58.1821 97.653 56.5572C99.1677 54.9324 99.9923 52.785 99.9535 50.5664C99.9148 48.3477 99.0156 46.2304 97.4449 44.6592C95.8743 43.0881 93.7544 42.1853 91.5306 42.1407ZM66.6406 96.0532L70.9392 98.5038H55.6264L59.925 96.0532H66.6406ZM63.2828 78.8992C56.1192 78.8911 49.2514 76.0485 44.186 70.995C39.1206 65.9415 36.2712 59.0897 36.2631 51.943H48.8371L51.0674 58.4652C51.1502 58.7071 51.3067 58.9171 51.515 59.0658C51.7233 59.2146 51.9731 59.2946 52.2293 59.2947C52.3643 59.2948 52.4984 59.2725 52.626 59.2285C52.934 59.1235 53.1877 58.9007 53.3312 58.6091C53.4746 58.3175 53.4962 57.9811 53.3911 57.6736L51.4322 51.943H90.3024C90.2943 59.0897 87.445 65.9415 82.3796 70.995C77.3142 76.0485 70.4463 78.8911 63.2828 78.8992ZM92.3559 56.7608C92.6223 55.1686 92.757 53.5572 92.7588 51.943V50.7177C92.7588 50.3927 92.6294 50.0811 92.3991 49.8513C92.1687 49.6215 91.8563 49.4924 91.5306 49.4924H85.5126C85.733 48.3885 86.254 47.3665 87.0184 46.5386C87.7828 45.7107 88.761 45.1088 89.8457 44.7992C90.9304 44.4895 92.0797 44.484 93.1673 44.7831C94.255 45.0823 95.239 45.6747 96.0114 46.4952C96.7838 47.3157 97.3147 48.3326 97.5458 49.4343C97.7769 50.5361 97.6992 51.68 97.3214 52.7407C96.9436 53.8013 96.2802 54.7376 95.4041 55.4467C94.5279 56.1559 93.4729 56.6106 92.3547 56.7608H92.3559Z" fill="#3B3B3B"/>
<path d="M59.6546 95.9955L55.546 98.4654H70.4001L66.6075 95.9955H59.6546Z" fill="#D2FFFF"/>
<path d="M84.7 49.6355C92.4779 35.1808 104.793 52.7329 92.4779 57.5512V49.6355H84.7Z" fill="#FFA14A"/>
</g>
<defs>
<clipPath id="clip0">
<rect width="113.043" height="113.043" fill="white" transform="translate(24 25) scale(0.69)"/>
</clipPath>
</defs>
</svg>
