<svg width="127" height="127" viewBox="0 0 127 127" fill="none" xmlns="http://www.w3.org/2000/svg">
<circle cx="63.5" cy="63.5" r="63.35" fill="#FFFBE9" stroke="#959595" stroke-width="0.3"/>
<g clip-path="url(#clip0)">
<g clip-path="url(#clip1)">
<path d="M103.827 52.3749H102.341C102.004 49.6872 100.698 47.215 98.6667 45.4227C96.6358 43.6304 94.0204 42.6414 91.3117 42.6414C88.6031 42.6414 85.9876 43.6304 83.9568 45.4227C81.9259 47.215 80.6194 49.6872 80.2827 52.3749H78.7961C78.4273 52.3749 78.0736 52.5214 77.8128 52.7822C77.552 53.043 77.4055 53.3967 77.4055 53.7655C77.4055 54.1343 77.552 54.488 77.8128 54.7488C78.0736 55.0096 78.4273 55.1561 78.7961 55.1561H84.3586V59.328C84.3586 59.6968 84.5051 60.0505 84.7659 60.3113C85.0267 60.5721 85.3804 60.7186 85.7492 60.7186H89.9211V72.3582L81.5495 62.9436C81.4085 60.8333 80.4714 58.8553 78.9276 57.4096C77.3838 55.9639 75.3486 55.1585 73.2336 55.1561H70.8334C72.506 53.6865 73.6991 51.7488 74.2585 49.5936H78.7961C79.1649 49.5936 79.5186 49.4471 79.7794 49.1863C80.0402 48.9255 80.1867 48.5718 80.1867 48.203V38.4686C80.1867 34.0428 78.4286 29.7983 75.2991 26.6688C72.1696 23.5392 67.925 21.7811 63.4992 21.7811C59.0734 21.7811 54.8289 23.5392 51.6994 26.6688C48.5699 29.7983 46.8117 34.0428 46.8117 38.4686V48.203C46.8117 48.5718 46.9582 48.9255 47.219 49.1863C47.4798 49.4471 47.8335 49.5936 48.2023 49.5936H52.74C53.2993 51.7488 54.4924 53.6865 56.1651 55.1561H53.7648C51.644 55.1587 49.6037 55.9688 48.0587 57.4218C46.5137 58.8748 45.5801 60.8617 45.4475 62.9784L34.6006 76.537C34.3868 76.8043 34.2791 77.1411 34.2981 77.4828C34.3171 77.8246 34.4614 78.1474 34.7035 78.3893L45.4211 89.1069V103.828C45.4211 104.197 45.5676 104.551 45.8284 104.811C46.0892 105.072 46.4429 105.219 46.8117 105.219H80.1867C80.5555 105.219 80.9093 105.072 81.17 104.811C81.4308 104.551 81.5773 104.197 81.5773 103.828V67.1572L90.2729 76.9389C90.4603 77.1494 90.7072 77.298 90.981 77.3651C91.2547 77.4321 91.5423 77.4144 91.8058 77.3143C92.0692 77.2141 92.296 77.0363 92.4562 76.8044C92.6163 76.5725 92.7021 76.2973 92.7024 76.0155V60.7186H96.8742C97.243 60.7186 97.5968 60.5721 97.8575 60.3113C98.1183 60.0505 98.2648 59.6968 98.2648 59.328V55.1561H103.827C104.196 55.1561 104.55 55.0096 104.811 54.7488C105.071 54.488 105.218 54.1343 105.218 53.7655C105.218 53.3967 105.071 53.043 104.811 52.7822C104.55 52.5214 104.196 52.3749 103.827 52.3749ZM45.4211 85.1742L37.5502 77.3032L45.4211 67.4646V85.1742ZM52.3742 38.4686V46.8124H49.593V38.4686C49.593 34.7804 51.0581 31.2433 53.666 28.6354C56.2739 26.0275 59.8111 24.5623 63.4992 24.5623C67.1874 24.5623 70.7245 26.0275 73.3324 28.6354C75.9404 31.2433 77.4055 34.7804 77.4055 38.4686V46.8124H74.6242V34.2967C74.6241 34.0896 74.5778 33.885 74.4885 33.6981C74.3992 33.5112 74.2694 33.3465 74.1083 33.2162C73.9476 33.0846 73.759 32.9911 73.5569 32.943C73.3548 32.8948 73.1444 32.8931 72.9416 32.9381L53.4728 37.11C53.162 37.1767 52.8834 37.348 52.6835 37.5952C52.4836 37.8424 52.3744 38.1507 52.3742 38.4686ZM55.1555 46.8124V39.5936L71.843 36.0169V46.8124C71.843 49.0253 70.9639 51.1475 69.3991 52.7123C67.8344 54.2771 65.7121 55.1561 63.4992 55.1561C61.2863 55.1561 59.1641 54.2771 57.5993 52.7123C56.0345 51.1475 55.1555 49.0253 55.1555 46.8124ZM78.7961 102.437H48.2023V99.6562H78.7961V102.437ZM78.7961 96.8749H48.2023V91.3124H78.7961V96.8749ZM78.7961 88.5312H48.2023V63.4999C48.2023 62.0246 48.7884 60.6098 49.8316 59.5666C50.8747 58.5234 52.2896 57.9374 53.7648 57.9374H73.2336C74.7089 57.9374 76.1237 58.5234 77.1669 59.5666C78.21 60.6098 78.7961 62.0246 78.7961 63.4999V88.5312ZM95.4836 57.9374H87.1398V55.1561H95.4836V57.9374ZM83.0834 52.3749C83.4105 50.429 84.4165 48.6621 85.9229 47.3877C87.4293 46.1134 89.3386 45.4142 91.3117 45.4142C93.2848 45.4142 95.1941 46.1134 96.7005 47.3877C98.2069 48.6621 99.213 50.429 99.5401 52.3749H83.0834Z" fill="#3B3B3B"/>
<path d="M92.7305 41.2499C92.7305 40.881 92.584 40.5273 92.3232 40.2665C92.0624 40.0057 91.7087 39.8592 91.3398 39.8592H91.3259C91.0515 39.862 90.784 39.9459 90.5572 40.1003C90.3303 40.2548 90.1542 40.4729 90.0511 40.7273C89.948 40.9816 89.9224 41.2608 89.9777 41.5296C90.0329 41.7984 90.1664 42.0449 90.3614 42.238C90.5565 42.4311 90.8043 42.5622 91.0736 42.6147C91.343 42.6672 91.6219 42.6389 91.8752 42.5332C92.1285 42.4276 92.3448 42.2494 92.497 42.021C92.6492 41.7926 92.7305 41.5243 92.7305 41.2499Z" fill="#BA2525"/>
<path d="M59.3557 42.6405C59.7245 42.6405 60.0782 42.494 60.339 42.2332C60.5998 41.9724 60.7463 41.6187 60.7463 41.2499C60.7463 40.881 60.5998 40.5273 60.339 40.2665C60.0782 40.0057 59.7245 39.8592 59.3557 39.8592H59.3418C58.9729 39.8611 58.62 40.0094 58.3605 40.2715C58.101 40.5336 57.9562 40.888 57.9581 41.2568C57.9599 41.6256 58.1082 41.9786 58.3703 42.2381C58.6324 42.4976 58.9868 42.6423 59.3557 42.6405Z" fill="#3B3B3B"/>
<path d="M67.6987 42.6405C68.0675 42.6405 68.4212 42.494 68.682 42.2332C68.9428 41.9724 69.0893 41.6187 69.0893 41.2499C69.0893 40.881 68.9428 40.5273 68.682 40.2665C68.4212 40.0057 68.0675 39.8592 67.6987 39.8592H67.6848C67.316 39.8611 66.963 40.0094 66.7035 40.2715C66.444 40.5336 66.2993 40.888 66.3011 41.2568C66.3029 41.6256 66.4512 41.9786 66.7133 42.2381C66.9754 42.4976 67.3299 42.6423 67.6987 42.6405Z" fill="#3B3B3B"/>
<path d="M72.5727 60.9257C72.3713 60.8013 72.1414 60.7304 71.9048 60.7197C71.6683 60.7089 71.4329 60.7588 71.221 60.8645L63.4989 64.7263L55.7768 60.8645C55.5647 60.7586 55.329 60.7086 55.0922 60.7193C54.8554 60.73 54.6252 60.8011 54.4236 60.9258C54.222 61.0505 54.0556 61.2247 53.9403 61.4318C53.8249 61.6389 53.7644 61.8721 53.7645 62.1092V70.4529C53.7632 70.6906 53.8228 70.9246 53.9377 71.1326C54.0526 71.3407 54.2189 71.5158 54.4207 71.6414C54.6225 71.7669 54.8531 71.8386 55.0905 71.8496C55.3279 71.8607 55.5642 71.8107 55.7768 71.7045L63.4989 67.8357L71.221 71.7045C71.4336 71.8107 71.6699 71.8607 71.9073 71.8496C72.1447 71.8386 72.3753 71.7669 72.5771 71.6414C72.7789 71.5158 72.9452 71.3407 73.0601 71.1326C73.1749 70.9246 73.2346 70.6906 73.2333 70.4529V62.1092C73.2332 61.8719 73.1725 61.6387 73.0569 61.4315C72.9413 61.2244 72.7746 61.0503 72.5727 60.9257ZM56.5458 68.2029V64.3592L60.3894 66.281L56.5458 68.2029ZM70.452 68.2029L66.6083 66.281L70.452 64.3592V68.2029Z" fill="#3B3B3B"/>
<path d="M71 63.5V68.5L66 66.3571L71 63.5Z" fill="#BA2525"/>
<path d="M56 63.5V68.5L61 66.3571L56 63.5Z" fill="#BA2525"/>
<path d="M63.5271 71.8437H63.5132C63.1432 71.8455 62.7889 71.9941 62.5282 72.2567C62.2676 72.5194 62.1217 72.8747 62.1226 73.2447C62.1235 73.6148 62.2712 73.9694 62.5332 74.2307C62.7952 74.4921 63.1501 74.6388 63.5202 74.6388C63.8902 74.6388 64.2452 74.4921 64.5072 74.2307C64.7692 73.9694 64.9168 73.6148 64.9177 73.2447C64.9187 72.8747 64.7728 72.5194 64.5121 72.2567C64.2514 71.9941 63.8972 71.8455 63.5271 71.8437Z" fill="#3B3B3B"/>
<path d="M63.5271 77.4062H63.5132C63.1432 77.408 62.7889 77.5566 62.5282 77.8192C62.2676 78.0819 62.1217 78.4372 62.1226 78.8072C62.1235 79.1773 62.2712 79.5319 62.5332 79.7932C62.7952 80.0546 63.1501 80.2013 63.5202 80.2013C63.8902 80.2013 64.2452 80.0546 64.5072 79.7932C64.7692 79.5319 64.9168 79.1773 64.9177 78.8072C64.9187 78.4372 64.7728 78.0819 64.5121 77.8192C64.2514 77.5566 63.8972 77.408 63.5271 77.4062Z" fill="#3B3B3B"/>
<path d="M63.5271 82.9687H63.5132C63.1432 82.9705 62.7889 83.119 62.5282 83.3817C62.2676 83.6443 62.1217 83.9996 62.1226 84.3697C62.1235 84.7397 62.2712 85.0943 62.5332 85.3557C62.7952 85.617 63.1501 85.7638 63.5202 85.7638C63.8902 85.7638 64.2452 85.617 64.5072 85.3557C64.7692 85.0943 64.9168 84.7397 64.9177 84.3697C64.9187 83.9996 64.7728 83.6443 64.5121 83.3817C64.2514 83.119 63.8972 82.9705 63.5271 82.9687Z" fill="#3B3B3B"/>
<rect x="48" y="99" width="31" height="4" fill="#BA2525"/>
</g>
</g>
<defs>
<clipPath id="clip0">
<rect width="79.375" height="95.25" fill="white" transform="translate(23.8125 15.875)"/>
</clipPath>
<clipPath id="clip1">
<rect width="128.986" height="128.986" fill="white" transform="translate(19 19) scale(0.69)"/>
</clipPath>
</defs>
</svg>
