<svg width="127" height="127" viewBox="0 0 127 127" fill="none" xmlns="http://www.w3.org/2000/svg">
<circle cx="63.5" cy="63.5" r="63.35" fill="#98D7D3" stroke="#959595" stroke-width="0.3"/>
<g clip-path="url(#clip0)">
<g clip-path="url(#clip1)">
<path d="M36.7283 66.5117L39.0709 48.1062C41.9504 48.4682 43.2207 48.1786 45.0945 47.1023C48.6542 50.0375 50.903 49.8991 55.1339 48.1062C56.7876 50.1578 57.9385 50.5738 60.1536 50.7834L58.1457 69.1889H57.4764L36.7283 66.5117Z" fill="#FDD775"/>
<path d="M103.344 96.7031C103.344 96.3509 103.204 96.0131 102.955 95.764C102.706 95.5149 102.368 95.375 102.016 95.375C100.959 95.375 99.9455 94.9552 99.1983 94.208C98.4511 93.4608 98.0313 92.4473 98.0313 91.3906C98.0313 91.0384 97.8914 90.7006 97.6423 90.4515C97.3933 90.2024 97.0554 90.0625 96.7032 90.0625C96.351 90.0625 96.0131 90.2024 95.7641 90.4515C95.515 90.7006 95.3751 91.0384 95.3751 91.3906C95.3751 92.4473 94.9553 93.4608 94.2081 94.208C93.4609 94.9552 92.4474 95.375 91.3907 95.375C91.0385 95.375 90.7006 95.5149 90.4516 95.764C90.2025 96.0131 90.0626 96.3509 90.0626 96.7031C90.0626 97.0554 90.2025 97.3932 90.4516 97.6423C90.7006 97.8913 91.0385 98.0313 91.3907 98.0313C92.4474 98.0313 93.4609 98.451 94.2081 99.1983C94.9553 99.9455 95.3751 100.959 95.3751 102.016C95.3751 102.368 95.515 102.706 95.7641 102.955C96.0131 103.204 96.351 103.344 96.7032 103.344C97.0554 103.344 97.3933 103.204 97.6423 102.955C97.8914 102.706 98.0313 102.368 98.0313 102.016C98.0313 100.959 98.4511 99.9455 99.1983 99.1983C99.9455 98.451 100.959 98.0313 102.016 98.0313C102.368 98.0313 102.706 97.8913 102.955 97.6423C103.204 97.3932 103.344 97.0554 103.344 96.7031ZM96.7032 98.0724C96.3163 97.5514 95.8549 97.09 95.3339 96.7031C95.8549 96.3162 96.3163 95.8549 96.7032 95.3338C97.0901 95.8549 97.5515 96.3162 98.0725 96.7031C97.5515 97.09 97.0901 97.5514 96.7032 98.0724Z" fill="#BA2525"/>
<path d="M24.9872 31.625C26.044 31.625 27.0574 32.0448 27.8046 32.792C28.5518 33.5392 28.9716 34.5527 28.9716 35.6094C28.9716 35.9616 29.1116 36.2994 29.3606 36.5485C29.6097 36.7976 29.9475 36.9375 30.2997 36.9375C30.652 36.9375 30.9898 36.7976 31.2389 36.5485C31.4879 36.2994 31.6279 35.9616 31.6279 35.6094C31.6279 34.5527 32.0477 33.5392 32.7949 32.792C33.5421 32.0448 34.5555 31.625 35.6123 31.625C35.9645 31.625 36.3023 31.4851 36.5514 31.236C36.8005 30.9869 36.9404 30.6491 36.9404 30.2969C36.9404 29.9446 36.8005 29.6068 36.5514 29.3577C36.3023 29.1087 35.9645 28.9687 35.6123 28.9687C34.5555 28.9687 33.5421 28.549 32.7949 27.8018C32.0477 27.0545 31.6279 26.0411 31.6279 24.9844C31.6279 24.6321 31.4879 24.2943 31.2389 24.0452C30.9898 23.7962 30.652 23.6562 30.2997 23.6562C29.9475 23.6562 29.6097 23.7962 29.3606 24.0452C29.1116 24.2943 28.9716 24.6321 28.9716 24.9844C28.9716 26.0411 28.5518 27.0545 27.8046 27.8018C27.0574 28.549 26.044 28.9687 24.9872 28.9687C24.635 28.9687 24.2972 29.1087 24.0481 29.3577C23.799 29.6068 23.6591 29.9446 23.6591 30.2969C23.6591 30.6491 23.799 30.9869 24.0481 31.236C24.2972 31.4851 24.635 31.625 24.9872 31.625ZM30.2997 28.9276C30.6866 29.4486 31.148 29.91 31.669 30.2969C31.148 30.6838 30.6866 31.1451 30.2997 31.6662C29.9129 31.1451 29.4515 30.6838 28.9305 30.2969C29.4515 29.91 29.9129 29.4486 30.2997 28.9276Z" fill="#FF6109"/>
<path d="M34.5659 40.8542C34.4404 41.8719 34.5535 42.9048 34.896 43.8713C35.2385 44.8378 35.8012 45.7114 36.5394 46.423V46.4562L29.9506 45.6301C28.9028 45.4986 27.8456 45.7884 27.0113 46.4359C26.1771 47.0834 25.634 48.0356 25.5014 49.0833L23.6819 63.5837C23.5503 64.6316 23.8401 65.6887 24.4876 66.523C25.1351 67.3573 26.0873 67.9004 27.135 68.0329L33.7238 68.859L32.7317 76.7654L59.0883 80.0737L62.8523 50.0701C63.9974 49.4964 64.9276 48.5696 65.5056 47.4267C66.0836 46.2837 66.2787 44.9852 66.062 43.7229C65.8454 42.4605 65.2286 41.3013 64.3026 40.4165C63.3767 39.5316 62.1907 38.968 60.9198 38.8089C60.5799 38.7651 60.2367 38.7531 59.8945 38.773C59.6047 36.8988 58.7486 35.158 57.4411 33.7843C56.1336 32.4106 54.4372 31.4696 52.5796 31.0875C50.7219 30.7055 48.7919 30.9008 47.0484 31.6471C45.3049 32.3934 43.8314 33.655 42.8255 35.2628C42.5471 35.1856 42.2634 35.1288 41.9768 35.0928C40.2295 34.8737 38.4668 35.3576 37.0763 36.4381C35.6858 37.5185 34.7813 39.107 34.5619 40.8542H34.5659ZM26.5865 64.8933C26.4797 64.7557 26.4013 64.5984 26.3557 64.4304C26.3101 64.2624 26.2983 64.087 26.3209 63.9144L28.1364 49.4219C28.1765 49.1012 28.3321 48.8061 28.5742 48.592C28.8162 48.3778 29.128 48.2592 29.4512 48.2585C29.5076 48.2588 29.5639 48.2623 29.6199 48.2691L36.2087 49.0965L35.8754 51.7276L30.6041 51.0635L29.1152 62.9237L34.3866 63.5877L34.0559 66.224L27.467 65.3966C27.2943 65.375 27.1276 65.3194 26.9764 65.233C26.8253 65.1466 26.6928 65.0311 26.5865 64.8933ZM35.5473 54.3639L34.7199 60.9527L32.0849 60.622L32.911 54.0332L35.5473 54.3639ZM56.7867 77.1067L35.7027 74.4611L36.3668 69.1897L57.4508 71.8354L56.7867 77.1067ZM36.6948 66.5547L39.027 47.9716C39.9618 48.2895 40.9563 48.3923 41.9363 48.2725C42.9164 48.1527 43.8568 47.8133 44.6875 47.2797C46.1465 48.5268 47.9571 49.2896 49.8687 49.4626C51.7803 49.6356 53.6984 49.2102 55.3576 48.2452C55.8333 48.9085 56.4411 49.4662 57.1429 49.8831C57.8446 50.3 58.625 50.5671 59.435 50.6677C59.6552 50.696 59.877 50.7111 60.0991 50.7129L57.7788 69.2004L36.6948 66.5547ZM37.2035 41.1876C37.2726 40.5572 37.4934 39.9531 37.8471 39.4268C38.2007 38.9005 38.6767 38.4678 39.2342 38.1657C39.7916 37.8635 40.414 37.7011 41.0481 37.6921C41.6821 37.6832 42.3088 37.828 42.8746 38.1143L44.1005 38.7066L44.6609 37.4661C45.291 36.0725 46.3829 34.9391 47.752 34.2574C49.1211 33.5757 50.6836 33.3875 52.1754 33.7246C53.6673 34.0617 54.997 34.9034 55.94 36.1075C56.883 37.3117 57.3815 38.8044 57.3512 40.3336L57.3113 42.2368L59.1123 41.6165C59.5868 41.4454 60.0948 41.3872 60.5958 41.4465C61.3448 41.5305 62.0427 41.8682 62.5734 42.4034C63.1041 42.9387 63.4357 43.6394 63.5133 44.3892C63.5909 45.139 63.4096 45.8927 62.9997 46.5253C62.5898 47.1578 61.9759 47.6312 61.2598 47.8667L61.2213 47.88C60.8163 48.02 60.3876 48.0786 59.9599 48.0526C59.5321 48.0266 59.1137 47.9164 58.7286 47.7284C58.3436 47.5403 57.9994 47.2781 57.7158 46.9568C57.4323 46.6355 57.2149 46.2614 57.0762 45.8559L56.4308 44.0669L54.9698 45.2888C54.2734 45.8799 53.4612 46.3191 52.5853 46.5784C51.7095 46.8378 50.7891 46.9115 49.8831 46.7949C48.2994 46.5939 46.8411 45.8292 45.7752 44.6407L44.8655 43.6286L43.8747 44.5583C43.4521 44.9653 42.9441 45.273 42.3877 45.4591C41.8313 45.6452 41.2404 45.705 40.658 45.6341C40.3316 45.591 40.0124 45.5053 39.7084 45.3791C39.6765 45.3658 39.6473 45.3499 39.6167 45.3379C39.3104 45.2044 39.0211 45.035 38.7548 44.8333L38.4825 44.6261C38.0094 44.1973 37.6463 43.6612 37.4237 43.0628C37.2011 42.4644 37.1256 41.8212 37.2035 41.1876Z" fill="#3B3B3B"/>
<path d="M85.1411 66.3091L94.2108 44.779L69.1983 49.2319L85.1411 66.3091Z" fill="#DDFFFB"/>
<path d="M86.4387 71.6526L90.193 75.1781L84.2372 76.3085L86.4387 71.6526Z" fill="#DDFFFB"/>
<path d="M83.919 65.8348L84.6827 70.1406L78.8576 78.4772L95.6411 75.4996L87.2991 69.6758L86.5354 65.37L94.9026 45.3352C94.9951 45.1148 95.0264 44.8735 94.9932 44.6367C94.96 44.4 94.8635 44.1766 94.7139 43.9901C94.5643 43.8037 94.3671 43.6611 94.1432 43.5773C93.9193 43.4936 93.6769 43.4718 93.4417 43.5143L69.9087 47.6953C69.6738 47.737 69.4545 47.8411 69.2739 47.9968C69.0932 48.1525 68.9577 48.3539 68.8818 48.58C68.8058 48.8061 68.7922 49.0485 68.8422 49.2817C68.8923 49.5149 69.0042 49.7303 69.1662 49.9053L83.919 65.8348ZM84.7093 74.7333L86.4146 72.2922L88.8557 73.9975L84.7093 74.7333ZM91.5159 46.5491L84.7292 62.7934L72.7681 49.8747L91.5159 46.5491Z" fill="#3B3B3B"/>
<ellipse cx="86.0886" cy="38.2343" rx="1.50592" ry="1.5059" fill="#1FD7FF"/>
<ellipse cx="99.4744" cy="38.2343" rx="1.50591" ry="1.5059" fill="#1FD7FF"/>
<path d="M86.0778 42.25C87.1345 42.25 88.148 41.8302 88.8952 41.083C89.6424 40.3358 90.0622 39.3223 90.0622 38.2656V31.625H100.687V34.5256C100.262 34.3683 99.8125 34.2857 99.359 34.2812C98.571 34.2812 97.8006 34.5149 97.1454 34.9527C96.4902 35.3905 95.9795 36.0128 95.6779 36.7409C95.3764 37.4689 95.2975 38.27 95.4512 39.0429C95.6049 39.8158 95.9844 40.5258 96.5416 41.083C97.0989 41.6402 97.8088 42.0197 98.5817 42.1734C99.3546 42.3272 100.156 42.2483 100.884 41.9467C101.612 41.6451 102.234 41.1344 102.672 40.4792C103.11 39.824 103.343 39.0537 103.343 38.2656V23.6562H87.4059V34.5256C86.9806 34.3683 86.5313 34.2857 86.0778 34.2812C85.0211 34.2812 84.0076 34.701 83.2604 35.4482C82.5132 36.1955 82.0934 37.2089 82.0934 38.2656C82.0934 39.3223 82.5132 40.3358 83.2604 41.083C84.0076 41.8302 85.0211 42.25 86.0778 42.25ZM99.359 39.5937C99.0963 39.5937 98.8396 39.5159 98.6212 39.3699C98.4027 39.224 98.2325 39.0166 98.132 38.7739C98.0315 38.5312 98.0052 38.2642 98.0564 38.0065C98.1077 37.7489 98.2341 37.5122 98.4199 37.3265C98.6056 37.1408 98.8423 37.0143 99.0999 36.963C99.3575 36.9118 99.6246 36.9381 99.8673 37.0386C100.11 37.1391 100.317 37.3093 100.463 37.5278C100.609 37.7462 100.687 38.0029 100.687 38.2656C100.687 38.6179 100.547 38.9557 100.298 39.2047C100.049 39.4538 99.7113 39.5937 99.359 39.5937ZM90.0622 26.3125H100.687V28.9687H90.0622V26.3125ZM86.0778 36.9375C86.3405 36.9375 86.5972 37.0154 86.8157 37.1613C87.0341 37.3073 87.2043 37.5147 87.3048 37.7574C87.4053 38.0001 87.4316 38.2671 87.3804 38.5247C87.3292 38.7824 87.2027 39.019 87.0169 39.2047C86.8312 39.3905 86.5945 39.517 86.3369 39.5682C86.0793 39.6195 85.8122 39.5932 85.5695 39.4927C85.3269 39.3921 85.1194 39.2219 84.9735 39.0035C84.8276 38.7851 84.7497 38.5283 84.7497 38.2656C84.7497 37.9134 84.8896 37.5756 85.1387 37.3265C85.3877 37.0774 85.7256 36.9375 86.0778 36.9375Z" fill="#3B3B3B"/>
<ellipse cx="30.2027" cy="99.4743" rx="1.5059" ry="1.50591" fill="#FF92FB"/>
<path d="M31.6252 82.0938V95.6194C31.1999 95.4621 30.7506 95.3794 30.2971 95.375C29.5091 95.375 28.7387 95.6087 28.0835 96.0465C27.4283 96.4843 26.9176 97.1066 26.616 97.8346C26.3145 98.5627 26.2356 99.3638 26.3893 100.137C26.543 100.91 26.9225 101.62 27.4797 102.177C28.037 102.734 28.7469 103.113 29.5198 103.267C30.2927 103.421 31.0938 103.342 31.8219 103.04C32.5499 102.739 33.1722 102.228 33.61 101.573C34.0478 100.918 34.2815 100.147 34.2815 99.3594V84.8443C37.371 85.0841 40.3013 86.3116 42.6394 88.3452L44.5174 86.4673C40.1943 82.1442 33.2469 82.0938 32.9534 82.0938H31.6252ZM30.2971 100.687C30.0344 100.687 29.7777 100.61 29.5593 100.464C29.3408 100.318 29.1706 100.11 29.0701 99.8676C28.9696 99.6249 28.9433 99.3579 28.9945 99.1002C29.0458 98.8426 29.1723 98.606 29.358 98.4202C29.5437 98.2345 29.7804 98.108 30.038 98.0567C30.2956 98.0055 30.5627 98.0318 30.8054 98.1323C31.0481 98.2329 31.2555 98.4031 31.4014 98.6215C31.5474 98.8399 31.6252 99.0967 31.6252 99.3594C31.6252 99.7116 31.4853 100.049 31.2362 100.298C30.9872 100.548 30.6494 100.687 30.2971 100.687Z" fill="#3B3B3B"/>
<path d="M66.1562 86.0781C66.1562 86.8661 66.3899 87.6365 66.8277 88.2917C67.2655 88.9469 67.8878 89.4576 68.6159 89.7592C69.3439 90.0607 70.145 90.1396 70.9179 89.9859C71.6908 89.8322 72.4008 89.4527 72.958 88.8955C73.5152 88.3382 73.8947 87.6283 74.0484 86.8554C74.2022 86.0825 74.1233 85.2814 73.8217 84.5534C73.5201 83.8253 73.0094 83.203 72.3542 82.7652C71.699 82.3274 70.9286 82.0938 70.1406 82.0938C69.0839 82.0938 68.0705 82.5135 67.3232 83.2607C66.576 84.008 66.1562 85.0214 66.1562 86.0781ZM70.1406 84.75C70.4033 84.75 70.6601 84.8279 70.8785 84.9738C71.0969 85.1197 71.2671 85.3272 71.3676 85.5699C71.4682 85.8125 71.4945 86.0796 71.4432 86.3372C71.392 86.5948 71.2655 86.8315 71.0797 87.0172C70.894 87.203 70.6574 87.3295 70.3997 87.3807C70.1421 87.4319 69.875 87.4056 69.6324 87.3051C69.3897 87.2046 69.1823 87.0344 69.0363 86.816C68.8904 86.5976 68.8125 86.3408 68.8125 86.0781C68.8125 85.7259 68.9524 85.388 69.2015 85.139C69.4506 84.8899 69.7884 84.75 70.1406 84.75Z" fill="#6F1191"/>
<path d="M66.1566 68.8125C65.3686 68.8125 64.5982 69.0462 63.943 69.484C63.2878 69.9218 62.7771 70.5441 62.4755 71.2721C62.1739 72.0002 62.095 72.8013 62.2488 73.5742C62.4025 74.3471 62.782 75.057 63.3392 75.6143C63.8964 76.1715 64.6064 76.551 65.3793 76.7047C66.1522 76.8584 66.9533 76.7795 67.6813 76.478C68.4094 76.1764 69.0317 75.6657 69.4695 75.0105C69.9073 74.3552 70.141 73.5849 70.141 72.7969C70.141 71.7402 69.7212 70.7267 68.974 69.9795C68.2267 69.2323 67.2133 68.8125 66.1566 68.8125ZM66.1566 74.125C65.8939 74.125 65.6371 74.0471 65.4187 73.9012C65.2003 73.7552 65.0301 73.5478 64.9296 73.3051C64.829 73.0624 64.8027 72.7954 64.854 72.5378C64.9052 72.2801 65.0317 72.0435 65.2175 71.8577C65.4032 71.672 65.6398 71.5455 65.8975 71.4943C66.1551 71.443 66.4222 71.4693 66.6648 71.5698C66.9075 71.6704 67.1149 71.8406 67.2609 72.059C67.4068 72.2774 67.4847 72.5342 67.4847 72.7969C67.4847 73.1491 67.3448 73.4869 67.0957 73.736C66.8466 73.9851 66.5088 74.125 66.1566 74.125Z" fill="#A5D321"/>
<path d="M63.5002 34.2813C64.2883 34.2813 65.0586 34.0476 65.7138 33.6098C66.369 33.172 66.8797 32.5497 67.1813 31.8216C67.4829 31.0936 67.5618 30.2925 67.408 29.5196C67.2543 28.7467 66.8748 28.0367 66.3176 27.4795C65.7604 26.9223 65.0504 26.5428 64.2775 26.3891C63.5046 26.2353 62.7035 26.3142 61.9755 26.6158C61.2474 26.9174 60.6252 27.4281 60.1874 28.0833C59.7495 28.7385 59.5159 29.5088 59.5159 30.2969C59.5159 31.3536 59.9356 32.367 60.6829 33.1143C61.4301 33.8615 62.4435 34.2813 63.5002 34.2813ZM63.5002 28.9688C63.7629 28.9688 64.0197 29.0466 64.2381 29.1926C64.4565 29.3385 64.6267 29.5459 64.7273 29.7886C64.8278 30.0313 64.8541 30.2984 64.8028 30.556C64.7516 30.8136 64.6251 31.0503 64.4394 31.236C64.2536 31.4217 64.017 31.5482 63.7593 31.5995C63.5017 31.6507 63.2347 31.6244 62.992 31.5239C62.7493 31.4234 62.5419 31.2532 62.3959 31.0347C62.25 30.8163 62.1721 30.5596 62.1721 30.2969C62.1721 29.9446 62.312 29.6068 62.5611 29.3578C62.8102 29.1087 63.148 28.9688 63.5002 28.9688Z" fill="#FF8282"/>
<path d="M71.4961 35.6094C71.8484 35.6094 72.1862 35.4694 72.4353 35.2204C72.6843 34.9713 72.8243 34.6335 72.8243 34.2813C72.8243 33.929 72.6843 33.5912 72.4353 33.3421C72.1862 33.0931 71.8484 32.9531 71.4961 32.9531H71.4829C71.3084 32.954 71.1359 32.9892 70.9751 33.0568C70.8143 33.1243 70.6684 33.2229 70.5457 33.3468C70.423 33.4708 70.3259 33.6177 70.2599 33.7791C70.194 33.9406 70.1605 34.1135 70.1614 34.2879C70.1622 34.4623 70.1975 34.6348 70.265 34.7956C70.3326 34.9564 70.4311 35.1024 70.5551 35.2251C70.679 35.3478 70.8259 35.4449 70.9874 35.5108C71.1488 35.5768 71.3217 35.6102 71.4961 35.6094Z" fill="#FFD74A"/>
<path d="M40.9494 59.5156H40.9361C40.5827 59.5174 40.2444 59.6592 39.9954 59.9101C39.7464 60.1609 39.6071 60.5003 39.608 60.8537C39.6088 61.2071 39.7499 61.5458 40.0001 61.7954C40.2503 62.045 40.5893 62.1851 40.9427 62.1851C41.2962 62.1851 41.6351 62.045 41.8854 61.7954C42.1356 61.5458 42.2766 61.2071 42.2775 60.8537C42.2784 60.5003 42.139 60.1609 41.8901 59.9101C41.6411 59.6592 41.3028 59.5174 40.9494 59.5156Z" fill="#FFB803"/>
<path d="M44.9334 55.5312H44.9201C44.5667 55.533 44.2284 55.6749 43.9794 55.9257C43.7304 56.1765 43.5911 56.5159 43.592 56.8693C43.5929 57.2227 43.7339 57.5614 43.9841 57.811C44.2343 58.0606 44.5733 58.2008 44.9268 58.2008C45.2802 58.2008 45.6192 58.0606 45.8694 57.811C46.1196 57.5614 46.2606 57.2227 46.2615 56.8693C46.2624 56.5159 46.1231 56.1765 45.8741 55.9257C45.6251 55.6749 45.2868 55.533 44.9334 55.5312Z" fill="#FFB803"/>
<path d="M43.6047 63.5001H43.5914C43.238 63.5019 42.8997 63.6437 42.6507 63.8946C42.4017 64.1454 42.2624 64.4848 42.2633 64.8382C42.2642 65.1916 42.4052 65.5302 42.6554 65.7798C42.9056 66.0294 43.2446 66.1696 43.598 66.1696C43.9515 66.1696 44.2905 66.0294 44.5407 65.7798C44.7909 65.5302 44.9319 65.1916 44.9328 64.8382C44.9337 64.4848 44.7943 64.1454 44.5454 63.8946C44.2964 63.6437 43.9581 63.5019 43.6047 63.5001Z" fill="#FFB803"/>
<path d="M54.2302 63.5001H54.2169C53.8635 63.5019 53.5252 63.6437 53.2762 63.8946C53.0272 64.1454 52.8879 64.4848 52.8888 64.8382C52.8896 65.1916 53.0307 65.5302 53.2809 65.7798C53.5311 66.0294 53.8701 66.1696 54.2235 66.1696C54.577 66.1696 54.916 66.0294 55.1662 65.7798C55.4164 65.5302 55.5574 65.1916 55.5583 64.8382C55.5592 64.4848 55.4198 64.1454 55.1709 63.8946C54.9219 63.6437 54.5836 63.5019 54.2302 63.5001Z" fill="#FFB803"/>
<path d="M75.4802 64.828C75.8324 64.828 76.1702 64.6881 76.4193 64.439C76.6684 64.1899 76.8083 63.8521 76.8083 63.4999C76.8083 63.1476 76.6684 62.8098 76.4193 62.5607C76.1702 62.3117 75.8324 62.1718 75.4802 62.1718H75.4669C75.1146 62.1735 74.7775 62.3151 74.5297 62.5654C74.2819 62.8158 74.1436 63.1543 74.1454 63.5065C74.1471 63.8587 74.2888 64.1959 74.5391 64.4437C74.7894 64.6915 75.1279 64.8297 75.4802 64.828Z" fill="#F4890B"/>
<path d="M48.9174 60.8438H48.9041C48.5507 60.8455 48.2124 60.9874 47.9634 61.2382C47.7145 61.489 47.5751 61.8284 47.576 62.1818C47.5769 62.5352 47.7179 62.8739 47.9681 63.1235C48.2183 63.3731 48.5573 63.5133 48.9108 63.5133C49.2642 63.5133 49.6032 63.3731 49.8534 63.1235C50.1036 62.8739 50.2447 62.5352 50.2455 62.1818C50.2464 61.8284 50.1071 61.489 49.8581 61.2382C49.6091 60.9874 49.2708 60.8455 48.9174 60.8438Z" fill="#FFB803"/>
<rect x="90" y="26" width="11" height="3" fill="#1FD7FF"/>
<path fill-rule="evenodd" clip-rule="evenodd" d="M55.0451 45.5686C53.784 46.4667 52.2087 47 50.5 47C48.2213 47 46.18 46.0516 44.8045 44.5546C43.9825 45.4435 42.8062 46 41.5 46C39.0147 46 37 43.9853 37 41.5C37 39.0147 39.0147 37 41.5 37C42.2203 37 42.9011 37.1692 43.5048 37.4701C44.5915 34.8545 47.3137 33 50.5 33C54.6421 33 58 36.134 58 40C58 40.433 57.9579 40.8567 57.8773 41.268C58.3807 41.0949 58.9279 41 59.5 41C61.9853 41 64 42.7909 64 45C64 47.2091 61.9853 49 59.5 49C57.2319 49 55.3557 47.5084 55.0451 45.5686Z" fill="white"/>
</g>
</g>
<defs>
<clipPath id="clip0">
<rect width="79.375" height="95.25" fill="white" transform="translate(23.8125 15.875)"/>
</clipPath>
<clipPath id="clip1">
<rect width="123.188" height="123.188" fill="white" transform="translate(21 21) scale(0.69)"/>
</clipPath>
</defs>
</svg>
