<svg width="127" height="127" viewBox="0 0 127 127" fill="none" xmlns="http://www.w3.org/2000/svg">
<circle cx="63.5" cy="63.5" r="63.35" fill="#C7EEFF" stroke="#959595" stroke-width="0.3"/>
<g clip-path="url(#clip0)">
<g clip-path="url(#clip1)">
<rect x="53.1813" y="81.7562" width="48.4187" height="29.3687" fill="#6B5D52"/>
<path d="M92.7459 103.23H98.8125V108.875H92.7459V103.23Z" fill="#D6A700"/>
<path d="M85.8125 103.23H91.8792V108.875H85.8125V103.23Z" fill="#F49B14"/>
<path d="M92.7459 96.7782H98.8125V102.423H92.7459V96.7782Z" fill="#47B3D6"/>
<path d="M85.8125 96.7782H91.8792V102.423H85.8125V96.7782Z" fill="#D6A700"/>
<path d="M92.7459 90.3266H98.8125V95.9718H92.7459V90.3266Z" fill="#F49B14"/>
<path d="M85.8125 90.3266H91.8792V95.9718H85.8125V90.3266Z" fill="#47B3D6"/>
<path d="M92.7458 83.875H93.1673C96.2851 83.875 98.8125 86.4024 98.8125 89.5202H92.7458V83.875Z" fill="#47B3D6"/>
<path d="M85.8125 89.5202C85.8125 86.4024 88.3399 83.875 91.4577 83.875H91.8792V89.5202H85.8125Z" fill="#D6A700"/>
<path d="M77.7458 103.23H83.8125V108.875H77.7458V103.23Z" fill="#D6A700"/>
<path d="M70.8125 103.23H76.8792V108.875H70.8125V103.23Z" fill="#F49B14"/>
<path d="M77.7458 96.7782H83.8125V102.423H77.7458V96.7782Z" fill="#47B3D6"/>
<path d="M70.8125 96.7782H76.8792V102.423H70.8125V96.7782Z" fill="#D6A700"/>
<path d="M77.7458 90.3267H83.8125V95.9718H77.7458V90.3267Z" fill="#F49B14"/>
<path d="M70.8125 90.3267H76.8792V95.9718H70.8125V90.3267Z" fill="#47B3D6"/>
<path d="M77.7458 83.875H78.1673C81.2851 83.875 83.8125 86.4024 83.8125 89.5202H77.7458V83.875Z" fill="#47B3D6"/>
<path d="M70.8125 89.5202C70.8125 86.4024 73.3399 83.875 76.4577 83.875H76.8792V89.5202H70.8125Z" fill="#D6A700"/>
<line x1="76.1459" y1="88.875" x2="76.1459" y2="92.9073" stroke="#6B5D52"/>
<line x1="78.6125" y1="88.875" x2="78.6125" y2="92.9073" stroke="#6B5D52"/>
<line x1="75.6459" y1="92.6008" x2="71.3125" y2="92.6008" stroke="#6B5D52"/>
<line x1="82.8125" y1="92.075" x2="82.8125" y2="94.575" stroke="#6B5D52"/>
<line x1="71.8125" y1="92.1008" x2="71.8125" y2="94.5202" stroke="#6B5D52"/>
<line x1="71.3125" y1="94.8266" x2="75.6459" y2="94.8266" stroke="#6B5D52"/>
<line y1="-0.5" x2="4.32825" y2="-0.5" transform="matrix(0.999749 -0.0224041 0.0242311 0.999706 79.0125 95.3266)" stroke="#6B5D52"/>
<line x1="76.1459" y1="94.5202" x2="76.1459" y2="106.617" stroke="#6B5D52"/>
<line x1="78.6125" y1="94.5202" x2="78.6125" y2="106.617" stroke="#6B5D52"/>
<line x1="75.6459" y1="89.1815" x2="79.1559" y2="89.1815" stroke="#6B5D52"/>
<line x1="75.6459" y1="106.117" x2="78.2459" y2="106.117" stroke="#6B5D52"/>
<line x1="78.1125" y1="92.605" x2="82.4459" y2="92.605" stroke="#6B5D52"/>
<rect x="72.1792" y="92.9073" width="10.4" height="1.6129" fill="#0D9801"/>
<rect x="76.5125" y="89.6815" width="1.73333" height="16.129" fill="#0D9801"/>
<path d="M62.7459 103.23H68.8125V108.875H62.7459V103.23Z" fill="#D6A700"/>
<path d="M55.8125 103.23H61.8792V108.875H55.8125V103.23Z" fill="#F49B14"/>
<path d="M62.7459 96.7782H68.8125V102.423H62.7459V96.7782Z" fill="#47B3D6"/>
<path d="M55.8125 96.7782H61.8792V102.423H55.8125V96.7782Z" fill="#D6A700"/>
<path d="M62.7459 90.3266H68.8125V95.9718H62.7459V90.3266Z" fill="#F49B14"/>
<path d="M55.8125 90.3266H61.8792V95.9718H55.8125V90.3266Z" fill="#47B3D6"/>
<path d="M62.7459 83.875H63.1674C66.2851 83.875 68.8125 86.4024 68.8125 89.5202H62.7459V83.875Z" fill="#47B3D6"/>
<path d="M55.8125 89.5202C55.8125 86.4024 58.3399 83.875 61.4577 83.875H61.8792V89.5202H55.8125Z" fill="#D6A700"/>
<path fill-rule="evenodd" clip-rule="evenodd" d="M53.1813 68.5695V80.4222L102.649 80.565L95.8453 68.5695H53.1813Z" fill="#6B5D52"/>
<path fill-rule="evenodd" clip-rule="evenodd" d="M23.8125 46.435L37.4196 31.155V30.2982C36.144 30.0126 36.0022 27.4421 37.7031 26.8709V21.7299H33.1674V19.3023H37.7031V15.875H40.8214V19.3023H45.4989V21.7299H40.8214V26.7281C42.6641 27.4421 42.5223 30.0126 41.1049 30.2982V31.155L54.8538 46.435H52.3025V110.982H48.3337V87.9908C48.3337 82.8499 44.365 78.8514 39.2623 78.8514C34.3013 78.8514 30.1908 82.8499 30.1908 87.9908V110.982H26.2221V46.435H23.8125ZM40.3962 52.0043V57.2881H45.7824C45.2154 54.5748 43.0893 52.4327 40.3962 52.0043ZM45.7824 59.5729H40.3962V65.4279C43.231 64.8566 45.4989 62.5718 45.7824 59.5729ZM38.1283 65.4279V59.5729H32.7422C33.1674 62.5718 35.2935 64.8566 38.1283 65.4279ZM32.8839 57.2881H38.1283V52.0043C35.577 52.4327 33.4509 54.5748 32.8839 57.2881Z" fill="#6B5D52"/>
</g>
</g>
<defs>
<clipPath id="clip0">
<rect width="79.375" height="95.25" fill="white" transform="translate(23.8125 15.875)"/>
</clipPath>
<clipPath id="clip1">
<rect width="115.036" height="138.043" fill="white" transform="translate(23.8125 15.875) scale(0.69)"/>
</clipPath>
</defs>
</svg>
