<svg width="1385" height="958" viewBox="0 0 1385 958" fill="none" xmlns="http://www.w3.org/2000/svg">
<g clip-path="url(#clip0)">
<path d="M1202.83 420.628C1094.31 269.675 865.076 208.442 639.631 274.391C520.444 309.257 405.527 379.115 348.576 514.384C246.771 756.191 460.524 833.419 600.294 858.032C667.88 869.934 731.534 889.926 789.702 917.145C894.351 966.115 1079.59 1009.51 1219.27 805.525C1320.51 657.678 1275.11 521.178 1202.83 420.628Z" fill="#F2F2F2"/>
<path d="M573.687 450.494C573.384 448.095 572.77 445.745 571.861 443.504C571.745 443.08 571.542 442.685 571.265 442.344C570.988 442.003 570.643 441.724 570.252 441.523C569.729 441.387 569.181 441.381 568.655 441.505L560.458 442.759C559.772 442.79 559.115 443.046 558.588 443.486C557.521 444.608 558.572 446.415 558.539 447.964C558.502 449.705 556.955 451.118 555.277 451.586C553.564 451.932 551.796 451.91 550.092 451.522L538.631 449.741C542.006 448.664 545.011 446.659 547.302 443.957C548.81 442.171 549.612 438.836 547.433 437.99C546.785 437.812 546.11 437.758 545.442 437.83C540.249 437.87 536.162 433.536 531.301 431.711C528.19 430.618 524.812 430.537 521.652 431.478C518.491 432.42 515.709 434.337 513.704 436.955L519.81 437.249C520.385 437.217 520.954 437.369 521.437 437.682C522.775 438.781 521.111 440.892 521.3 442.613C521.545 444.849 524.514 445.327 526.753 445.553C528.992 445.779 531.832 447.597 530.755 449.572C519.503 453.446 508.053 441.999 496.237 443.408C493.246 443.764 490.422 444.939 487.502 445.678C469.665 450.189 451.224 438.152 433.003 440.701C428.952 441.391 424.97 442.441 421.106 443.838C418.626 444.652 416.039 445.531 414.237 447.419C412.435 449.307 411.749 452.536 413.456 454.51C408.751 454.897 404.015 454.447 399.467 453.18C400.697 453.864 401.72 454.865 402.429 456.08C403.138 457.295 403.507 458.679 403.496 460.085C396.15 461.283 388.998 463.463 382.233 466.566C383.496 468.665 384.97 470.629 386.634 472.427L377.334 478.4C380.476 479.192 382.1 483.475 380.273 486.15C383.531 484.701 385.55 480.953 389.034 480.193C391.317 479.695 393.639 480.628 395.804 481.505C397.969 482.382 400.349 483.232 402.591 482.574C404.832 481.916 406.486 479.011 405.061 477.159C414.642 474.365 424.543 472.819 434.52 472.558C435.29 472.462 436.07 472.61 436.751 472.982C438.05 473.882 437.708 475.828 437.638 477.407C437.568 478.985 438.799 481.06 440.21 480.348C438.55 481.788 439.969 484.497 441.562 486.011C443.155 487.524 445.076 489.613 444.1 491.582C443.846 492.096 443.414 492.507 443.169 493.025C442.446 494.556 443.594 496.34 444.948 497.357C446.302 498.373 447.96 499.083 448.901 500.491C449.841 501.898 449.414 504.362 447.732 504.559L442.952 498.492C441.319 500.184 440.199 502.305 439.723 504.609C444.792 508.751 445.554 517.182 441.311 522.166C439.142 524.712 436.058 526.26 433.367 528.246C430.675 530.233 428.185 533.062 428.192 536.406C428.203 542.184 427.731 547.552 429.897 552.91C433.891 562.787 438.502 572.405 443.703 581.704C445.069 584.146 446.834 586.823 449.601 587.243C446.105 578.733 442.957 570.091 440.158 561.316C441.981 561.323 444.087 561.468 445.156 562.944C446.041 564.167 445.851 565.829 446.126 567.313C446.476 568.75 447.059 570.121 447.852 571.37L464.551 601.105C465.935 603.57 467.523 606.215 470.168 607.214C471.86 607.852 473.817 607.732 475.374 608.65C476.594 609.371 477.416 610.649 478.66 611.328C482.178 613.246 487.069 609.567 490.357 611.857C491.297 612.512 491.894 613.553 492.761 614.302C495.797 616.931 500.777 615.172 504.282 617.133C506.541 618.397 507.711 620.924 508.916 623.214C511.934 628.951 516.817 634.571 523.285 635.028C525.317 635.171 527.392 634.786 529.378 635.238C531.364 635.69 533.319 637.422 533 639.433C532.453 642.881 534.157 646.656 533.7 650.116C532.866 656.419 523.922 659.189 523.154 665.501C522.986 666.882 523.249 668.309 522.92 669.661C522.517 671.319 521.271 672.669 520.829 674.317C519.99 677.44 522.228 680.547 524.687 682.648C527.145 684.749 530.078 686.561 531.422 689.502C532.843 692.61 532.145 696.234 532.607 699.621C533.616 707.013 540.003 712.493 546.576 716.027C548.579 717.103 550.729 718.146 552.026 720.013C553.717 722.451 553.549 725.665 554.114 728.578C555.498 735.711 561.505 741.589 561.675 748.853C561.796 754.016 558.925 758.7 557.21 763.572C555.602 768.24 555.021 773.199 555.505 778.112C555.988 783.025 557.527 787.776 560.014 792.04C561.297 794.206 562.832 796.248 563.739 798.595C565.359 802.785 564.833 807.547 566.327 811.784C568.301 817.384 573.726 822.01 573.207 827.926C575.67 833.039 581.108 835.551 586.577 837.072L596.378 839.8C598.255 840.322 600.216 840.848 602.127 840.47C604.038 840.092 605.862 838.506 605.812 836.559C601.006 835.476 596.045 834.323 592.083 831.395C588.121 828.468 585.407 823.254 586.91 818.563C587.607 816.388 589.09 813.877 587.68 812.079C586.873 811.05 585.397 810.782 584.487 809.843C583.066 808.378 583.554 805.918 584.575 804.153C585.596 802.387 587.072 800.809 587.484 798.811C587.692 797.694 587.553 796.539 587.086 795.503C586.619 794.467 585.846 793.598 584.871 793.013C586.688 792.327 588.341 791.267 589.722 789.901C590.998 788.445 591.587 786.199 590.583 784.544C593.564 784.922 597.082 785.107 599.038 782.828C600.601 781.008 600.493 778.287 599.876 775.97C599.259 773.652 598.215 771.402 598.183 769.004C605.058 769.33 611.948 769.096 618.785 768.305C617.796 764.977 615.549 762.164 612.521 760.464C615.618 759.94 618.439 756.234 619.417 753.251C620.395 750.268 620.146 747.018 619.541 743.938C619.309 743.144 619.277 742.306 619.448 741.498C619.797 740.387 620.889 739.709 621.899 739.129L637.268 730.305C638.185 729.846 639.017 729.232 639.726 728.491C641.336 726.6 641.098 723.746 640.273 721.404C639.449 719.061 638.128 716.858 637.81 714.396C636.861 707.03 644.748 701.745 647.41 694.811C648.455 692.09 648.668 689.133 648.87 686.225C649.087 683.102 649.103 679.475 646.704 677.463C644.405 675.534 640.813 675.964 638.407 674.17C636.201 672.524 635.44 669.329 633.03 668.001C630.842 666.794 628.098 667.561 625.664 666.994C621.379 665.995 618.682 661.057 614.306 660.6C611.836 660.342 609.042 661.549 607.018 660.111C605.234 658.845 605.163 656.299 604.823 654.138C604.229 650.781 602.619 647.686 600.211 645.271C597.802 642.856 594.712 641.236 591.355 640.631C588.809 640.223 586.038 640.378 583.872 638.979C581.678 637.563 580.673 634.911 578.95 632.95C576.173 629.789 571.801 628.666 567.704 627.703L551.041 623.787C548.083 623.092 544.271 622.723 542.683 625.313C542.213 626.3 541.881 627.346 541.695 628.422C541.1 630.369 539.903 632.078 538.276 633.302C536.649 634.526 534.675 635.203 532.639 635.236C531.242 632.855 528.98 631.105 526.324 630.351C524.634 629.88 522.825 629.828 521.214 629.136C520.336 628.707 519.555 628.105 518.919 627.364C518.282 626.624 517.804 625.761 517.512 624.83C517.221 623.898 517.122 622.916 517.223 621.945C517.324 620.974 517.623 620.034 518.1 619.182C519.06 617.473 519.431 615.494 519.155 613.553C518.879 611.611 517.972 609.814 516.573 608.439C513.739 605.896 509.64 605.282 505.841 605.536C504.846 603.366 506.509 600.917 508.302 599.339C510.096 597.762 512.273 596.211 512.663 593.855C513.277 590.15 508.548 587.336 504.957 588.441C501.366 589.545 499.074 593.032 497.559 596.469C496.69 598.441 495.951 600.518 494.58 602.181C493.208 603.843 491 605.034 488.912 604.5C485.955 603.745 484.813 600.233 484.159 597.253C483.281 593.255 482.397 589.202 482.581 585.113C482.765 581.023 484.144 576.825 487.161 574.057C492.076 569.546 499.616 569.988 506.25 570.707C504.682 568.942 505.07 565.967 506.747 564.306C507.632 563.52 508.695 562.961 509.845 562.679C510.995 562.396 512.197 562.399 513.346 562.685C515.344 563.101 517.145 564.178 518.458 565.741C520.343 568.038 520.879 571.14 522.304 573.748C523.729 576.356 526.932 578.58 529.555 577.181C531.82 575.973 532.179 572.833 531.616 570.329C531.052 567.825 529.854 565.39 530.059 562.832C530.448 557.95 535.51 555.012 539.978 553.001C544.445 550.991 549.56 548.287 550.267 543.441C550.292 542.492 550.471 541.554 550.797 540.663C551.293 539.876 551.981 539.228 552.798 538.782C565.835 530.17 579.089 521.451 593.99 516.745C594.765 516.5 594.856 516.772 595.646 516.581C596.752 515.942 596.019 514.174 594.959 513.463C593.899 512.751 592.482 512.205 592.213 510.957C592.015 510.039 592.556 509.138 592.697 508.21C593.042 505.93 590.313 503.825 588.194 504.737C586.997 503.152 589.365 501.311 591.28 500.784C597.031 499.201 602.934 498.237 608.89 497.908C609.577 497.799 610.281 497.918 610.894 498.249C611.894 498.941 611.766 500.53 611.057 501.519C610.348 502.507 609.246 503.128 608.362 503.964C607.397 504.904 606.709 506.091 606.372 507.395C606.036 508.7 606.064 510.071 606.454 511.361C609.563 512.942 612.943 514.569 616.386 514.012C619.83 513.455 622.886 509.588 621.268 506.499C619.76 503.622 615.233 502.973 614.454 499.821C613.543 496.13 618.77 492.847 617.592 489.232C617.077 487.649 615.498 486.717 614.287 485.573C612.856 484.172 611.883 482.37 611.495 480.406C611.107 478.441 611.323 476.405 612.113 474.565C610.14 474.912 608.113 474.781 606.201 474.183C604.289 473.585 602.548 472.537 601.125 471.128C598.497 468.476 596.4 464.293 592.667 464.412C589.242 464.521 586.292 468.515 583.09 467.297C582.302 466.997 581.471 466.387 580.708 466.744C580.458 466.906 580.248 467.124 580.094 467.379C579.94 467.634 579.846 467.921 579.819 468.218C579.006 472.108 580.406 476.54 578.285 479.901C575.977 483.559 570.639 484.066 567.842 487.364C566.323 489.155 565.735 491.567 564.339 493.455C562.943 495.342 559.98 496.542 558.305 494.897C559.128 493.205 559.353 491.284 558.942 489.448C558.532 487.612 557.511 485.969 556.045 484.788C554.49 483.774 552.814 482.958 551.055 482.362C549.09 481.53 547.221 480.489 545.48 479.255C544.608 478.73 543.899 477.972 543.433 477.066C543.065 475.933 543.114 474.705 543.573 473.604C544.423 471.17 545.921 469.013 547.907 467.368C549.893 465.723 552.291 464.651 554.842 464.268C557.072 463.965 559.668 464.071 561.144 462.373C561.925 461.474 562.335 460.115 563.469 459.749C564.194 459.604 564.947 459.697 565.615 460.014L573.94 462.943C574.869 463.362 575.892 463.531 576.906 463.433C577.409 463.366 577.868 463.11 578.19 462.718C578.513 462.327 578.675 461.827 578.645 461.321C578.379 459.939 576.251 459.276 576.445 457.882C576.553 457.43 576.796 457.022 577.142 456.711C580.146 453.514 583.821 451.021 587.902 449.41C591.983 447.799 596.37 447.11 600.749 447.392C601.799 449.117 600.138 451.16 598.755 452.633C597.372 454.105 596.261 456.737 597.933 457.87C598.618 458.22 599.381 458.392 600.15 458.37C602.199 458.647 604.191 459.251 606.05 460.158C608.927 461.41 611.748 462.779 614.515 464.267C614.271 462.443 614.037 460.522 614.729 458.817C615.42 457.112 617.385 455.775 619.101 456.439C620.755 457.079 621.604 459.268 623.366 459.469C625.717 459.736 626.644 456.265 625.662 454.113C624.68 451.961 622.736 450.16 622.574 447.8C622.465 446.208 623.071 444.234 621.799 443.27C621.346 442.981 620.832 442.801 620.298 442.744L588.538 436.902C586.653 436.555 583.928 436.821 583.844 438.736C583.797 439.805 584.753 440.863 584.329 441.845C583.878 442.894 582.395 442.799 581.314 443.17C579.638 443.745 578.796 445.735 578.957 447.5C579.252 449.253 579.932 450.92 580.947 452.38C578.881 451.516 575.753 451.358 573.687 450.494Z" fill="#3F3D56"/>
<path d="M548.346 423.543C546.344 422.881 544.186 422.85 542.165 423.455C540.144 424.06 538.358 425.271 537.049 426.925C536.526 427.614 536.087 428.563 536.525 429.308C537.153 430.376 538.752 429.954 539.931 429.572C541.664 428.953 543.55 428.908 545.311 429.444C546.418 429.824 547.409 430.495 548.521 430.861C549.062 431.087 549.655 431.162 550.235 431.077C550.816 430.992 551.362 430.751 551.816 430.38C552.579 429.602 552.627 428.392 552.629 427.302C552.682 426.937 552.652 426.566 552.543 426.214C552.434 425.862 552.248 425.539 551.998 425.268C551.553 425.01 551.053 424.862 550.539 424.837C549.388 424.624 548.348 424.016 547.598 423.119" fill="#3F3D56"/>
<path d="M559.798 420.356C559.35 420.331 558.903 420.423 558.5 420.621C558.098 420.819 557.753 421.118 557.499 421.487C557.245 421.857 557.09 422.286 557.05 422.733C557.01 423.18 557.086 423.63 557.27 424.039C558.646 424.414 560.084 424.508 561.497 424.315C562.202 424.205 562.859 423.89 563.385 423.408C563.911 422.926 564.283 422.299 564.453 421.606C562.788 421.909 561.071 421.581 559.636 420.687" fill="#3F3D56"/>
<path d="M598.22 415.033C594.474 415.829 590.835 417.065 587.379 418.714C589.008 419.34 590.393 420.473 591.33 421.946C592.266 423.418 592.705 425.153 592.581 426.893C592.435 427.561 592.452 428.255 592.631 428.915C593.029 429.88 594.183 430.242 595.197 430.49C597.019 431.045 598.922 431.287 600.826 431.208C601.778 431.158 602.703 430.872 603.516 430.375C604.33 429.878 605.006 429.186 605.485 428.362C605.761 427.58 606.085 426.815 606.454 426.072C608.885 422.371 616.109 426.847 618.719 423.269C619.639 422.009 619.555 420.111 620.753 419.113C621.374 418.678 622.092 418.403 622.845 418.315C628.094 417.272 633.397 416.517 638.73 416.053C641.256 415.833 644.549 414.927 644.57 412.391C635.054 410.523 625.187 411.85 616.502 416.166C613.373 417.733 609.235 421.028 606.221 418.951C605.093 418.174 605.149 416.08 603.596 415.205C602.008 414.311 599.906 414.675 598.22 415.033Z" fill="#3F3D56"/>
<path d="M629.342 420.851L633.809 421.709C632.987 421.672 632.166 421.812 631.402 422.117C630.638 422.423 629.948 422.888 629.378 423.482C628.808 424.075 628.371 424.783 628.096 425.559C627.821 426.335 627.715 427.16 627.785 427.98C631.968 429.377 636.529 428.017 640.936 428.203C645.343 428.389 650.47 431.535 649.718 435.88C649.49 437.194 648.731 438.506 649.126 439.78C649.402 440.672 650.19 441.306 650.634 442.128C651.56 443.841 650.82 446.007 649.651 447.564C648.481 449.121 646.909 450.364 645.883 452.019C643.33 456.134 644.78 461.455 646.301 466.053C646.741 467.79 647.553 469.411 648.681 470.804C650.934 473.199 654.606 473.407 657.895 473.455C660.288 473.49 663.03 473.372 664.544 471.518C666.52 469.098 665.138 465.322 666.439 462.481C667.62 459.902 670.631 458.795 673.358 458.01C678.355 456.572 683.447 455.349 688.171 453.177C694.037 450.48 699.519 446.277 705.966 445.93C707.775 445.832 709.629 446.046 711.371 445.55C713.113 445.055 714.768 443.549 714.637 441.743C714.524 440.2 713.218 439.067 712.197 437.904C711.177 436.74 710.376 434.952 711.313 433.721L728.213 430.566C727.015 427.302 726.082 423.004 728.834 420.88C729.827 420.113 731.157 419.807 732.003 418.881C733.444 417.301 732.719 414.581 731.056 413.238C729.392 411.895 727.142 411.583 725.011 411.406C717.601 410.791 710.149 411.197 702.725 411.604C688.212 412.399 673.699 413.195 659.186 413.99C656.264 414.15 652.891 413.905 650.212 414.902C647.943 415.745 646.33 417.294 643.736 417.838C638.947 418.842 633.676 418.163 629.342 420.851Z" fill="#3F3D56"/>
<path d="M709.37 456.149C708.915 456.077 708.45 456.182 708.07 456.443C707.819 456.72 707.67 457.073 707.647 457.446C707.358 459.09 707.702 460.782 708.609 462.183C709.07 462.871 709.708 463.422 710.455 463.78C711.202 464.138 712.031 464.29 712.857 464.219C714.868 463.963 716.351 462.248 718.2 461.41C721.05 460.121 733.154 458.112 724.781 453.59C721.896 452.032 720.031 453.407 717.757 454.434C715.169 455.757 712.27 456.35 709.37 456.149Z" fill="#3F3D56"/>
<path d="M782.707 418.298C781.729 418.697 780.911 419.409 780.381 420.322C780.137 420.785 780.08 421.325 780.223 421.829C780.365 422.334 780.696 422.764 781.147 423.031C781.512 423.163 781.899 423.225 782.288 423.212L786.263 423.33C787.952 423.381 790.061 423.74 790.515 425.367C790.852 426.575 790.098 428.128 791.008 428.991C791.398 429.293 791.868 429.476 792.36 429.518C793.67 429.855 795.037 429.899 796.366 429.647C799.258 428.872 797.738 427.107 798.649 425.536C800.043 423.131 799.802 424.587 802.258 423.209C804.072 422.191 806.416 420.345 804.902 417.751C802.269 413.241 786.592 416.36 782.707 418.298Z" fill="#3F3D56"/>
<path d="M861.17 416.03L858.862 416.338C853.657 417.032 848.422 417.733 843.408 419.296C845.578 420.154 847.855 420.712 850.176 420.956C851.454 421.019 852.723 421.199 853.967 421.495C856.182 422.154 858.413 423.855 860.552 422.984C861.879 422.443 862.312 421.063 863.411 420.331C864.169 419.826 867.047 419.008 867.369 418.498C869.97 414.375 863.17 415.763 861.17 416.03Z" fill="#3F3D56"/>
<path d="M871.307 426.518C868.223 428.242 865.363 430.336 862.788 432.754C861.704 433.774 860.596 435.041 860.694 436.526C860.825 438.499 862.928 439.644 864.75 440.415L872.129 443.538C873.024 442.277 872.205 440.536 871.28 439.296C870.354 438.057 869.255 436.623 869.664 435.131C870.13 433.429 872.206 432.849 873.947 432.556C876.784 432.078 884.436 432.116 883.516 427.546C882.433 422.162 874.154 424.927 871.307 426.518Z" fill="#3F3D56"/>
<path d="M869.823 731.241C869.12 733.275 869.054 735.67 870.269 737.445C871.632 739.437 874.361 740.179 876.722 739.674C879.074 739.049 881.169 737.702 882.714 735.823C884.127 734.249 885.289 732.467 886.161 730.54C887.376 727.536 888.234 724.4 888.715 721.196L891.006 709.17C891.518 706.483 891.498 698.243 886.557 700.928C885.207 701.661 882.081 707.452 880.667 709.094C878.117 712.053 877.78 714.925 876.437 718.51C874.756 723.001 871.377 726.743 869.823 731.241Z" fill="#3F3D56"/>
<path d="M1130.81 792.781C1129.2 792.15 1127.63 791.403 1126.12 790.546C1124.61 794.705 1123.8 799.089 1123.74 803.515L1134.8 797.256C1136.47 796.314 1138.35 795.006 1138.32 793.095C1138.33 792.859 1138.28 792.623 1138.18 792.412C1138.07 792.202 1137.91 792.024 1137.71 791.898C1137.46 791.799 1137.19 791.768 1136.93 791.807C1135.29 791.944 1133.79 792.75 1132.25 793.312C1130.7 793.873 1128.89 794.169 1127.47 793.337" fill="#3F3D56"/>
<path d="M1189.18 796.496C1187.97 796.827 1186.78 797.252 1185.63 797.769C1183.09 799.061 1181.37 801.514 1179.08 803.215C1176.89 804.842 1174.26 805.736 1171.68 806.605C1170.92 807.277 1171.27 808.629 1172.09 809.219C1172.98 809.724 1174 809.952 1175.02 809.876C1177.7 809.935 1180.53 809.961 1182.88 808.665C1184.2 807.806 1185.44 806.822 1186.58 805.727C1189.33 803.434 1192.63 801.922 1195.9 800.459C1197.09 800.011 1198.19 799.353 1199.15 798.518C1201.2 796.496 1201.35 793.376 1198.38 792.687C1195.99 792.131 1191.46 795.76 1189.18 796.496Z" fill="#3F3D56"/>
<path d="M1214.97 779.657C1215.1 778.265 1214.92 776.861 1214.43 775.552C1213.94 774.242 1213.16 773.061 1212.15 772.097C1212.11 774.881 1212.03 777.847 1210.46 780.15C1209.35 781.79 1207.6 782.898 1206.37 784.461C1205.15 786.024 1204.61 788.501 1206.04 789.872C1206.96 790.569 1208.08 790.954 1209.23 790.969C1212.08 791.305 1215.39 791.492 1217.39 789.43C1218.48 788.304 1219.02 786.637 1220.35 785.81C1220.85 785.601 1221.29 785.284 1221.65 784.881C1222.2 784.007 1221.32 782.854 1220.34 782.539C1219.35 782.223 1218.27 782.372 1217.28 782.072C1216.29 781.773 1215.38 780.661 1215.89 779.76" fill="#3F3D56"/>
<path d="M1169.13 677.571C1167.64 677.936 1166.09 678.027 1164.56 677.841C1162.01 677.374 1160.03 675.459 1157.98 673.889C1153.1 670.175 1147.17 668.104 1141.04 667.972C1135.47 667.867 1129.84 669.378 1124.36 668.324C1124.72 670.313 1126.42 671.805 1128.24 672.692C1130.06 673.579 1132.06 674.026 1133.89 674.895C1136.81 676.3 1139.13 678.712 1140.42 681.688C1141.01 683.061 1141.38 684.554 1142.27 685.752C1144.09 688.201 1147.54 688.739 1150.59 688.539C1154.56 688.277 1158.71 687.136 1162.4 688.615C1165.23 689.746 1167.25 692.219 1169.61 694.142C1171.97 696.064 1175.29 697.491 1178 696.104C1175.19 695.193 1172.74 693.407 1171.01 691.006C1169.28 688.605 1168.37 685.715 1168.4 682.758C1171.06 683.002 1178.71 682.907 1178.3 678.393C1177.95 674.568 1171.42 677.159 1169.13 677.571Z" fill="#3F3D56"/>
<path d="M1134.37 708.697C1134.84 706.11 1137.42 703.825 1136.62 701.321C1136.06 699.59 1134.05 698.735 1132.23 698.692C1130.42 698.649 1128.63 699.191 1126.81 699.242C1125.63 699.179 1124.44 699.196 1123.26 699.293C1119.65 699.886 1117.42 703.668 1114.02 705.013C1111.95 705.831 1109.63 705.675 1107.48 706.24C1102.59 707.523 1099.5 712.136 1096.09 715.856C1090.57 721.839 1083.39 726.028 1075.46 727.881C1072.69 728.524 1069.7 728.935 1067.49 730.738C1064.57 733.125 1063.85 737.218 1063.2 740.934C1061.41 751.199 1058.66 761.274 1055 771.031L1066.6 772.511C1068.8 772.793 1071.09 773.068 1073.21 772.415C1074.75 771.833 1076.22 771.055 1077.56 770.099C1082.73 766.894 1088.51 764.808 1094.53 763.977C1097.56 763.56 1100.75 763.484 1103.6 764.612C1106.45 765.74 1108.89 768.299 1109.13 771.354C1110.36 770.971 1111.68 770.929 1112.93 771.234C1114.18 771.539 1115.33 772.179 1116.25 773.085C1118.07 774.935 1119.26 777.307 1119.65 779.869C1119.96 781.455 1120.26 783.355 1121.73 784.02C1122.93 784.563 1124.31 783.978 1125.63 783.873C1130.08 783.517 1133.78 788.713 1138.17 787.819C1142.87 786.859 1144.02 779.823 1148.6 778.413C1151.24 777.604 1154.93 778.588 1156.19 776.14C1157.3 773.981 1155.09 771.491 1155.31 769.074C1155.6 766.099 1159.11 764.836 1161.81 763.566C1171.15 759.189 1175.57 746.633 1171.05 737.373C1168.37 731.887 1163.1 727.568 1162.13 721.54C1161.38 716.903 1163.21 711.495 1160.25 707.845C1158.75 705.988 1156.2 704.963 1155.3 702.748C1154.74 701.353 1154.97 699.771 1154.66 698.297C1154.36 696.824 1153.07 695.283 1151.62 695.665C1147.39 696.773 1146.05 709.819 1143.78 712.989C1140.34 717.807 1133.29 714.634 1134.37 708.697Z" fill="#3F3D56"/>
<path d="M1056.28 682.501C1054.84 682.096 1053.26 681.697 1051.88 682.276C1050.5 682.854 1049.69 684.884 1050.8 685.892C1059.48 685.553 1068.22 685.217 1076.83 686.397C1086.76 687.755 1096.58 691.12 1106.54 690.13C1100.85 688.451 1095.06 687.109 1089.21 686.11L1079.46 684.247C1076.84 683.699 1074.19 683.291 1071.53 683.024C1065.97 682.564 1061.76 684.034 1056.28 682.501Z" fill="#3F3D56"/>
<path d="M1064.98 652.261C1064.26 652.201 1063.36 652.149 1062.99 652.769C1062.63 653.361 1063.04 654.143 1062.85 654.807C1062.59 655.715 1061.4 655.946 1060.46 655.823C1059.53 655.699 1058.52 655.404 1057.69 655.855C1057.27 656.142 1056.95 656.558 1056.79 657.04C1056.62 657.522 1056.62 658.045 1056.78 658.529C1057.11 659.49 1057.66 660.364 1058.38 661.088C1059.61 662.633 1061.01 664.035 1062.55 665.266C1065.53 667.469 1069.58 668.53 1071.46 671.728C1071.72 672.347 1072.13 672.896 1072.65 673.329C1073.55 673.9 1074.73 673.465 1075.7 673.022L1079.11 671.466C1079.72 671.245 1080.27 670.872 1080.7 670.383C1081.48 669.327 1081 667.827 1080.35 666.689C1079.69 665.552 1078.86 664.375 1079 663.072C1079.25 660.747 1082.24 659.858 1083.47 657.869C1084.7 655.864 1083.9 653.281 1084.04 650.928C1084.21 648.177 1085.94 644.599 1083.15 642.543C1080.79 640.796 1078.53 642.41 1076.83 644.339C1073.25 648.406 1071.56 652.811 1064.98 652.261Z" fill="#3F3D56"/>
<path d="M1085.66 611.155C1086.82 613.381 1089.24 614.71 1090.51 616.878C1091.89 619.227 1091.73 622.263 1093.22 624.541C1094.75 626.877 1097.83 628.118 1098.69 630.776C1099.62 633.677 1097.5 637.204 1099.19 639.739C1099.51 640.153 1099.91 640.498 1100.36 640.75C1100.82 641.002 1101.32 641.157 1101.84 641.205C1102.36 641.253 1102.88 641.192 1103.38 641.027C1103.87 640.862 1104.33 640.596 1104.71 640.246C1105.43 639.469 1105.81 638.443 1105.78 637.388C1105.75 636.333 1105.31 635.332 1104.55 634.598C1103.54 633.683 1102.1 633.288 1101.27 632.22C1100.83 631.604 1100.54 630.897 1100.42 630.152C1099.96 628.003 1100.03 625.776 1100.63 623.662C1100.85 623.126 1100.91 622.534 1100.79 621.965C1100.42 620.869 1098.93 620.791 1097.89 620.283C1095.52 619.129 1095.58 615.791 1095.99 613.192C1095.72 614.923 1089.55 611.98 1088.91 611C1087.63 609.053 1088.32 605.297 1088.07 603.146C1085.3 604.479 1084.23 608.434 1085.66 611.155Z" fill="#3F3D56"/>
<path d="M1023.54 645.404C1022.41 644.131 1020.69 642.799 1019.17 643.567C1018 644.153 1017.68 645.763 1018.14 646.983C1018.69 648.168 1019.55 649.188 1020.62 649.941C1023.8 652.563 1027.22 654.928 1030 657.975C1034.96 663.428 1037.59 670.786 1042.99 675.809C1044.07 676.974 1045.51 677.751 1047.08 678.022C1048.65 678.169 1050.42 677.162 1050.6 675.594C1050.75 674.302 1049.85 673.145 1048.97 672.188C1046.87 669.907 1044.57 667.809 1042.59 665.426C1041.68 664.511 1041.1 663.311 1040.96 662.026C1040.95 660.743 1042.12 659.4 1043.37 659.718C1041.86 659.331 1040.73 656.813 1038.51 656.34C1036.66 655.944 1036.21 657.092 1034 656.146C1029.79 654.341 1026.49 648.704 1023.54 645.404Z" fill="#3F3D56"/>
<path d="M1122.46 521.407C1121.25 521.048 1120.07 520.624 1118.91 520.136C1115.78 519.199 1111.64 521.495 1112.06 524.731C1112.34 526.881 1114.34 528.33 1115.44 530.195C1117.08 532.961 1116.65 536.468 1115.79 539.565C1115.57 540.524 1115.17 541.431 1114.6 542.231C1113.81 543.076 1112.86 543.76 1111.8 544.245C1107.58 546.612 1103.86 549.773 1100.84 553.555C1100.51 553.904 1100.28 554.335 1100.18 554.802C1100.03 555.895 1101.13 556.691 1101.75 557.602C1103.13 559.626 1102.13 562.349 1102.27 564.795C1102.25 565.141 1102.31 565.486 1102.46 565.798C1102.61 566.111 1102.84 566.379 1103.12 566.579C1103.96 567.001 1104.94 566.284 1105.39 565.468C1106.89 562.759 1105.76 558.411 1108.57 557.105C1109.1 556.858 1109.74 556.754 1110.1 556.288C1110.66 555.548 1110.11 554.453 1110.4 553.57C1110.83 552.243 1112.64 552.183 1114.04 552.242C1116.44 552.342 1118.83 552.023 1121.12 551.299C1122.02 551.085 1122.84 550.613 1123.47 549.94C1124.31 548.894 1124.24 547.406 1124.07 546.075C1123.23 539.443 1121.13 533.032 1117.88 527.189C1120.34 527.504 1123.02 527.777 1125.15 526.492C1126.34 525.773 1127.77 523.623 1127.18 522.16C1126.24 519.845 1124.56 521.793 1122.46 521.407Z" fill="#3F3D56"/>
<path d="M806.485 557.885C806.78 559.466 807.07 561.132 806.551 562.655C806.033 564.177 804.402 565.45 802.862 564.983C801.667 564.621 800.976 563.42 800.127 562.504C795.408 557.41 784.759 560.359 781.844 554.058C780.654 551.486 781.463 548.405 780.651 545.69C780.139 544.121 779.12 542.766 777.754 541.839C776.389 540.912 774.754 540.464 773.106 540.566C771.603 540.783 770.14 541.22 768.764 541.862C759.546 545.552 749.868 547.972 739.997 549.054C738.121 549.169 736.265 549.506 734.47 550.06C730.416 551.529 727.647 555.285 725.676 559.118C723.705 562.951 722.251 567.101 719.608 570.506C716.831 574.085 712.94 576.591 709.31 579.302C707.912 580.203 706.748 581.423 705.913 582.862C705.126 584.477 705.17 586.355 705.231 588.15L705.973 609.956C706.069 612.761 706.189 615.666 707.444 618.176C709.012 621.31 712.11 623.363 714.259 626.132C716.452 628.977 717.595 632.492 717.493 636.083C717.447 637.527 717.304 639.234 718.428 640.141C719.113 640.584 719.913 640.814 720.728 640.802L750.235 643.216C755.426 643.641 761.178 644.339 764.566 648.292C766.166 650.158 767.451 652.841 769.9 653.041C770.951 653.127 771.973 652.695 773.024 652.612C775.676 652.402 778.005 654.414 779.475 656.63C781.7 660.007 782.71 664.041 782.339 668.068C782.098 670.596 781.314 673.053 781.145 675.587C780.502 685.227 788.677 693.603 788.836 703.263C788.929 708.946 786.231 714.255 783.6 719.293C787.846 725.723 784.369 734.286 786.059 741.803C787.663 748.935 793.612 754.518 795.094 761.677C795.772 764.954 795.812 768.986 798.702 770.674C799.971 771.292 801.377 771.573 802.785 771.491C811.282 771.592 819.682 769.68 827.298 765.913C830.872 764.14 834.576 761.493 835.2 757.553C835.704 754.376 834.092 750.822 835.732 748.054C837.665 744.793 842.618 745.051 845.462 742.544C850.077 738.475 846.478 730.716 848.348 724.857C850.029 719.59 855.814 716.791 858.681 712.064C859.81 710.031 860.619 707.837 861.082 705.558C862.396 700.112 863.214 694.559 863.526 688.966C863.602 685.567 863.853 682.175 864.276 678.802C867.368 659.601 886.357 646.743 892.523 628.297C893.111 626.535 893.388 624.189 891.82 623.192C890.89 622.749 889.836 622.638 888.834 622.88L875.233 624.594C873.543 624.807 871.752 625.006 870.201 624.304C868.649 623.603 867.537 621.641 868.36 620.151C870.67 615.967 865.918 610.681 863.807 606.394C858.121 594.851 851.35 583.874 843.586 573.612C843.089 573.084 842.778 572.408 842.699 571.687L846.56 571.816C845.257 567.142 843.106 562.026 838.563 560.316C836.003 559.353 833.169 559.686 830.437 559.835C822.614 560.263 814.227 559.082 806.485 557.885Z" fill="#3F3D56"/>
<path d="M830.444 452.547C832.491 454.72 834.785 457.024 837.747 457.403C842.978 458.072 846.739 452.664 849.134 447.966C849.223 449.164 849.775 450.28 850.674 451.076C851.573 451.873 852.747 452.288 853.947 452.232C855.239 452.015 856.471 451.533 857.567 450.817C867.933 445.155 879.543 442.155 891.354 442.086C891.241 441.192 891.463 440.287 891.977 439.546C892.492 438.806 893.263 438.282 894.141 438.076C896.542 437.6 898.706 439.676 899.864 441.832C901.023 443.988 901.745 446.487 903.586 448.101C905.426 449.715 908.99 449.645 909.717 447.308C910.415 445.064 908.077 443.15 906.134 441.828C904.191 440.505 902.144 438.057 903.452 436.104C913.376 433.908 923.362 431.704 933.518 431.267C935.247 431.327 936.97 431.031 938.579 430.396C940.128 429.636 941.358 427.911 940.942 426.238C938.726 426.759 936.405 426.608 934.275 425.805C932.145 425.002 930.302 423.582 928.982 421.728C943.073 420.566 958.061 419.575 970.549 426.203C972.048 429.419 964.41 432.095 966.453 434.996C967.105 435.921 968.411 436.029 969.543 436.05C978.221 436.211 986.949 436.369 995.529 435.059C998.665 434.581 1001.83 433.905 1004.98 434.293C1010.22 434.94 1014.71 438.437 1019.87 439.577C1021.97 440.042 1024.32 440.057 1026.09 438.836C1027.86 437.616 1028.62 434.836 1027.17 433.249C1032.03 428.49 1040.09 429.67 1046.5 431.948C1052.9 434.226 1058.97 437.9 1065.76 438.408C1070.62 438.772 1075.55 437.464 1080.36 438.296C1083.37 438.818 1086.19 440.161 1089.14 440.986C1094.72 442.546 1100.62 442.217 1106.42 442.292C1121.21 442.491 1135.83 445.397 1149.57 450.864C1151.36 451.446 1153 452.413 1154.37 453.698C1155.65 455.066 1156.3 457.193 1155.44 458.857L1141.24 456.783C1142.58 459.416 1146.04 459.864 1148.85 460.772C1151.66 461.681 1154.58 464.783 1152.89 467.206C1149.84 466.236 1147.08 469.28 1145.54 472.08C1144.01 474.881 1142.13 478.235 1138.94 478.405C1136.08 478.558 1132.63 476.125 1130.76 478.297C1133.34 481.543 1135.54 485.065 1137.33 488.798C1139.17 492.63 1140.49 497.46 1138 500.908C1137.61 501.524 1137.01 501.984 1136.32 502.209C1134.29 502.723 1132.97 500.239 1131.51 498.733C1129.68 496.836 1126.9 496.299 1124.41 495.409C1121.93 494.519 1119.31 492.768 1119.11 490.136C1118.99 488.498 1119.86 486.975 1120.49 485.461C1121.57 482.91 1122.03 480.146 1121.86 477.384C1121.72 475.162 1121.1 472.851 1119.5 471.298C1117.91 469.746 1115.15 469.254 1113.44 470.675C1112.64 471.339 1112 472.4 1110.96 472.44C1109.13 472.51 1107.72 469.312 1106.24 470.404C1106.41 471.567 1106.17 472.754 1105.56 473.757C1101.15 477.587 1094.39 475.966 1088.71 477.319C1086.01 478.092 1083.42 479.22 1081.02 480.675C1080.12 481.06 1079.36 481.701 1078.82 482.519C1078.12 483.896 1078.9 485.66 1080.15 486.575C1081.47 487.388 1082.96 487.896 1084.51 488.063C1091.43 489.374 1098.45 491.403 1103.92 495.848C1109.38 500.293 1112.97 507.641 1111.24 514.469L1097.59 501.428C1098.1 506.904 1098.4 512.394 1098.47 517.9C1098.56 518.975 1098.41 520.056 1098.04 521.068C1097.06 523.217 1094.42 523.94 1092.11 524.415C1091.47 524.537 1090.86 524.794 1090.32 525.168C1089.79 525.543 1089.34 526.026 1089 526.587C1088.66 527.149 1088.45 527.775 1088.37 528.424C1088.29 529.074 1088.36 529.732 1088.55 530.357C1089.37 533.033 1091.42 535.119 1093.3 537.198C1095.17 539.277 1097.02 541.64 1097.26 544.428C1097.51 547.216 1095.4 550.359 1092.61 550.166C1090.49 550.019 1088.92 548.124 1088.02 546.203C1087.11 544.283 1086.58 542.144 1085.22 540.512C1081.11 535.574 1071.89 537.69 1068.21 532.425C1067.27 533.488 1066.62 534.774 1066.32 536.16C1066.01 537.545 1066.07 538.985 1066.48 540.342C1068.2 539.27 1070.54 540.266 1071.83 541.822C1073.11 543.379 1073.72 545.375 1074.73 547.123C1076.09 549.482 1078.26 551.574 1078.45 554.292C1078.4 555.319 1078.42 556.349 1078.5 557.375C1078.84 559.021 1080.23 560.204 1081.2 561.58C1083.45 564.783 1083.33 569.183 1081.89 572.817C1080.44 576.451 1077.84 579.487 1075.26 582.431C1070.76 587.573 1066.17 592.685 1060.84 596.955C1059.31 598.173 1057.69 599.371 1056.74 601.075C1055.79 602.778 1055.74 605.17 1057.2 606.465C1056.16 606.518 1054.29 607.03 1053.25 607.082C1052.88 602.902 1052.8 598.701 1053.01 594.51C1048.89 592.535 1044.46 597.823 1044.99 602.354C1045.53 606.886 1048.8 610.522 1051.14 614.442C1052.85 617.308 1054.11 620.651 1053.54 623.938C1052.97 627.225 1050.04 630.257 1046.71 629.968C1041.43 629.506 1039.21 621.917 1033.98 621.049C1033.52 620.941 1033.03 620.989 1032.6 621.186C1031.82 621.612 1031.69 622.652 1031.64 623.537C1031.43 627.882 1031.24 632.4 1032.94 636.407C1035.42 642.267 1041.84 647.19 1040.49 653.411C1033.24 650.043 1029.48 641.919 1027.77 634.116C1026.05 626.313 1025.77 618.121 1022.7 610.744C1020.37 613.727 1015.48 611.261 1013.35 608.131C1011.34 605.164 1010.09 601.731 1008.14 598.724C1006.18 595.717 1003.18 593.024 999.597 592.859C995.839 592.685 992.579 595.264 989.712 597.7C987.355 599.703 984.935 601.785 983.557 604.555C981.552 608.584 982.076 613.335 981.98 617.835C981.875 622.7 980.844 627.832 977.527 631.394C974.21 634.955 968.089 636.195 964.43 632.986C962.52 631.31 961.596 628.806 960.772 626.403C956.801 614.819 953.495 603.019 950.868 591.059C950.253 593.788 947.855 597.307 945.565 595.699C945.051 595.266 944.634 594.73 944.343 594.125C940.07 586.886 932.157 582.543 924.162 579.94C916.167 577.336 907.755 576.121 899.849 573.26C895.418 571.656 891.186 569.548 887.236 566.98C886.23 568.458 885.642 570.182 885.535 571.968C885.428 573.753 885.807 575.535 886.63 577.123C888.384 580.227 892.353 582.023 895.75 580.938C897.506 580.377 898.988 579.159 900.73 578.557C902.472 577.956 904.81 578.251 905.572 579.929C906.301 581.535 905.199 583.477 905.746 585.154C906.578 587.708 910.431 587.904 911.778 590.228C912.781 591.957 911.956 594.253 910.525 595.648C909.093 597.044 907.184 597.809 905.437 598.78C899.768 601.931 895.737 607.311 890.782 611.496C885.828 615.681 878.838 618.737 872.934 616.052C874.341 608.928 865.852 603.698 864.29 596.606C863.776 594.271 864.043 591.792 863.309 589.517C862.247 586.223 859.324 583.959 856.926 581.463C854.017 578.403 851.751 574.791 850.262 570.842C848.772 566.892 848.089 562.684 848.253 558.466C848.382 555.535 848.921 552.556 848.253 549.7C847.585 546.843 845.219 544.078 842.287 544.207C835.59 544.503 827.154 545.001 823.641 539.294C822.387 537.257 821.841 534.274 823.654 532.714C824.933 531.613 826.821 531.717 828.5 531.882L843.589 533.366C847.118 533.713 850.933 533.999 853.961 532.155C856.989 530.31 858.301 525.415 855.497 523.245C853.449 521.66 849.778 521.746 849.182 519.225C848.686 517.126 851.011 514.744 849.755 512.989C848.855 511.731 846.831 512.08 845.605 513.023C844.378 513.966 843.489 515.345 842.116 516.059C839.709 517.312 836.832 516.12 834.241 515.31C831.651 514.5 828.178 514.431 826.922 516.836C825.517 519.526 828.168 523.05 826.774 525.745C824.93 529.309 818.686 527.28 816.097 530.345C813.126 533.862 818.119 539.107 817.117 543.6C815.838 544.234 814.416 544.525 812.991 544.445C811.565 544.364 810.185 543.916 808.985 543.144C807.804 542.341 806.864 541.234 806.263 539.939C805.661 538.644 805.423 537.211 805.571 535.792C805.82 533.77 806.874 531.707 806.167 529.797C805.596 528.253 804.045 527.333 802.603 526.537L787.941 518.437C786.58 520.962 788.301 524.091 790.453 525.987C792.605 527.884 795.301 529.312 796.715 531.807C797.61 533.536 797.81 535.541 797.276 537.413C796.741 539.284 795.512 540.882 793.84 541.878C793.63 542.023 793.392 542.12 793.141 542.164C792.89 542.208 792.633 542.197 792.386 542.131C792.152 541.994 791.949 541.811 791.787 541.593C791.625 541.376 791.508 541.128 791.444 540.864C788.857 534.246 784.972 527.721 778.763 524.263C772.553 520.806 763.629 521.517 759.557 527.341C758.59 528.724 757.941 530.301 757.098 531.764C752.622 539.534 743.025 543.213 734.058 542.973C733.181 543.021 732.308 542.816 731.545 542.382C730.095 541.382 730.161 539.259 730.383 537.512L731.324 530.1C731.513 528.612 731.787 526.967 732.965 526.038C734.626 524.728 737.022 525.555 739.138 525.524C740.74 525.449 742.281 524.883 743.551 523.904C744.821 522.924 745.759 521.577 746.238 520.046C746.666 518.5 746.663 516.867 746.23 515.323C745.798 513.778 744.952 512.381 743.784 511.282C742.814 510.372 741.513 509.228 742.025 508.001C742.229 507.661 742.506 507.371 742.834 507.15C743.163 506.928 743.536 506.782 743.928 506.72C747.728 505.617 751.743 505.328 755.479 504.026C759.215 502.725 762.839 500.062 763.724 496.207C763.995 495.025 764.118 493.594 765.18 493.008C765.713 492.783 766.285 492.667 766.863 492.665C768.889 492.377 770.733 491.341 772.033 489.761C773.333 488.182 773.994 486.173 773.887 484.131C775.678 482.88 778.187 483.8 779.919 485.13C781.651 486.461 783.181 488.218 785.289 488.792C789.217 489.86 793.013 486.384 797.084 486.368C798.796 486.361 800.568 486.966 802.179 486.386C803.812 485.797 804.787 484.173 806.04 482.972C807.293 481.772 809.492 481.04 810.649 482.333L809.664 475.037C811.648 475.538 813.717 475.609 815.731 475.245C817.745 474.881 819.658 474.09 821.341 472.926L808.606 468.625C808.163 468.514 807.754 468.295 807.415 467.988C806.489 466.991 807.409 465.438 808.162 464.305C809.963 461.595 810.265 457.131 807.303 455.782C805.282 454.861 802.961 455.966 801.021 457.048L791.726 462.229C791.431 463.995 793.591 464.996 794.93 466.185C795.74 466.905 796.313 467.853 796.575 468.905C796.836 469.956 796.773 471.062 796.394 472.077C796.015 473.092 795.338 473.969 794.451 474.592C793.565 475.215 792.51 475.556 791.427 475.569C792.039 476.365 792.464 477.288 792.671 478.27C792.878 479.252 792.861 480.268 792.622 481.242L786.368 481.692C785.666 481.833 784.937 481.691 784.34 481.296C783.671 480.702 783.762 479.662 783.607 478.781C783.232 476.655 781.15 475.165 779.025 474.783C776.9 474.401 774.726 474.891 772.622 475.374C771.728 475.696 770.747 475.673 769.869 475.311C769.366 474.984 768.984 474.502 768.78 473.937C767.858 471.701 768.72 469.073 770.202 467.16C771.684 465.248 773.712 463.85 775.534 462.258C779.89 458.437 783.091 453.474 784.774 447.931C788.217 446.489 791.781 444.529 795.224 443.087C800.532 440.401 806.484 439.248 812.411 439.759L824.07 439.981C827.522 440.047 831.068 440.132 834.259 441.447C837.451 442.763 840.256 445.608 840.476 449.052C840.543 449.442 840.509 449.843 840.378 450.216C840.248 450.589 840.024 450.923 839.729 451.187C839.278 451.433 838.767 451.548 838.255 451.519C835.035 451.632 833.663 452.434 830.444 452.547Z" fill="#3F3D56"/>
<path d="M737.512 489.075C737.968 488.644 738.296 488.095 738.46 487.49C738.624 486.885 738.618 486.247 738.443 485.645C737.334 485.217 736.128 485.107 734.961 485.328C733.793 485.548 732.711 486.09 731.835 486.892C731.144 487.59 730.549 488.377 730.064 489.232C728.532 491.73 727.177 494.715 728.065 497.508C728.137 497.813 728.27 498.1 728.455 498.352C728.64 498.605 728.873 498.818 729.141 498.98C729.539 499.139 729.968 499.207 730.396 499.176C732.084 499.174 733.77 499.07 735.445 498.865C736.474 498.74 737.669 498.449 738.067 497.492C738.589 496.235 737.324 494.811 737.693 493.5C737.936 492.914 738.303 492.387 738.77 491.958C739.002 491.741 739.18 491.474 739.29 491.177C739.401 490.88 739.44 490.561 739.406 490.246C739.257 489.631 738.315 489.282 737.975 489.816" fill="#3F3D56"/>
<path d="M746.264 477.732C744.765 477.388 743.219 477.291 741.689 477.445C741.35 477.435 741.015 477.511 740.714 477.666C740.422 477.881 740.211 478.187 740.113 478.536C739.79 479.573 739.869 480.694 740.335 481.675C740.802 482.657 741.621 483.426 742.629 483.831C743.179 483.958 743.706 484.169 744.19 484.458C745.484 485.462 744.659 487.513 744.904 489.132C745.179 490.95 746.939 492.476 746.617 494.286C746.362 495.712 744.839 496.841 745.084 498.269C745.341 499.764 747.239 500.214 748.752 500.333C749.629 500.487 750.531 500.383 751.35 500.036C752.172 499.474 752.756 498.629 752.99 497.662C753.609 495.819 753.87 493.874 753.757 491.934C753.75 491.051 753.528 490.183 753.111 489.405C752.655 488.789 752.15 488.211 751.6 487.677C748.702 484.306 751.754 479.279 746.264 477.732Z" fill="#3F3D56"/>
<path opacity="0.8" d="M1127.42 741.765C1127.42 741.765 905.42 614.375 809.844 638.512C809.844 638.512 607.292 660.302 583.818 708.241C583.818 708.241 519.43 507.099 495.956 500.394" stroke="#BA2626" stroke-width="2" stroke-miterlimit="10"/>
<path opacity="0.8" d="M583.818 708.241C621.042 609.011 956.393 499.053 956.393 499.053C908.773 511.122 809.844 638.512 809.844 638.512C809.844 638.512 600.585 486.314 495.955 500.394C495.955 500.394 956.728 515.48 1127.42 741.765" stroke="#BA2626" stroke-width="2" stroke-miterlimit="10"/>
<path d="M495.956 510.116C501.327 510.116 505.681 505.763 505.681 500.394C505.681 495.025 501.327 490.672 495.956 490.672C490.584 490.672 486.23 495.025 486.23 500.394C486.23 505.763 490.584 510.116 495.956 510.116Z" fill="#BA2626"/>
<path d="M583.818 717.963C589.189 717.963 593.543 713.61 593.543 708.241C593.543 702.872 589.189 698.519 583.818 698.519C578.446 698.519 574.092 702.872 574.092 708.241C574.092 713.61 578.446 717.963 583.818 717.963Z" fill="#BA2626"/>
<path d="M956.393 508.775C961.764 508.775 966.118 504.422 966.118 499.053C966.118 493.684 961.764 489.331 956.393 489.331C951.022 489.331 946.668 493.684 946.668 499.053C946.668 504.422 951.022 508.775 956.393 508.775Z" fill="#BA2626"/>
<path d="M1127.42 751.487C1132.79 751.487 1137.15 747.134 1137.15 741.765C1137.15 736.396 1132.79 732.043 1127.42 732.043C1122.05 732.043 1117.7 736.396 1117.7 741.765C1117.7 747.134 1122.05 751.487 1127.42 751.487Z" fill="#BA2626"/>
<path d="M809.844 648.234C815.216 648.234 819.57 643.881 819.57 638.512C819.57 633.143 815.216 628.79 809.844 628.79C804.473 628.79 800.119 633.143 800.119 638.512C800.119 643.881 804.473 648.234 809.844 648.234Z" fill="#BA2626"/>
</g>
<g clip-path="url(#clip1)">
<path d="M1275.5 370.008C1270.26 371.823 1261.06 373.315 1250.4 374.515C1221.43 377.783 1181.73 378.943 1181.73 378.943C1181.73 378.943 977.642 394.851 824.683 335.685C824.683 335.685 802.434 324.723 823.073 309.969C826.251 307.764 829.63 305.827 833.17 304.18L833.422 303.943C835.77 301.904 838.307 300.067 841.003 298.452C848.927 293.637 862.307 287.929 878.595 290.516L1280.33 351.583C1280.33 351.583 1295 363.236 1275.5 370.008Z" fill="#302E3F"/>
<path d="M1195.46 342.33L1279.56 286.25L1316.63 292.276L1280.33 351.583C1280.33 351.583 1196.42 352.213 1195.46 342.33Z" fill="#302E3F"/>
<path d="M983.726 308.26L1151.25 264.104L1178.25 269.409L1102.58 301.402L1078.93 326.271L983.726 308.26Z" fill="#302E3F"/>
<path d="M1223.47 373.305L1298.37 402.046L1317.18 400.085L1272.39 368.439C1272.39 368.439 1218.2 357.573 1223.47 373.305Z" fill="#302E3F"/>
<path d="M1190.55 472.654L1142.46 475.018L1007.27 389.34L982.17 373.431L969.981 365.701C992.852 347.549 1086.16 372.584 1086.16 372.584C1087.95 374.001 1088.52 376.356 1088.44 378.958C1088.28 383.829 1085.85 389.546 1084.91 391.604C1084.68 392.108 1084.54 392.375 1084.54 392.375L1190.55 472.654Z" fill="#302E3F"/>
<path d="M1210.14 353.24L1211.78 346.902L1218.88 347.9L1218.58 349.997L1213.54 349.289L1212.85 351.969C1213.49 351.734 1214.15 351.664 1214.82 351.759C1216.03 351.928 1216.92 352.435 1217.5 353.28C1218.08 354.125 1218.28 355.22 1218.09 356.566C1217.97 357.385 1217.69 358.094 1217.25 358.695C1216.82 359.291 1216.26 359.724 1215.56 359.993C1214.87 360.256 1214.08 360.326 1213.21 360.203C1212.44 360.096 1211.75 359.842 1211.14 359.442C1210.53 359.037 1210.07 358.526 1209.77 357.909C1209.47 357.293 1209.36 356.624 1209.44 355.901L1211.93 356.251C1211.9 356.786 1212.03 357.224 1212.3 357.564C1212.58 357.899 1212.97 358.102 1213.48 358.174C1214.05 358.254 1214.52 358.112 1214.88 357.75C1215.25 357.381 1215.48 356.822 1215.59 356.074C1215.69 355.354 1215.59 354.778 1215.29 354.345C1214.99 353.913 1214.52 353.651 1213.87 353.559C1213.27 353.475 1212.76 353.564 1212.35 353.825L1212.07 354.017L1210.14 353.24ZM1224.74 357.147L1219.84 356.458L1220.13 354.43L1225.03 355.119L1224.74 357.147ZM1237.56 357.28C1237.39 358.528 1237.02 359.591 1236.44 360.469C1235.87 361.347 1235.13 361.983 1234.24 362.378C1233.35 362.774 1232.37 362.897 1231.31 362.747C1230.26 362.6 1229.36 362.216 1228.61 361.595C1227.85 360.975 1227.32 360.165 1227 359.168C1226.67 358.164 1226.6 357.053 1226.76 355.833L1226.85 355.207C1227.03 353.959 1227.4 352.894 1227.98 352.011C1228.57 351.123 1229.31 350.484 1230.2 350.094C1231.09 349.699 1232.07 349.576 1233.12 349.725C1234.18 349.873 1235.08 350.26 1235.83 350.886C1236.58 351.506 1237.11 352.324 1237.43 353.338C1237.75 354.347 1237.82 355.473 1237.64 356.715L1237.56 357.28ZM1235 356.334C1235.19 355.005 1235.09 353.962 1234.71 353.205C1234.33 352.448 1233.7 352.007 1232.82 351.883C1231.94 351.76 1231.22 352.007 1230.65 352.625C1230.08 353.237 1229.7 354.201 1229.51 355.518L1229.42 356.135C1229.24 357.429 1229.33 358.467 1229.71 359.247C1230.08 360.028 1230.72 360.481 1231.61 360.606C1232.49 360.73 1233.21 360.482 1233.78 359.863C1234.34 359.239 1234.72 358.268 1234.91 356.952L1235 356.334ZM1249.15 360.773C1248.86 362.123 1248.21 363.125 1247.19 363.78C1246.17 364.437 1244.92 364.66 1243.44 364.451C1241.81 364.223 1240.61 363.498 1239.83 362.276C1239.05 361.049 1238.8 359.481 1239.07 357.572L1239.18 356.797C1239.35 355.578 1239.71 354.535 1240.27 353.667C1240.83 352.799 1241.55 352.174 1242.41 351.793C1243.28 351.406 1244.24 351.287 1245.3 351.436C1246.76 351.641 1247.89 352.199 1248.67 353.107C1249.45 354.016 1249.81 355.188 1249.75 356.624L1247.14 356.257C1247.19 355.43 1247.05 354.806 1246.71 354.385C1246.37 353.959 1245.8 353.689 1245 353.577C1244.13 353.455 1243.43 353.676 1242.91 354.242C1242.39 354.802 1242.04 355.737 1241.84 357.047L1241.71 358.004C1241.51 359.374 1241.58 360.404 1241.9 361.094C1242.23 361.785 1242.84 362.193 1243.74 362.319C1244.54 362.432 1245.17 362.334 1245.61 362.024C1246.07 361.709 1246.38 361.17 1246.54 360.406L1249.15 360.773ZM1261.04 355.982L1257.15 355.436L1255.67 365.993L1253.06 365.627L1254.54 355.069L1250.71 354.531L1251.01 352.416L1261.33 353.867L1261.04 355.982Z" fill="white"/>
<g filter="url(#filter0_d)">
<path d="M1032.19 428.231L1023.85 433.193L1028.9 424.555C1027.47 423.482 1025.7 422.888 1023.87 422.866H1023.73C1023.15 422.877 1022.58 422.836 1022 422.745L1019.18 424.429L1020.39 422.362C1018.39 421.702 1016.66 420.467 1015.45 418.832L1010.41 421.858L1013.59 416.402C1010.64 413.069 1006.66 411.027 1002.28 411.027C997.026 411.027 992.348 413.961 989.327 418.54C988.431 419.911 987.165 421.034 985.657 421.796C984.15 422.558 982.454 422.93 980.743 422.876H980.464C974.665 422.876 969.965 429.053 969.965 436.677C969.965 444.301 974.665 450.478 980.464 450.478C981.739 450.474 982.993 450.178 984.118 449.615C986.092 448.715 988.251 448.228 990.445 448.188C992.64 448.148 994.817 448.556 996.827 449.383C998.527 450.096 1000.37 450.465 1002.23 450.465C1004.09 450.465 1005.93 450.096 1007.63 449.383C1009.63 448.571 1011.78 448.171 1013.95 448.21C1016.13 448.25 1018.26 448.727 1020.22 449.61C1021.34 450.159 1022.58 450.447 1023.85 450.452C1029.64 450.452 1034.34 444.276 1034.34 436.652C1034.39 433.719 1033.64 430.824 1032.19 428.231Z" fill="white"/>
<path d="M1267.71 421.676L1259.37 426.638L1264.42 418C1262.99 416.927 1261.22 416.333 1259.39 416.311H1259.25C1258.67 416.322 1258.1 416.281 1257.53 416.19L1254.7 417.874L1255.91 415.807C1253.91 415.147 1252.18 413.912 1250.97 412.277L1245.93 415.303L1249.11 409.847C1246.16 406.514 1242.18 404.472 1237.8 404.472C1232.55 404.472 1227.87 407.406 1224.85 411.985C1223.95 413.356 1222.69 414.479 1221.18 415.241C1219.67 416.003 1217.97 416.375 1216.26 416.321H1215.98C1210.19 416.321 1205.49 422.498 1205.49 430.122C1205.49 437.746 1210.19 443.923 1215.98 443.923C1217.26 443.919 1218.51 443.623 1219.64 443.06C1221.61 442.16 1223.77 441.673 1225.97 441.633C1228.16 441.593 1230.34 442.001 1232.35 442.828C1234.05 443.541 1235.89 443.91 1237.75 443.91C1239.61 443.91 1241.45 443.541 1243.15 442.828C1245.15 442.016 1247.3 441.616 1249.47 441.655C1251.65 441.695 1253.79 442.172 1255.74 443.055C1256.86 443.604 1258.1 443.893 1259.37 443.897C1265.17 443.897 1269.86 437.721 1269.86 430.097C1269.91 427.164 1269.16 424.269 1267.71 421.676Z" fill="white"/>
<path d="M1267.71 256.289L1259.37 261.25L1264.42 252.613C1262.99 251.54 1261.22 250.945 1259.39 250.924H1259.25C1258.67 250.934 1258.1 250.894 1257.53 250.803L1254.7 252.487L1255.91 250.42C1253.91 249.76 1252.18 248.525 1250.97 246.89L1245.93 249.915L1249.11 244.46C1246.16 241.127 1242.18 239.084 1237.8 239.084C1232.55 239.084 1227.87 242.019 1224.85 246.597C1223.95 247.969 1222.69 249.092 1221.18 249.854C1219.67 250.616 1217.97 250.988 1216.26 250.934H1215.98C1210.19 250.934 1205.49 257.111 1205.49 264.735C1205.49 272.359 1210.19 278.535 1215.98 278.535C1217.26 278.532 1218.51 278.236 1219.64 277.673C1221.61 276.773 1223.77 276.286 1225.97 276.246C1228.16 276.206 1230.34 276.614 1232.35 277.441C1234.05 278.158 1235.89 278.531 1237.75 278.535C1239.61 278.54 1241.45 278.176 1243.15 277.466C1245.15 276.654 1247.3 276.254 1249.47 276.293C1251.65 276.333 1253.79 276.81 1255.74 277.693C1256.86 278.242 1258.1 278.531 1259.37 278.535C1265.17 278.535 1269.86 272.359 1269.86 264.735C1269.91 261.794 1269.17 258.889 1267.71 256.289Z" fill="white"/>
<path d="M923.269 238.444L919.111 240.92L921.632 236.614C920.92 236.075 920.036 235.777 919.122 235.767H919.057C918.768 235.769 918.479 235.749 918.194 235.706L916.788 236.543L917.389 235.535C916.391 235.206 915.53 234.59 914.926 233.775L912.41 235.288L914.02 232.57C913.35 231.756 912.496 231.093 911.52 230.629C910.544 230.165 909.47 229.912 908.376 229.887C905.758 229.887 903.424 231.35 901.938 233.634C901.491 234.319 900.857 234.881 900.103 235.261C899.349 235.641 898.501 235.826 897.646 235.797H897.506C894.615 235.797 892.27 238.883 892.27 242.685C892.27 246.487 894.615 249.567 897.506 249.567C898.142 249.565 898.768 249.418 899.33 249.139C900.315 248.688 901.392 248.444 902.488 248.424C903.583 248.404 904.669 248.609 905.672 249.023C906.516 249.376 907.43 249.558 908.354 249.558C909.278 249.558 910.192 249.376 911.037 249.023C912.031 248.617 913.107 248.418 914.191 248.438C915.275 248.458 916.342 248.697 917.319 249.139C917.876 249.41 918.494 249.553 919.122 249.557C922.013 249.557 924.358 246.476 924.358 242.675C924.378 241.201 924.004 239.746 923.269 238.444Z" fill="white"/>
<path d="M1293.45 485.012L1289.29 487.488L1291.81 483.182C1291.1 482.644 1290.22 482.345 1289.3 482.335H1289.24C1288.95 482.338 1288.66 482.317 1288.37 482.274L1286.97 483.111L1287.57 482.103C1286.57 481.774 1285.71 481.159 1285.11 480.343L1282.59 481.856L1284.2 479.138C1283.53 478.324 1282.68 477.662 1281.7 477.197C1280.72 476.733 1279.65 476.48 1278.56 476.455C1275.94 476.455 1273.6 477.918 1272.12 480.202C1271.67 480.888 1271.04 481.449 1270.28 481.829C1269.53 482.209 1268.68 482.394 1267.83 482.365H1267.69C1264.79 482.365 1262.45 485.451 1262.45 489.253C1262.45 493.055 1264.79 496.136 1267.69 496.136C1268.32 496.134 1268.95 495.987 1269.51 495.707C1270.5 495.256 1271.57 495.013 1272.67 494.993C1273.76 494.973 1274.85 495.177 1275.85 495.591C1276.7 495.944 1277.61 496.126 1278.53 496.126C1279.46 496.126 1280.37 495.944 1281.22 495.591C1282.21 495.185 1283.29 494.986 1284.37 495.006C1285.46 495.026 1286.52 495.265 1287.5 495.707C1288.06 495.978 1288.67 496.121 1289.3 496.125C1292.19 496.125 1294.54 493.045 1294.54 489.243C1294.56 487.769 1294.18 486.314 1293.45 485.012Z" fill="white"/>
<path d="M1099.25 187.209L1090.91 192.171L1095.96 183.534C1094.53 182.46 1092.76 181.866 1090.93 181.844H1090.79C1090.22 181.855 1089.64 181.814 1089.07 181.723L1086.24 183.407L1087.45 181.34C1085.45 180.681 1083.73 179.446 1082.52 177.811L1077.47 180.836L1080.65 175.38C1077.7 172.047 1073.72 170.005 1069.34 170.005C1064.09 170.005 1059.41 172.94 1056.39 177.518C1055.49 178.889 1054.23 180.013 1052.72 180.774C1051.21 181.536 1049.52 181.909 1047.8 181.854H1047.53C1041.73 181.854 1037.03 188.031 1037.03 195.655C1037.03 203.279 1041.73 209.456 1047.53 209.456C1048.8 209.452 1050.05 209.156 1051.18 208.594C1053.15 207.693 1055.31 207.206 1057.51 207.166C1059.7 207.126 1061.88 207.534 1063.89 208.362C1065.59 209.079 1067.43 209.452 1069.29 209.456C1071.15 209.46 1072.99 209.096 1074.69 208.387C1076.69 207.575 1078.84 207.175 1081.02 207.214C1083.19 207.253 1085.33 207.731 1087.29 208.614C1088.4 209.162 1089.65 209.451 1090.91 209.456C1096.71 209.456 1101.41 203.279 1101.41 195.655C1101.45 192.714 1100.71 189.81 1099.25 187.209Z" fill="white"/>
<path d="M1383.58 273.74L1379.42 276.216L1381.94 271.91C1381.23 271.371 1380.35 271.073 1379.43 271.063H1379.37C1379.08 271.065 1378.79 271.045 1378.5 271.002L1377.1 271.839L1377.7 270.831C1376.7 270.502 1375.84 269.886 1375.24 269.071L1372.72 270.584L1374.33 267.866C1373.66 267.052 1372.81 266.389 1371.83 265.925C1370.85 265.461 1369.78 265.208 1368.69 265.183C1366.07 265.183 1363.73 266.646 1362.25 268.93C1361.8 269.615 1361.17 270.177 1360.41 270.557C1359.66 270.937 1358.81 271.122 1357.96 271.093H1357.82C1354.93 271.093 1352.58 274.179 1352.58 277.981C1352.58 281.783 1354.93 284.863 1357.82 284.863C1358.45 284.862 1359.08 284.714 1359.64 284.435C1360.63 283.984 1361.7 283.741 1362.8 283.721C1363.89 283.7 1364.98 283.905 1365.98 284.319C1366.83 284.672 1367.74 284.854 1368.67 284.854C1369.59 284.854 1370.5 284.672 1371.35 284.319C1372.34 283.913 1373.42 283.714 1374.5 283.734C1375.59 283.754 1376.65 283.993 1377.63 284.435C1378.19 284.706 1378.81 284.849 1379.43 284.853C1382.32 284.853 1384.67 281.773 1384.67 277.971C1384.69 276.497 1384.31 275.042 1383.58 273.74Z" fill="white"/>
<path d="M907.174 498.122L903.016 500.598L905.538 496.292C904.825 495.754 903.941 495.455 903.027 495.445H902.962C902.673 495.448 902.384 495.427 902.099 495.384L900.693 496.221L901.294 495.213C900.297 494.884 899.435 494.269 898.832 493.453L896.315 494.966L897.925 492.248C897.256 491.434 896.402 490.771 895.425 490.307C894.449 489.843 893.375 489.59 892.281 489.565C889.663 489.565 887.329 491.028 885.843 493.312C885.396 493.998 884.763 494.559 884.008 494.939C883.254 495.319 882.406 495.504 881.551 495.475H881.412C878.52 495.475 876.175 498.561 876.175 502.363C876.175 506.165 878.52 509.245 881.412 509.245C882.048 509.244 882.674 509.096 883.236 508.817C884.22 508.366 885.298 508.123 886.393 508.103C887.488 508.083 888.574 508.287 889.577 508.701C890.421 509.054 891.335 509.236 892.259 509.236C893.184 509.236 894.097 509.054 894.942 508.701C895.937 508.295 897.013 508.096 898.097 508.116C899.181 508.136 900.247 508.375 901.224 508.817C901.782 509.088 902.399 509.231 903.027 509.235C905.919 509.235 908.263 506.155 908.263 502.353C908.283 500.879 907.909 499.424 907.174 498.122Z" fill="#F2F2F2"/>
</g>
<path opacity="0.03" d="M1016.5 448.425C1013.47 447.887 1010.33 448.206 1007.5 449.343C1005.8 450.058 1003.96 450.427 1002.1 450.427C1000.24 450.427 998.397 450.058 996.699 449.343C994.689 448.513 992.511 448.104 990.317 448.144C988.122 448.184 985.963 448.672 983.989 449.575C982.861 450.136 981.606 450.432 980.33 450.437C975.18 450.437 970.893 445.556 970.003 439.122C971.033 438.419 971.908 437.533 972.578 436.515C975.598 431.942 980.277 429.007 985.529 429.007C990.781 429.007 995.411 431.882 998.426 436.42C999.326 437.787 1000.59 438.913 1002.09 439.688C1003.59 440.463 1005.27 440.86 1006.98 440.842H1007.12C1011.22 440.832 1014.77 443.918 1016.5 448.425Z" fill="#D7D7D7"/>
<path opacity="0.03" d="M1252.02 441.87C1248.99 441.332 1245.85 441.651 1243.02 442.788C1241.32 443.503 1239.48 443.872 1237.62 443.872C1235.76 443.872 1233.92 443.503 1232.22 442.788C1230.21 441.958 1228.03 441.549 1225.84 441.589C1223.64 441.629 1221.48 442.117 1219.51 443.02C1218.38 443.581 1217.13 443.877 1215.85 443.882C1210.7 443.882 1206.41 439.001 1205.52 432.567C1206.55 431.864 1207.43 430.979 1208.1 429.961C1211.12 425.387 1215.8 422.453 1221.05 422.453C1226.3 422.453 1230.93 425.327 1233.95 429.865C1234.85 431.236 1236.11 432.364 1237.62 433.14C1239.12 433.915 1240.82 434.31 1242.53 434.287H1242.66C1246.74 434.277 1250.29 437.363 1252.02 441.87Z" fill="#D7D7D7"/>
<path opacity="0.03" d="M1252.02 276.483C1248.99 275.944 1245.85 276.264 1243.02 277.401C1241.32 278.116 1239.48 278.485 1237.62 278.485C1235.76 278.485 1233.92 278.116 1232.22 277.401C1230.21 276.571 1228.03 276.162 1225.84 276.202C1223.64 276.242 1221.48 276.73 1219.51 277.633C1218.38 278.194 1217.13 278.489 1215.85 278.495C1210.7 278.495 1206.41 273.614 1205.52 267.18C1206.55 266.477 1207.43 265.591 1208.1 264.573C1211.12 260 1215.8 257.065 1221.05 257.065C1226.3 257.065 1230.93 259.939 1233.95 264.477C1234.85 265.849 1236.11 266.977 1237.62 267.752C1239.12 268.527 1240.82 268.923 1242.53 268.9H1242.66C1246.74 268.889 1250.29 271.975 1252.02 276.483Z" fill="#D7D7D7"/>
<path opacity="0.03" d="M915.441 248.519C913.929 248.246 912.365 248.406 910.951 248.977C910.106 249.328 909.192 249.51 908.268 249.512C907.334 249.512 906.41 249.324 905.559 248.962C904.556 248.55 903.469 248.347 902.374 248.368C901.279 248.389 900.202 248.633 899.218 249.083C898.658 249.363 898.033 249.51 897.399 249.512C894.829 249.512 892.689 247.077 892.243 243.87C892.756 243.516 893.193 243.075 893.531 242.569C895.033 240.285 897.367 238.822 899.969 238.822C902.571 238.822 904.894 240.269 906.407 242.523C906.858 243.209 907.49 243.772 908.243 244.158C908.995 244.545 909.841 244.741 910.699 244.727H910.768C912.791 244.727 914.578 246.27 915.441 248.519Z" fill="#D7D7D7"/>
<path opacity="0.03" d="M1285.62 495.087C1284.11 494.815 1282.55 494.974 1281.13 495.546C1280.29 495.896 1279.37 496.078 1278.45 496.08C1277.51 496.08 1276.59 495.892 1275.74 495.53C1274.74 495.118 1273.65 494.915 1272.55 494.936C1271.46 494.957 1270.38 495.201 1269.4 495.651C1268.84 495.931 1268.21 496.078 1267.58 496.08C1265.01 496.08 1262.87 493.645 1262.42 490.438C1262.94 490.084 1263.37 489.643 1263.71 489.137C1265.21 486.853 1267.55 485.39 1270.15 485.39C1272.75 485.39 1275.07 486.838 1276.59 489.091C1277.04 489.777 1277.67 490.34 1278.42 490.727C1279.18 491.113 1280.02 491.309 1280.88 491.295H1280.95C1282.97 491.295 1284.76 492.838 1285.62 495.087Z" fill="#D7D7D7"/>
<path opacity="0.03" d="M899.347 508.197C897.835 507.925 896.27 508.084 894.856 508.656C894.011 509.006 893.097 509.188 892.174 509.19C891.239 509.19 890.316 509.002 889.464 508.64C888.461 508.228 887.374 508.025 886.28 508.046C885.185 508.067 884.108 508.311 883.123 508.761C882.563 509.041 881.939 509.188 881.304 509.19C878.734 509.19 876.594 506.755 876.149 503.548C876.661 503.194 877.098 502.753 877.436 502.247C878.938 499.963 881.272 498.5 883.874 498.5C886.476 498.5 888.799 499.947 890.312 502.201C890.763 502.887 891.396 503.45 892.148 503.837C892.9 504.223 893.747 504.419 894.604 504.405H894.674C896.696 504.405 898.483 505.948 899.347 508.197Z" fill="#D7D7D7"/>
<path opacity="0.03" d="M1083.56 207.404C1080.53 206.865 1077.4 207.184 1074.56 208.321C1072.86 209.036 1071.02 209.406 1069.16 209.406C1067.3 209.406 1065.46 209.036 1063.76 208.321C1061.75 207.492 1059.57 207.082 1057.38 207.122C1055.18 207.163 1053.02 207.651 1051.05 208.553C1049.92 209.114 1048.67 209.41 1047.39 209.416C1042.24 209.416 1037.95 204.535 1037.06 198.101C1038.09 197.397 1038.97 196.512 1039.64 195.494C1042.66 190.92 1047.34 187.986 1052.59 187.986C1057.84 187.986 1062.47 190.86 1065.49 195.398C1066.39 196.77 1067.65 197.898 1069.16 198.673C1070.66 199.448 1072.36 199.843 1074.07 199.82H1074.21C1078.28 199.81 1081.83 202.896 1083.56 207.404Z" fill="#D7D7D7"/>
<path opacity="0.03" d="M1375.75 283.815C1374.24 283.542 1372.68 283.702 1371.26 284.274C1370.42 284.624 1369.5 284.806 1368.58 284.808C1367.65 284.804 1366.74 284.617 1365.9 284.258C1364.89 283.846 1363.81 283.643 1362.71 283.664C1361.62 283.685 1360.54 283.929 1359.56 284.379C1359 284.659 1358.37 284.806 1357.74 284.808C1355.17 284.808 1353.03 282.373 1352.58 279.166C1353.09 278.812 1353.53 278.371 1353.87 277.865C1355.37 275.581 1357.7 274.118 1360.31 274.118C1362.91 274.118 1365.23 275.565 1366.74 277.819C1367.19 278.501 1367.82 279.062 1368.57 279.448C1369.32 279.834 1370.16 280.032 1371.01 280.023H1371.08C1373.1 280.023 1374.89 281.566 1375.75 283.815Z" fill="#D7D7D7"/>
<path d="M1250.4 374.515C1221.43 377.783 1181.73 378.943 1181.73 378.943C1181.73 378.943 977.642 394.851 824.683 335.685C824.683 335.685 802.434 324.723 823.073 309.969L823.143 310.241C823.143 310.241 856.148 331.207 1013.84 348.709L1250.4 374.515Z" fill="#BA2626"/>
<path d="M850.3 313.312C846.727 313.368 838.54 307.735 833.449 303.943C835.797 301.904 838.334 300.067 841.03 298.452C845.134 301.412 852.436 306.202 856.497 306.016C862.361 305.789 855.681 313.221 850.3 313.312Z" fill="white"/>
</g>
<path fill-rule="evenodd" clip-rule="evenodd" d="M189.833 7.16174L178.999 0L168.165 7.16174L156.52 1.41541L146.669 9.87962L134.396 5.63933L125.682 15.2725L112.974 12.6051L105.536 23.2554L92.5946 22.203L86.5483 33.7023L73.5774 34.2814L69.0189 46.4485L56.2228 48.6501L53.2239 61.2931L40.8045 65.0824L39.4125 78.0018L27.5655 83.3191L27.8024 96.3113L16.7148 103.073L18.5768 115.933L8.42331 124.031L11.8812 136.556L2.82196 145.865L7.82108 157.858L-0.000976562 168.229L6.46056 179.5L-0.000976562 190.771L7.82108 201.142L2.82196 213.135L11.8812 222.444L8.42331 234.969L18.5768 243.067L16.7148 255.927L27.8024 262.689L27.5655 275.681L39.4125 280.998L40.8045 293.918L53.2239 297.707L56.2228 310.35L69.0189 312.551L73.5774 324.719L86.5483 325.298L92.5946 336.797L105.536 335.745L112.974 346.395L125.682 343.727L134.396 353.361L146.669 349.12L156.52 357.585L168.165 351.838L178.999 359L189.833 351.838L201.478 357.585L211.33 349.12L223.603 353.361L232.316 343.727L245.024 346.395L252.462 335.745L265.403 336.797L271.45 325.298L284.421 324.719L288.979 312.551L301.775 310.35L304.774 297.707L317.194 293.918L318.586 280.998L330.433 275.681L330.196 262.689L341.283 255.927L339.421 243.067L349.575 234.969L346.117 222.444L355.176 213.135L350.177 201.142L357.999 190.771L351.538 179.5L357.999 168.229L350.177 157.858L355.176 145.865L346.117 136.556L349.575 124.031L339.421 115.933L341.283 103.073L330.196 96.3113L330.433 83.3191L318.586 78.0018L317.194 65.0824L304.774 61.2931L301.775 48.6501L288.979 46.4485L284.421 34.2814L271.45 33.7023L265.403 22.203L252.462 23.2554L245.024 12.6051L232.316 15.2725L223.603 5.63933L211.33 9.87962L201.478 1.41541L189.833 7.16174ZM179.259 348.137C272.176 348.137 347.5 272.751 347.5 179.759C347.5 86.7659 272.176 11.3804 179.259 11.3804C86.3422 11.3804 11.0181 86.7659 11.0181 179.759C11.0181 272.751 86.3422 348.137 179.259 348.137Z" fill="#BA2525"/>
<path d="M340.831 179.759C340.831 269.067 268.491 341.464 179.258 341.464C90.0256 341.464 17.686 269.067 17.686 179.759C17.686 90.4501 90.0256 18.0533 179.258 18.0533C268.491 18.0533 340.831 90.4501 340.831 179.759Z" stroke="#BA2525" stroke-width="3"/>
<path d="M134.298 126.198C134.712 126.071 135.089 126.165 135.429 126.479C135.801 126.783 136.089 127.27 136.294 127.94C136.674 129.183 136.673 130.264 136.291 131.183C135.326 133.5 134.218 135.407 132.968 136.905C131.708 138.371 130.01 139.431 127.875 140.085C125.803 140.719 123.863 140.702 122.056 140.035C120.281 139.358 118.326 137.865 116.192 135.555C114.478 133.709 113.162 132.369 112.245 131.534C111.318 130.667 110.483 130.103 109.741 129.842C109.031 129.571 108.231 129.52 107.341 129.688C107.418 130.396 107.695 132.612 108.17 136.336C108.402 138.008 108.539 139.029 108.583 139.399C108.858 141.441 108.678 143.135 108.044 144.479C107.399 145.792 106.104 146.746 104.16 147.341C102.024 147.994 99.938 147.953 97.9008 147.217C95.8856 146.439 94.091 145.071 92.5168 143.113C90.9329 141.122 89.7027 138.693 88.8262 135.823C87.1901 130.468 86.7024 125.562 87.3631 121.108C88.0556 116.643 89.7636 112.878 92.4872 109.814C95.2329 106.708 98.8051 104.482 103.204 103.136C106.264 102.2 108.971 101.877 111.325 102.168C113.679 102.458 115.599 103.265 117.084 104.589C118.6 105.902 119.67 107.579 120.294 109.62C120.839 111.405 120.944 113.29 120.609 115.275C120.297 117.218 119.496 119.101 118.205 120.925C116.915 122.749 115.156 124.351 112.929 125.73C114.585 125.676 115.969 125.984 117.08 126.655C118.192 127.326 119.434 128.428 120.808 129.959C122.285 131.599 123.59 132.733 124.723 133.363C125.889 133.982 127.045 134.116 128.192 133.765C129.212 133.453 130.082 132.821 130.802 131.869C131.512 130.884 132.315 129.349 133.211 127.262C133.458 126.699 133.82 126.344 134.298 126.198ZM100.729 131.659C99.645 131.99 98.818 131.964 98.2478 131.581C97.7095 131.188 97.343 130.673 97.1482 130.035C96.9145 129.27 96.9685 128.591 97.3103 127.999C97.684 127.396 98.1895 126.998 98.827 126.803L100.022 126.437C99.5779 123.157 99.2332 120.317 98.988 117.917C98.7693 115.718 99.7916 114.272 102.055 113.579C103.872 113.024 105.028 113.559 105.525 115.184C105.632 115.535 105.699 115.811 105.725 116.012L106.716 124.389C108.408 123.766 109.843 122.874 111.022 121.712C112.232 120.54 113.052 119.173 113.482 117.613C113.943 116.042 113.92 114.428 113.414 112.77C112.8 110.762 111.633 109.394 109.912 108.666C108.191 107.937 106.007 107.978 103.362 108.787C100.238 109.743 97.7353 111.363 95.8538 113.647C93.9944 115.889 92.8787 118.74 92.5067 122.2C92.125 125.629 92.6013 129.527 93.9354 133.894C94.5587 135.934 95.3015 137.624 96.1638 138.964C97.0262 140.304 97.8722 141.247 98.7018 141.795C99.5314 142.343 100.217 142.534 100.759 142.368C101.173 142.242 101.445 141.932 101.573 141.44C101.733 140.937 101.752 140.2 101.629 139.226L100.729 131.659ZM140.036 136.364C138.06 136.968 136.263 136.734 134.645 135.66C133.027 134.586 131.863 132.886 131.152 130.559C130.373 128.009 130.228 125.421 130.716 122.797C131.194 120.141 132.196 117.83 133.721 115.864C135.269 113.857 137.143 112.517 139.342 111.844C140.043 111.629 140.549 111.631 140.86 111.85C141.193 112.027 141.546 112.442 141.92 113.094C142.55 112.762 143.232 112.483 143.965 112.259C145.527 111.781 146.478 112.1 146.819 113.216C147.024 113.885 147.271 115.553 147.563 118.217C147.949 122.108 148.362 124.77 148.8 126.205C148.946 126.683 149.175 127.031 149.485 127.25C149.828 127.459 150.191 127.505 150.573 127.388C151.179 127.202 151.795 126.596 152.422 125.567C153.039 124.507 153.813 122.876 154.744 120.674C154.99 120.11 155.352 119.756 155.83 119.609C156.244 119.482 156.622 119.576 156.962 119.89C157.333 120.195 157.622 120.682 157.826 121.351C158.216 122.627 158.215 123.708 157.823 124.594C157.013 126.62 156.045 128.415 154.92 129.979C153.795 131.544 152.547 132.536 151.176 132.955C150.124 133.277 149.045 133.224 147.938 132.795C146.853 132.326 145.898 131.537 145.072 130.43C144.233 133.615 142.554 135.593 140.036 136.364ZM140.282 131.007C140.983 130.793 141.526 130.174 141.91 129.15C142.294 128.126 142.42 126.884 142.289 125.426L141.37 116.086C140.041 116.527 138.954 117.418 138.108 118.757C137.284 120.055 136.782 121.603 136.599 123.402C136.417 125.201 136.598 126.993 137.143 128.778C137.445 129.766 137.861 130.441 138.389 130.802C138.95 131.153 139.58 131.222 140.282 131.007ZM180.558 113.664C181.291 113.44 181.809 113.822 182.111 114.81C182.491 116.053 182.501 117.113 182.141 117.99C181.814 118.857 181.172 119.437 180.215 119.73L178.432 120.223C178.103 120.289 177.636 120.414 177.031 120.6C177.713 122.378 178.332 124.175 178.887 125.992C180.358 130.806 181.001 135.193 180.816 139.154C180.664 143.105 179.249 145.49 176.572 146.309C174.755 146.865 173.047 146.237 171.448 144.426C169.891 142.636 168.654 140.243 167.739 137.247C166.599 133.517 165.889 129.708 165.608 125.82C165.03 127.81 163.865 129.072 162.112 129.609C160.359 130.145 158.669 129.861 157.041 128.755C155.446 127.64 154.293 125.919 153.582 123.591C152.812 121.073 152.672 118.502 153.16 115.877C153.679 113.243 154.718 110.939 156.275 108.963C157.855 106.946 159.776 105.591 162.04 104.899C162.804 104.665 163.472 104.739 164.042 105.122C164.018 104.015 164.238 103.197 164.705 102.671C165.172 102.145 165.915 101.726 166.935 101.414C168.019 101.082 168.785 101.022 169.233 101.234C169.712 101.435 170.029 101.844 170.182 102.459C170.299 102.842 170.364 103.798 170.379 105.327C170.415 106.815 170.437 107.802 170.446 108.287C170.482 110.228 170.528 112.376 170.584 114.729C170.673 117.072 170.814 119.19 171.009 121.083C171.547 126.495 172.415 131.162 173.613 135.083C174.061 136.55 174.552 137.759 175.087 138.711C175.663 139.685 176.143 140.113 176.525 139.996C176.844 139.899 177.013 139.254 177.033 138.063C177.084 136.862 176.96 135.314 176.66 133.419C176.36 131.524 175.898 129.556 175.275 127.516C174.535 125.093 173.766 122.975 172.968 121.163C172.887 121.013 172.794 120.763 172.686 120.412C172.365 119.36 172.352 118.406 172.648 117.548C172.976 116.681 173.618 116.101 174.574 115.809C174.701 115.77 175.898 115.351 178.164 114.553C179.091 114.165 179.889 113.869 180.558 113.664ZM162.549 124.194C163.282 123.97 163.847 123.309 164.244 122.211C164.631 121.082 164.773 119.836 164.67 118.473L164.067 109.141C162.675 109.602 161.535 110.491 160.647 111.808C159.792 113.116 159.257 114.674 159.043 116.482C158.851 118.249 159.023 120.009 159.558 121.763C159.86 122.751 160.269 123.462 160.785 123.897C161.324 124.29 161.911 124.389 162.549 124.194ZM185.396 122.484C183.962 122.923 182.583 122.631 181.259 121.606C179.958 120.54 179.005 119.019 178.401 117.043C177.671 114.652 177.163 112.419 176.878 110.345C176.583 108.239 176.462 105.959 176.513 103.503C176.54 102.449 176.777 101.627 177.224 101.037C177.671 100.447 178.516 99.9618 179.759 99.5814C180.46 99.3668 180.973 99.3321 181.296 99.4772C181.651 99.6126 181.896 99.9035 182.033 100.35C182.111 100.605 182.198 101.519 182.296 103.093C182.337 104.37 182.409 105.516 182.509 106.531C182.894 110.073 183.257 112.402 183.598 113.518C183.803 114.187 184.029 114.641 184.276 114.879C184.513 115.086 184.807 115.135 185.157 115.028C185.636 114.882 186.079 114.223 186.488 113.052C186.929 111.871 187.251 110.187 187.454 107.998C187.689 105.8 187.755 103.165 187.653 100.094C187.616 99.0597 187.789 98.2572 188.173 97.6868C188.588 97.1065 189.322 96.6555 190.373 96.3337C191.106 96.1093 191.646 96.0489 191.991 96.1524C192.327 96.224 192.567 96.4989 192.713 96.9771C192.957 97.7741 193.226 100.08 193.519 103.894C193.873 108.248 194.197 110.903 194.489 111.859C194.674 112.465 194.947 112.904 195.309 113.176C195.662 113.417 196.045 113.474 196.46 113.347C197.097 113.152 197.729 112.541 198.356 111.512C199.005 110.442 199.795 108.806 200.726 106.604C200.972 106.041 201.334 105.686 201.812 105.54C202.226 105.413 202.604 105.507 202.944 105.821C203.315 106.125 203.604 106.612 203.808 107.282C204.198 108.557 204.197 109.638 203.805 110.525C202.951 112.634 201.892 114.474 200.63 116.045C199.399 117.607 197.78 118.695 195.771 119.31C194.241 119.778 192.93 119.534 191.836 118.579C190.775 117.614 189.918 116.064 189.265 113.928C189.386 116.261 189.084 118.184 188.361 119.695C187.627 121.174 186.639 122.104 185.396 122.484ZM220.598 99.7916C221.012 99.6648 221.39 99.7585 221.73 100.073C222.101 100.377 222.39 100.864 222.594 101.534C222.984 102.809 222.983 103.89 222.591 104.776C221.85 106.572 220.581 108.407 218.783 110.282C217.018 112.146 214.908 113.454 212.454 114.205C209.107 115.229 206.232 115.116 203.828 113.864C201.424 112.613 199.74 110.409 198.776 107.253C198.104 105.053 197.943 102.872 198.293 100.708C198.633 98.5124 199.445 96.6081 200.73 94.9949C202.046 93.372 203.741 92.2435 205.813 91.6096C207.661 91.0439 209.314 91.1483 210.77 91.9227C212.217 92.6652 213.228 93.9769 213.802 95.8578C214.474 98.0574 214.257 100.198 213.15 102.28C212.065 104.32 209.784 106.377 206.305 108.453C207.55 109.675 209.288 109.945 211.519 109.263C212.953 108.824 214.428 107.832 215.943 106.288C217.48 104.702 218.669 102.891 219.512 100.856C219.758 100.293 220.12 99.9379 220.598 99.7916ZM206.431 96.5445C205.252 96.9054 204.457 97.898 204.047 99.5224C203.669 101.137 203.777 102.917 204.371 104.861L204.4 104.957C206.145 103.935 207.422 102.812 208.233 101.588C209.044 100.364 209.27 99.1619 208.909 97.9823C208.724 97.3766 208.403 96.9521 207.945 96.7087C207.51 96.4237 207.005 96.369 206.431 96.5445ZM233.059 100.266C233.312 99.8402 233.614 99.5736 233.965 99.4663C234.348 99.3492 234.718 99.4797 235.078 99.8578C235.46 100.194 235.743 100.665 235.928 101.271C236.337 102.61 236.185 103.824 235.472 104.914C234.234 106.792 232.562 108.052 230.459 108.696C227.43 109.623 224.831 109.041 222.659 106.952C220.477 104.831 218.763 101.73 217.517 97.6494C216.329 93.7602 215.469 89.1778 214.938 83.9023C214.439 78.6171 214.616 73.8918 215.469 69.7264C216.355 65.5513 218.152 63.0492 220.862 62.2202C222.392 61.7521 223.806 62.1036 225.105 63.2748C226.426 64.4044 227.491 66.2922 228.299 68.9382C229.458 72.7318 229.75 77.4529 229.175 83.1016C228.632 88.7406 227.305 94.5499 225.193 100.529C225.815 101.768 226.501 102.587 227.25 102.985C227.999 103.383 228.868 103.431 229.856 103.129C230.398 102.963 230.955 102.618 231.527 102.095C232.13 101.561 232.641 100.952 233.059 100.266ZM221.256 67.2761C220.523 67.5004 220.098 69.077 219.982 72.0058C219.866 74.9346 220.056 78.4668 220.553 82.6025C221.05 86.7382 221.816 90.6169 222.853 94.2388C223.977 89.8165 224.638 85.5356 224.838 81.3961C225.027 77.2248 224.65 73.5929 223.705 70.5007C222.965 68.0779 222.149 67.003 221.256 67.2761ZM199.399 180.475C198.314 184.223 196.686 187.737 194.515 191.015L200.077 194.333C201.044 194.874 201.654 195.559 201.908 196.387C202.151 197.184 202.032 197.935 201.55 198.641C201.078 199.378 200.316 199.907 199.264 200.229C197.798 200.677 196.546 200.573 195.509 199.914L190.046 196.409C186.86 199.441 183.545 201.483 180.103 202.536C177.553 203.317 175.2 203.601 173.044 203.389C170.888 203.177 169.07 202.531 167.589 201.45C166.141 200.36 165.154 198.953 164.628 197.232C163.917 194.905 163.972 192.518 164.793 190.07C165.636 187.581 167.397 184.846 170.076 181.865C167.195 179.052 165.36 176.354 164.571 173.772C163.87 171.477 163.73 169.306 164.151 167.26C164.571 165.214 165.48 163.454 166.877 161.981C168.306 160.498 170.121 159.42 172.32 158.747C175.125 157.889 177.541 158.039 179.567 159.196C181.616 160.312 183.069 162.273 183.926 165.078C184.637 167.406 184.624 169.815 183.886 172.307C183.17 174.756 181.418 177.576 178.628 180.765C181.515 182.914 185.207 185.358 189.703 188.096C191.232 185.571 192.594 182.557 193.789 179.054C193.984 178.437 194.291 177.959 194.711 177.622C195.121 177.252 195.677 176.96 196.378 176.746C198.227 176.18 199.312 176.423 199.633 177.475C199.838 178.145 199.76 179.145 199.399 180.475ZM173.519 163.871C172.021 164.329 171.017 165.264 170.507 166.675C169.987 168.054 169.985 169.588 170.501 171.278C171.115 173.286 172.456 175.281 174.525 177.262C176.564 175.035 177.82 173.099 178.293 171.456C178.767 169.812 178.756 168.177 178.259 166.551C177.899 165.372 177.313 164.54 176.503 164.056C175.693 163.571 174.698 163.51 173.519 163.871ZM178.783 197.189C181.269 196.428 183.478 195.159 185.41 193.383C180.794 190.368 177.076 187.724 174.256 185.449C171.374 188.911 170.323 191.916 171.102 194.467C171.55 195.933 172.459 196.91 173.828 197.398C175.187 197.853 176.838 197.783 178.783 197.189ZM153.058 288.198C150.859 288.871 148.701 288.938 146.585 288.401C144.501 287.853 142.637 286.715 140.994 284.987C139.341 283.227 138.086 280.945 137.229 278.139C135.749 273.294 135.417 268.498 136.232 263.751C137.038 258.973 139.085 254.721 142.374 250.996C145.652 247.239 150.129 244.493 155.802 242.756C157.269 242.308 158.864 241.942 160.59 241.658C162.348 241.364 163.98 241.23 165.487 241.257C166.457 241.239 167.098 241.74 167.41 242.76C167.663 243.589 167.583 244.468 167.169 245.396C166.788 246.315 166.183 246.901 165.354 247.154C165.099 247.232 164.903 247.275 164.765 247.282C162.991 247.407 161.49 247.57 160.262 247.771C159.024 247.941 157.752 248.225 156.445 248.625C152.397 249.864 149.256 251.906 147.023 254.75C144.78 257.563 143.45 260.793 143.031 264.442C142.612 268.091 142.972 271.781 144.111 275.51C144.939 278.22 146.108 280.163 147.617 281.34C149.149 282.475 150.776 282.779 152.497 282.252C154.441 281.657 155.903 280.338 156.882 278.296C157.862 276.253 158.412 273.261 158.532 269.32C158.653 265.379 158.368 260.168 157.677 253.686C157.596 252.735 157.793 252.012 158.27 251.518C158.746 251.024 159.462 250.63 160.419 250.338C162.682 249.645 164.037 250.032 164.485 251.499C164.563 251.754 164.613 252.087 164.634 252.499C164.75 255.845 165.032 259.506 165.48 263.482C165.95 267.417 166.482 270.356 167.076 272.301C167.602 274.022 168.241 275.204 168.995 275.845C169.738 276.454 170.636 276.597 171.688 276.275C172.708 275.963 173.578 275.331 174.298 274.379C175.008 273.395 175.811 271.859 176.707 269.772C176.953 269.209 177.315 268.854 177.794 268.708C178.208 268.581 178.585 268.675 178.925 268.989C179.297 269.294 179.585 269.781 179.79 270.45C180.169 271.693 180.168 272.774 179.787 273.693C178.8 276.051 177.708 277.954 176.512 279.401C175.315 280.847 173.634 281.902 171.466 282.566C169.235 283.248 167.239 283.162 165.479 282.306C163.709 281.418 162.289 279.849 161.217 277.597C160.368 283.26 157.648 286.793 153.058 288.198ZM181.991 279.345C180.78 279.716 179.724 279.341 178.825 278.222C177.957 277.094 177.095 275.126 176.238 272.321C174.972 268.177 174.359 264.059 174.399 259.969C174.403 258.956 174.661 258.145 175.172 257.536C175.705 256.885 176.561 256.379 177.74 256.018C178.378 255.823 178.849 255.766 179.152 255.847C179.456 255.929 179.676 256.193 179.812 256.639C179.968 257.149 180.08 258.37 180.147 260.301C180.218 261.674 180.303 262.868 180.404 263.883C180.505 264.898 180.706 266.126 181.007 267.568C181.222 264.504 181.719 261.912 182.5 259.79C183.281 257.669 184.181 256.052 185.2 254.938C186.251 253.815 187.303 253.092 188.355 252.77C190.427 252.136 191.779 252.855 192.412 254.928C192.792 256.171 193.128 258.526 193.42 261.992C193.661 264.951 193.919 266.876 194.191 267.769C194.581 269.044 195.238 269.54 196.162 269.257C196.8 269.062 197.432 268.451 198.059 267.422C198.708 266.352 199.498 264.716 200.428 262.514C200.674 261.951 201.036 261.596 201.515 261.45C201.929 261.323 202.306 261.417 202.646 261.731C203.018 262.035 203.306 262.522 203.511 263.192C203.9 264.467 203.899 265.548 203.508 266.435C202.653 268.544 201.595 270.384 200.332 271.955C199.102 273.517 197.482 274.605 195.474 275.22C193.848 275.717 192.48 275.63 191.369 274.959C190.248 274.257 189.415 273.013 188.869 271.227C188.597 270.335 188.333 268.672 188.078 266.241C187.879 264.105 187.662 262.655 187.429 261.89C187.273 261.38 187.02 261.179 186.669 261.286C186.255 261.413 185.831 262.135 185.397 263.453C184.985 264.73 184.648 266.366 184.387 268.363C184.158 270.351 184.101 272.39 184.217 274.481C184.324 276.087 184.221 277.233 183.909 277.922C183.618 278.568 182.979 279.043 181.991 279.345ZM226.142 253.914C226.557 253.787 226.934 253.881 227.274 254.195C227.646 254.5 227.934 254.987 228.138 255.656C228.528 256.931 228.527 258.012 228.136 258.899C227.316 260.893 226.3 262.702 225.089 264.328C223.868 265.922 222.492 266.953 220.962 267.421C218.54 268.162 216.258 267.309 214.116 264.862C213.293 266.961 212.46 268.454 211.615 269.34C210.802 270.216 209.726 270.859 208.388 271.268C206.443 271.863 204.615 271.638 202.901 270.594C201.21 269.508 200.009 267.801 199.298 265.474C198.519 262.924 198.341 260.399 198.762 257.9C199.174 255.368 200.111 253.13 201.572 251.183C203.056 249.196 204.939 247.713 207.22 246.736C205.936 240.367 205.472 234.74 205.827 229.855C206.204 224.929 207.779 222.042 210.553 221.194C211.923 220.774 213.245 221.05 214.517 222.02C215.821 222.98 216.858 224.72 217.627 227.238C218.718 230.809 219.117 235.253 218.825 240.571C218.532 245.889 217.689 251.516 216.296 257.45C216.988 259.26 217.663 260.5 218.321 261.17C219.011 261.83 219.69 262.058 220.359 261.853C221.22 261.59 221.98 260.939 222.638 259.901C223.297 258.863 224.103 257.222 225.056 254.979C225.302 254.415 225.664 254.06 226.142 253.914ZM211.458 226.041C210.853 226.226 210.578 227.495 210.635 229.848C210.682 232.169 211.013 235.136 211.628 238.747C212.275 242.349 213.082 246.076 214.05 249.928C215.244 241.057 215.12 234.262 213.679 229.544C213.309 228.333 212.91 227.427 212.482 226.825C212.086 226.214 211.745 225.953 211.458 226.041ZM208.586 265.927C209.191 265.741 209.724 265.317 210.183 264.653C210.633 263.958 211.116 262.799 211.631 261.178C210.787 259.554 210.038 257.674 209.386 255.538C209.152 254.773 208.804 253.52 208.342 251.779C206.754 252.857 205.648 254.485 205.024 256.663C204.422 258.8 204.457 260.968 205.129 263.167C205.84 265.494 206.992 266.414 208.586 265.927ZM230.317 264.559C229.105 264.929 228.05 264.555 227.15 263.436C226.283 262.307 225.42 260.34 224.563 257.534C223.297 253.39 222.684 249.273 222.724 245.182C222.729 244.17 222.986 243.359 223.497 242.749C224.03 242.098 224.887 241.592 226.066 241.231C226.703 241.036 227.174 240.979 227.478 241.061C227.781 241.142 228.001 241.406 228.138 241.852C228.294 242.362 228.405 243.583 228.472 245.515C228.543 246.887 228.629 248.081 228.73 249.096C228.831 250.111 229.032 251.339 229.333 252.781C229.547 249.718 230.045 247.125 230.826 245.004C231.607 242.882 232.507 241.265 233.526 240.151C234.577 239.028 235.628 238.305 236.68 237.984C238.752 237.35 240.104 238.069 240.737 240.141C240.864 240.555 241.027 241.603 241.227 243.285C241.362 244.638 241.478 245.474 241.575 245.793C241.916 246.909 242.485 247.345 243.282 247.101C244.174 246.828 245.108 245.775 246.082 243.944C246.369 243.402 246.736 243.064 247.183 242.927C247.597 242.8 247.974 242.894 248.314 243.208C248.676 243.481 248.95 243.92 249.135 244.526C249.495 245.705 249.459 246.727 249.026 247.592C248.416 248.789 247.607 249.908 246.601 250.948C245.616 251.947 244.454 252.651 243.116 253.06C241.426 253.577 240.004 253.542 238.849 252.954C237.725 252.357 236.939 251.325 236.491 249.859C236.345 249.38 236.247 248.888 236.196 248.38C236.065 247.723 235.966 247.283 235.898 247.06C235.742 246.55 235.489 246.348 235.138 246.456C234.66 246.602 234.188 247.339 233.722 248.667C233.279 249.953 232.942 251.589 232.713 253.577C232.483 255.564 232.427 257.603 232.543 259.694C232.65 261.3 232.547 262.447 232.234 263.135C231.944 263.782 231.305 264.256 230.317 264.559ZM266.674 241.512C267.088 241.385 267.465 241.479 267.805 241.794C268.177 242.098 268.465 242.585 268.67 243.254C269.059 244.53 269.058 245.611 268.667 246.497C267.926 248.293 266.657 250.128 264.859 252.002C263.094 253.867 260.984 255.175 258.529 255.926C255.182 256.95 252.307 256.836 249.903 255.585C247.5 254.333 245.816 252.13 244.851 248.974C244.179 246.774 244.018 244.592 244.368 242.429C244.708 240.233 245.521 238.329 246.805 236.716C248.122 235.093 249.816 233.964 251.888 233.33C253.737 232.765 255.389 232.869 256.846 233.643C258.293 234.386 259.303 235.698 259.878 237.578C260.55 239.778 260.332 241.919 259.226 244C258.141 246.04 255.859 248.098 252.38 250.173C253.625 251.396 255.363 251.666 257.594 250.983C259.029 250.544 260.503 249.553 262.018 248.009C263.556 246.423 264.745 244.612 265.587 242.577C265.833 242.013 266.195 241.659 266.674 241.512ZM252.507 238.265C251.328 238.626 250.533 239.619 250.123 241.243C249.745 242.858 249.853 244.637 250.447 246.582L250.476 246.678C252.22 245.656 253.498 244.533 254.309 243.309C255.12 242.084 255.345 240.883 254.985 239.703C254.8 239.097 254.479 238.673 254.021 238.429C253.585 238.144 253.081 238.09 252.507 238.265ZM266.204 225.499C264.865 225.909 263.768 225.913 262.914 225.512C262.05 225.079 261.447 224.305 261.106 223.189C260.766 222.074 260.914 221.017 261.55 220.021C262.209 218.983 263.192 218.264 264.499 217.864C265.678 217.503 266.722 217.497 267.63 217.847C268.539 218.196 269.154 218.897 269.475 219.949C269.864 221.224 269.762 222.371 269.167 223.39C268.562 224.377 267.574 225.08 266.204 225.499ZM269.458 252.582C268.438 252.894 267.674 252.901 267.164 252.604C266.655 252.307 266.264 251.712 265.992 250.819C265.914 250.564 265.809 250.108 265.678 249.451C264.406 243.461 263.629 237.895 263.348 232.752C263.301 231.686 263.506 230.873 263.963 230.315C264.442 229.716 265.335 229.216 266.642 228.816C268.012 228.397 268.868 228.745 269.209 229.861C269.258 230.02 269.318 230.333 269.391 230.798C270.041 238.059 270.928 244.045 272.053 248.755C272.301 249.795 272.217 250.605 271.802 251.185C271.387 251.765 270.606 252.231 269.458 252.582Z" fill="#BA2525"/>
<defs>
<filter id="filter0_d" x="872.175" y="170.005" width="516.494" height="347.24" filterUnits="userSpaceOnUse" color-interpolation-filters="sRGB">
<feFlood flood-opacity="0" result="BackgroundImageFix"/>
<feColorMatrix in="SourceAlpha" type="matrix" values="0 0 0 0 0 0 0 0 0 0 0 0 0 0 0 0 0 0 127 0"/>
<feOffset dy="4"/>
<feGaussianBlur stdDeviation="2"/>
<feColorMatrix type="matrix" values="0 0 0 0 0 0 0 0 0 0 0 0 0 0 0 0 0 0 0.1 0"/>
<feBlend mode="normal" in2="BackgroundImageFix" result="effect1_dropShadow"/>
<feBlend mode="normal" in="SourceGraphic" in2="effect1_dropShadow" result="shape"/>
</filter>
<clipPath id="clip0">
<rect width="956.107" height="709.951" fill="white" transform="translate(322 248.05)"/>
</clipPath>
<clipPath id="clip1">
<rect width="570.362" height="339.215" fill="white" transform="translate(814.312 170)"/>
</clipPath>
</defs>
</svg>
