<svg width="1063" height="788" viewBox="0 0 1063 788" fill="none" xmlns="http://www.w3.org/2000/svg">
<g clip-path="url(#clip0)">
<path d="M880.828 250.628C772.312 99.6748 543.076 38.4415 317.631 104.391C198.444 139.257 83.5268 209.115 26.5764 344.384C-75.2286 586.191 138.524 663.419 278.294 688.032C345.88 699.934 409.534 719.926 467.702 747.145C572.351 796.115 757.587 839.508 897.267 635.525C998.507 487.678 953.111 351.178 880.828 250.628Z" fill="#F2F2F2"/>
<path d="M251.687 280.494C251.384 278.095 250.77 275.745 249.861 273.504C249.745 273.08 249.542 272.685 249.265 272.344C248.988 272.003 248.643 271.724 248.252 271.523C247.729 271.387 247.181 271.381 246.655 271.505L238.458 272.759C237.772 272.79 237.115 273.046 236.588 273.486C235.521 274.608 236.572 276.415 236.539 277.964C236.502 279.705 234.955 281.118 233.277 281.586C231.564 281.932 229.796 281.91 228.092 281.522L216.631 279.741C220.006 278.664 223.011 276.659 225.302 273.957C226.81 272.171 227.612 268.836 225.433 267.99C224.785 267.812 224.11 267.758 223.442 267.83C218.249 267.87 214.162 263.536 209.301 261.711C206.19 260.618 202.812 260.537 199.652 261.478C196.491 262.42 193.709 264.337 191.704 266.955L197.81 267.249C198.385 267.217 198.954 267.369 199.437 267.682C200.775 268.781 199.111 270.892 199.3 272.613C199.545 274.849 202.514 275.327 204.753 275.553C206.992 275.779 209.832 277.597 208.755 279.572C197.503 283.446 186.053 271.999 174.237 273.408C171.246 273.764 168.422 274.939 165.502 275.678C147.665 280.189 129.224 268.152 111.003 270.701C106.952 271.391 102.97 272.441 99.1059 273.838C96.6259 274.652 94.0391 275.531 92.2372 277.419C90.4352 279.307 89.7494 282.536 91.4565 284.51C86.7514 284.897 82.0149 284.447 77.467 283.18C78.6968 283.864 79.7199 284.865 80.4289 286.08C81.1379 287.295 81.5067 288.679 81.4964 290.085C74.15 291.283 66.998 293.463 60.233 296.566C61.4956 298.665 62.9703 300.629 64.634 302.427L55.3336 308.4C58.4757 309.192 60.1003 313.475 58.273 316.15C61.531 314.701 63.5502 310.953 67.0341 310.193C69.3166 309.695 71.639 310.628 73.8042 311.505C75.9695 312.382 78.3493 313.232 80.5908 312.574C82.8323 311.916 84.4855 309.011 83.0612 307.159C92.6419 304.365 102.543 302.819 112.52 302.558C113.29 302.462 114.07 302.61 114.751 302.982C116.05 303.882 115.708 305.828 115.638 307.407C115.568 308.985 116.799 311.06 118.21 310.348C116.55 311.788 117.969 314.497 119.562 316.011C121.155 317.524 123.076 319.613 122.1 321.582C121.846 322.096 121.414 322.507 121.169 323.025C120.446 324.556 121.594 326.34 122.948 327.357C124.302 328.373 125.96 329.083 126.901 330.491C127.841 331.898 127.414 334.362 125.732 334.559L120.952 328.492C119.319 330.184 118.199 332.305 117.723 334.609C122.792 338.751 123.554 347.182 119.311 352.166C117.142 354.712 114.058 356.26 111.367 358.246C108.675 360.233 106.185 363.062 106.192 366.406C106.203 372.184 105.731 377.552 107.897 382.91C111.891 392.787 116.502 402.405 121.703 411.704C123.069 414.146 124.834 416.823 127.601 417.243C124.105 408.733 120.957 400.091 118.158 391.316C119.981 391.323 122.087 391.468 123.156 392.944C124.041 394.167 123.851 395.829 124.126 397.313C124.476 398.75 125.059 400.121 125.852 401.37L142.551 431.105C143.935 433.57 145.523 436.215 148.168 437.214C149.86 437.852 151.817 437.732 153.374 438.65C154.594 439.371 155.416 440.649 156.66 441.328C160.178 443.246 165.069 439.567 168.357 441.857C169.297 442.512 169.894 443.553 170.761 444.302C173.797 446.931 178.777 445.172 182.282 447.133C184.541 448.397 185.711 450.924 186.916 453.214C189.934 458.951 194.817 464.571 201.285 465.028C203.317 465.171 205.392 464.786 207.378 465.238C209.364 465.69 211.319 467.422 211 469.433C210.453 472.881 212.157 476.656 211.7 480.116C210.866 486.419 201.922 489.189 201.154 495.501C200.986 496.882 201.249 498.309 200.92 499.661C200.517 501.319 199.271 502.669 198.829 504.317C197.99 507.44 200.228 510.547 202.687 512.648C205.145 514.749 208.078 516.561 209.422 519.502C210.843 522.61 210.145 526.234 210.607 529.621C211.616 537.013 218.003 542.493 224.576 546.027C226.579 547.103 228.729 548.146 230.026 550.013C231.717 552.451 231.549 555.665 232.114 558.578C233.498 565.711 239.505 571.589 239.675 578.853C239.796 584.016 236.925 588.7 235.21 593.572C233.602 598.24 233.021 603.199 233.505 608.112C233.988 613.025 235.527 617.776 238.014 622.04C239.297 624.206 240.832 626.248 241.739 628.595C243.359 632.785 242.833 637.547 244.327 641.784C246.301 647.384 251.726 652.01 251.207 657.926C253.67 663.039 259.108 665.551 264.577 667.072L274.378 669.8C276.255 670.322 278.216 670.848 280.127 670.47C282.038 670.092 283.862 668.506 283.812 666.559C279.006 665.476 274.045 664.323 270.083 661.395C266.121 658.468 263.407 653.254 264.91 648.563C265.607 646.388 267.09 643.877 265.68 642.079C264.873 641.05 263.397 640.782 262.487 639.843C261.066 638.378 261.554 635.918 262.575 634.153C263.596 632.387 265.072 630.809 265.484 628.811C265.692 627.694 265.553 626.539 265.086 625.503C264.619 624.467 263.846 623.598 262.871 623.013C264.688 622.327 266.341 621.267 267.722 619.901C268.998 618.445 269.587 616.199 268.583 614.544C271.564 614.922 275.082 615.107 277.038 612.828C278.601 611.008 278.493 608.287 277.876 605.97C277.259 603.652 276.215 601.402 276.183 599.004C283.058 599.33 289.948 599.096 296.785 598.305C295.796 594.977 293.549 592.164 290.521 590.464C293.618 589.94 296.439 586.234 297.417 583.251C298.395 580.268 298.146 577.018 297.541 573.938C297.309 573.144 297.277 572.306 297.448 571.498C297.797 570.387 298.889 569.709 299.899 569.129L315.268 560.305C316.185 559.846 317.017 559.232 317.726 558.491C319.336 556.6 319.098 553.746 318.273 551.404C317.449 549.061 316.128 546.858 315.81 544.396C314.861 537.03 322.748 531.745 325.41 524.811C326.455 522.09 326.668 519.133 326.87 516.225C327.087 513.102 327.103 509.475 324.704 507.463C322.405 505.534 318.813 505.964 316.407 504.17C314.201 502.524 313.44 499.329 311.03 498.001C308.842 496.794 306.098 497.561 303.664 496.994C299.379 495.995 296.682 491.057 292.306 490.6C289.836 490.342 287.042 491.549 285.018 490.111C283.234 488.845 283.163 486.299 282.823 484.138C282.229 480.781 280.619 477.686 278.211 475.271C275.802 472.856 272.712 471.236 269.355 470.631C266.809 470.223 264.038 470.378 261.872 468.979C259.678 467.563 258.673 464.911 256.95 462.95C254.173 459.789 249.801 458.666 245.704 457.703L229.041 453.787C226.083 453.092 222.271 452.723 220.683 455.313C220.213 456.3 219.881 457.346 219.695 458.422C219.1 460.369 217.903 462.078 216.276 463.302C214.649 464.526 212.675 465.203 210.639 465.236C209.242 462.855 206.98 461.105 204.324 460.351C202.634 459.88 200.825 459.828 199.214 459.136C198.336 458.707 197.555 458.105 196.919 457.364C196.282 456.624 195.804 455.761 195.512 454.83C195.221 453.898 195.122 452.916 195.223 451.945C195.324 450.974 195.623 450.034 196.1 449.182C197.06 447.473 197.431 445.494 197.155 443.553C196.879 441.611 195.972 439.814 194.573 438.439C191.739 435.896 187.64 435.282 183.841 435.536C182.846 433.366 184.509 430.917 186.302 429.339C188.096 427.762 190.273 426.211 190.663 423.855C191.277 420.15 186.548 417.336 182.957 418.441C179.366 419.545 177.074 423.032 175.559 426.469C174.69 428.441 173.951 430.518 172.58 432.181C171.208 433.843 169 435.034 166.912 434.5C163.955 433.745 162.813 430.233 162.159 427.253C161.281 423.255 160.397 419.202 160.581 415.113C160.765 411.023 162.144 406.825 165.161 404.057C170.076 399.546 177.616 399.988 184.25 400.707C182.682 398.942 183.07 395.967 184.747 394.306C185.632 393.52 186.695 392.961 187.845 392.679C188.995 392.396 190.197 392.399 191.346 392.685C193.344 393.101 195.145 394.178 196.458 395.741C198.343 398.038 198.879 401.14 200.304 403.748C201.729 406.356 204.932 408.58 207.555 407.181C209.82 405.973 210.179 402.833 209.616 400.329C209.052 397.825 207.854 395.39 208.059 392.832C208.448 387.95 213.51 385.012 217.978 383.001C222.445 380.991 227.56 378.287 228.267 373.441C228.292 372.492 228.471 371.554 228.797 370.663C229.293 369.876 229.981 369.228 230.798 368.782C243.835 360.17 257.089 351.451 271.99 346.745C272.765 346.5 272.856 346.772 273.646 346.581C274.752 345.942 274.019 344.174 272.959 343.463C271.899 342.751 270.482 342.205 270.213 340.957C270.015 340.039 270.556 339.138 270.697 338.21C271.042 335.93 268.313 333.825 266.194 334.737C264.997 333.152 267.365 331.311 269.28 330.784C275.031 329.201 280.934 328.237 286.89 327.908C287.577 327.799 288.281 327.918 288.894 328.249C289.894 328.941 289.766 330.53 289.057 331.519C288.348 332.507 287.246 333.128 286.362 333.964C285.397 334.904 284.709 336.091 284.372 337.395C284.036 338.7 284.064 340.071 284.454 341.361C287.563 342.942 290.943 344.569 294.386 344.012C297.83 343.455 300.886 339.588 299.268 336.499C297.76 333.622 293.233 332.973 292.454 329.821C291.543 326.13 296.77 322.847 295.592 319.232C295.077 317.649 293.498 316.717 292.287 315.573C290.856 314.172 289.883 312.37 289.495 310.406C289.107 308.441 289.323 306.405 290.113 304.565C288.14 304.912 286.113 304.781 284.201 304.183C282.289 303.585 280.548 302.537 279.125 301.128C276.497 298.476 274.4 294.293 270.667 294.412C267.242 294.521 264.292 298.515 261.09 297.297C260.302 296.997 259.471 296.387 258.708 296.744C258.458 296.906 258.248 297.124 258.094 297.379C257.94 297.634 257.846 297.921 257.819 298.218C257.006 302.108 258.406 306.54 256.285 309.901C253.977 313.559 248.639 314.066 245.842 317.364C244.323 319.155 243.735 321.567 242.339 323.455C240.943 325.342 237.98 326.542 236.305 324.897C237.128 323.205 237.353 321.284 236.942 319.448C236.532 317.612 235.511 315.969 234.045 314.788C232.49 313.774 230.814 312.958 229.055 312.362C227.09 311.53 225.221 310.489 223.48 309.255C222.608 308.73 221.899 307.972 221.433 307.066C221.065 305.933 221.114 304.705 221.573 303.604C222.423 301.17 223.921 299.013 225.907 297.368C227.893 295.723 230.291 294.651 232.842 294.268C235.072 293.965 237.668 294.071 239.144 292.373C239.925 291.474 240.335 290.115 241.469 289.749C242.194 289.604 242.947 289.697 243.615 290.014L251.94 292.943C252.869 293.362 253.892 293.531 254.906 293.433C255.409 293.366 255.868 293.11 256.19 292.718C256.513 292.327 256.675 291.827 256.645 291.321C256.379 289.939 254.251 289.276 254.445 287.882C254.553 287.43 254.796 287.022 255.142 286.711C258.146 283.514 261.821 281.021 265.902 279.41C269.983 277.799 274.37 277.11 278.749 277.392C279.799 279.117 278.138 281.16 276.755 282.633C275.372 284.105 274.261 286.737 275.933 287.87C276.618 288.22 277.381 288.392 278.15 288.37C280.199 288.647 282.191 289.251 284.05 290.158C286.927 291.41 289.748 292.779 292.515 294.267C292.271 292.443 292.037 290.522 292.729 288.817C293.42 287.112 295.385 285.775 297.101 286.439C298.755 287.079 299.604 289.268 301.366 289.469C303.717 289.736 304.644 286.265 303.662 284.113C302.68 281.961 300.736 280.16 300.574 277.8C300.465 276.208 301.071 274.234 299.799 273.27C299.346 272.981 298.832 272.801 298.298 272.744L266.538 266.902C264.653 266.555 261.928 266.821 261.844 268.736C261.797 269.805 262.753 270.863 262.329 271.845C261.878 272.894 260.395 272.799 259.314 273.17C257.638 273.745 256.796 275.735 256.957 277.5C257.252 279.253 257.932 280.92 258.947 282.38C256.881 281.516 253.753 281.358 251.687 280.494Z" fill="#3F3D56"/>
<path d="M226.346 253.543C224.344 252.881 222.186 252.85 220.165 253.455C218.144 254.06 216.358 255.271 215.049 256.925C214.526 257.614 214.087 258.563 214.525 259.308C215.153 260.376 216.752 259.954 217.931 259.572C219.664 258.953 221.55 258.908 223.311 259.444C224.418 259.824 225.409 260.495 226.521 260.861C227.062 261.087 227.655 261.162 228.235 261.077C228.816 260.992 229.362 260.751 229.816 260.38C230.579 259.602 230.627 258.392 230.629 257.302C230.682 256.937 230.652 256.566 230.543 256.214C230.434 255.862 230.248 255.539 229.998 255.268C229.553 255.01 229.053 254.862 228.539 254.837C227.388 254.624 226.348 254.016 225.598 253.119" fill="#3F3D56"/>
<path d="M237.798 250.356C237.35 250.331 236.903 250.423 236.5 250.621C236.098 250.819 235.753 251.118 235.499 251.487C235.245 251.857 235.09 252.286 235.05 252.733C235.01 253.18 235.086 253.63 235.27 254.039C236.646 254.414 238.084 254.508 239.497 254.315C240.202 254.205 240.859 253.89 241.385 253.408C241.911 252.926 242.283 252.299 242.453 251.606C240.788 251.909 239.071 251.581 237.636 250.687" fill="#3F3D56"/>
<path d="M276.22 245.033C272.474 245.829 268.835 247.065 265.379 248.714C267.008 249.34 268.393 250.473 269.33 251.946C270.266 253.418 270.705 255.153 270.581 256.893C270.435 257.561 270.452 258.255 270.631 258.915C271.029 259.88 272.183 260.242 273.197 260.49C275.019 261.045 276.922 261.287 278.826 261.208C279.778 261.158 280.703 260.872 281.516 260.375C282.33 259.878 283.006 259.186 283.485 258.362C283.761 257.58 284.085 256.815 284.454 256.072C286.885 252.371 294.109 256.847 296.719 253.269C297.639 252.009 297.555 250.111 298.753 249.113C299.374 248.678 300.092 248.403 300.845 248.315C306.094 247.272 311.397 246.517 316.73 246.053C319.256 245.833 322.549 244.927 322.57 242.391C313.054 240.523 303.187 241.85 294.502 246.166C291.373 247.733 287.235 251.028 284.221 248.951C283.093 248.174 283.149 246.08 281.596 245.205C280.008 244.311 277.906 244.675 276.22 245.033Z" fill="#3F3D56"/>
<path d="M307.342 250.851L311.809 251.709C310.987 251.672 310.166 251.812 309.402 252.117C308.638 252.423 307.948 252.888 307.378 253.482C306.808 254.075 306.371 254.783 306.096 255.559C305.821 256.335 305.715 257.16 305.785 257.98C309.968 259.377 314.529 258.017 318.936 258.203C323.343 258.389 328.47 261.535 327.718 265.88C327.49 267.194 326.731 268.506 327.126 269.78C327.402 270.672 328.19 271.306 328.634 272.128C329.56 273.841 328.82 276.007 327.651 277.564C326.481 279.121 324.909 280.364 323.883 282.019C321.33 286.134 322.78 291.455 324.301 296.053C324.741 297.79 325.553 299.411 326.681 300.804C328.934 303.199 332.606 303.407 335.895 303.455C338.288 303.49 341.03 303.372 342.544 301.518C344.52 299.098 343.138 295.322 344.439 292.481C345.62 289.902 348.631 288.795 351.358 288.01C356.355 286.572 361.447 285.349 366.171 283.177C372.037 280.48 377.519 276.277 383.966 275.93C385.775 275.832 387.629 276.046 389.371 275.55C391.113 275.055 392.768 273.549 392.637 271.743C392.524 270.2 391.218 269.067 390.197 267.904C389.177 266.74 388.376 264.952 389.313 263.721L406.213 260.566C405.015 257.302 404.082 253.004 406.834 250.88C407.827 250.113 409.157 249.807 410.003 248.881C411.444 247.301 410.719 244.581 409.056 243.238C407.392 241.895 405.142 241.583 403.011 241.406C395.601 240.791 388.149 241.197 380.725 241.604C366.212 242.399 351.699 243.195 337.186 243.99C334.264 244.15 330.891 243.905 328.212 244.902C325.943 245.745 324.33 247.294 321.736 247.838C316.947 248.842 311.676 248.163 307.342 250.851Z" fill="#3F3D56"/>
<path d="M387.37 286.149C386.915 286.077 386.45 286.182 386.07 286.443C385.819 286.72 385.67 287.073 385.647 287.446C385.358 289.09 385.702 290.782 386.609 292.183C387.07 292.871 387.708 293.422 388.455 293.78C389.202 294.138 390.031 294.29 390.857 294.219C392.868 293.963 394.351 292.248 396.2 291.41C399.05 290.121 411.154 288.112 402.781 283.59C399.896 282.032 398.031 283.407 395.757 284.434C393.169 285.757 390.27 286.35 387.37 286.149Z" fill="#3F3D56"/>
<path d="M460.707 248.298C459.729 248.697 458.911 249.409 458.381 250.322C458.137 250.785 458.08 251.325 458.223 251.829C458.365 252.334 458.696 252.764 459.147 253.031C459.512 253.163 459.899 253.225 460.288 253.212L464.263 253.33C465.952 253.381 468.061 253.74 468.515 255.367C468.852 256.575 468.098 258.128 469.008 258.991C469.398 259.293 469.868 259.476 470.36 259.518C471.67 259.855 473.037 259.899 474.366 259.647C477.258 258.872 475.738 257.107 476.649 255.536C478.043 253.131 477.802 254.587 480.258 253.209C482.072 252.191 484.416 250.345 482.902 247.751C480.269 243.241 464.592 246.36 460.707 248.298Z" fill="#3F3D56"/>
<path d="M539.17 246.03L536.862 246.338C531.657 247.032 526.422 247.733 521.408 249.296C523.578 250.154 525.855 250.712 528.176 250.956C529.454 251.019 530.723 251.199 531.967 251.495C534.182 252.154 536.413 253.855 538.552 252.984C539.879 252.443 540.312 251.063 541.411 250.331C542.169 249.826 545.047 249.008 545.369 248.498C547.97 244.375 541.17 245.763 539.17 246.03Z" fill="#3F3D56"/>
<path d="M549.307 256.518C546.223 258.242 543.363 260.336 540.788 262.754C539.704 263.774 538.596 265.041 538.694 266.526C538.825 268.499 540.928 269.644 542.75 270.415L550.129 273.538C551.024 272.277 550.205 270.536 549.28 269.296C548.354 268.057 547.255 266.623 547.664 265.131C548.13 263.429 550.206 262.849 551.947 262.556C554.784 262.078 562.436 262.116 561.516 257.546C560.433 252.162 552.154 254.927 549.307 256.518Z" fill="#3F3D56"/>
<path d="M547.823 561.241C547.12 563.275 547.054 565.67 548.269 567.445C549.632 569.437 552.361 570.179 554.722 569.674C557.074 569.049 559.169 567.702 560.714 565.823C562.127 564.249 563.289 562.467 564.161 560.54C565.376 557.536 566.234 554.4 566.715 551.196L569.006 539.17C569.518 536.483 569.498 528.243 564.557 530.928C563.207 531.661 560.081 537.452 558.667 539.094C556.117 542.053 555.78 544.925 554.437 548.51C552.756 553.001 549.377 556.743 547.823 561.241Z" fill="#3F3D56"/>
<path d="M808.814 622.781C807.197 622.15 805.628 621.403 804.119 620.546C802.605 624.705 801.801 629.089 801.739 633.515L812.803 627.256C814.467 626.314 816.354 625.006 816.318 623.095C816.333 622.859 816.284 622.623 816.176 622.412C816.069 622.202 815.906 622.024 815.706 621.898C815.46 621.799 815.192 621.768 814.93 621.807C813.29 621.944 811.794 622.75 810.246 623.312C808.699 623.873 806.889 624.169 805.469 623.337" fill="#3F3D56"/>
<path d="M867.181 626.496C865.966 626.827 864.78 627.252 863.632 627.769C861.093 629.061 859.366 631.514 857.081 633.215C854.895 634.842 852.263 635.736 849.679 636.605C848.919 637.277 849.268 638.629 850.093 639.219C850.98 639.724 851.998 639.952 853.015 639.876C855.7 639.935 858.528 639.961 860.879 638.665C862.204 637.806 863.444 636.822 864.581 635.727C867.33 633.434 870.632 631.922 873.9 630.459C875.089 630.011 876.189 629.353 877.148 628.518C879.201 626.496 879.346 623.376 876.385 622.687C873.992 622.131 869.459 625.76 867.181 626.496Z" fill="#3F3D56"/>
<path d="M892.969 609.657C893.102 608.265 892.917 606.861 892.428 605.552C891.939 604.242 891.158 603.061 890.145 602.097C890.115 604.881 890.03 607.847 888.464 610.15C887.348 611.79 885.598 612.898 884.375 614.461C883.152 616.024 882.609 618.501 884.044 619.872C884.96 620.569 886.077 620.954 887.229 620.969C890.084 621.305 893.389 621.492 895.392 619.43C896.485 618.304 897.017 616.637 898.35 615.81C898.846 615.601 899.29 615.284 899.647 614.881C900.198 614.007 899.323 612.854 898.339 612.539C897.354 612.223 896.269 612.372 895.28 612.072C894.29 611.773 893.383 610.661 893.89 609.76" fill="#3F3D56"/>
<path d="M847.135 507.571C845.637 507.936 844.086 508.027 842.555 507.841C840.013 507.374 838.035 505.459 835.983 503.889C831.104 500.175 825.174 498.104 819.043 497.972C813.467 497.867 807.838 499.378 802.362 498.324C802.719 500.313 804.422 501.805 806.24 502.692C808.057 503.579 810.062 504.026 811.888 504.895C814.812 506.3 817.132 508.712 818.421 511.688C819.009 513.061 819.379 514.554 820.27 515.752C822.09 518.201 825.541 518.739 828.587 518.539C832.558 518.277 836.705 517.136 840.4 518.615C843.226 519.746 845.249 522.219 847.608 524.142C849.968 526.064 853.292 527.491 856.001 526.104C853.187 525.193 850.737 523.407 849.01 521.006C847.283 518.605 846.369 515.715 846.401 512.758C849.059 513.002 856.713 512.907 856.301 508.393C855.951 504.568 849.417 507.159 847.135 507.571Z" fill="#3F3D56"/>
<path d="M812.369 538.697C812.841 536.11 815.422 533.825 814.618 531.321C814.062 529.59 812.054 528.735 810.235 528.692C808.416 528.649 806.629 529.191 804.811 529.242C803.627 529.179 802.441 529.196 801.259 529.293C797.649 529.886 795.424 533.668 792.022 535.013C789.954 535.831 787.63 535.675 785.478 536.24C780.595 537.523 777.505 542.136 774.091 545.856C768.575 551.839 761.389 556.028 753.464 557.881C750.687 558.524 747.702 558.935 745.495 560.738C742.572 563.125 741.853 567.218 741.202 570.934C739.406 581.199 736.66 591.274 733.001 601.031L744.597 602.511C746.802 602.793 749.086 603.068 751.211 602.415C752.754 601.833 754.216 601.055 755.561 600.099C760.725 596.894 766.505 594.808 772.527 593.977C775.564 593.56 778.748 593.484 781.597 594.612C784.447 595.74 786.892 598.299 787.131 601.354C788.363 600.971 789.676 600.929 790.931 601.234C792.185 601.539 793.332 602.179 794.251 603.085C796.067 604.935 797.256 607.307 797.65 609.869C797.956 611.455 798.261 613.355 799.733 614.02C800.934 614.563 802.312 613.978 803.626 613.873C808.084 613.517 811.784 618.713 816.166 617.819C820.866 616.859 822.019 609.823 826.604 608.413C829.238 607.604 832.931 608.588 834.192 606.14C835.304 603.981 833.086 601.491 833.315 599.074C833.596 596.099 837.108 594.836 839.814 593.566C849.146 589.189 853.575 576.633 849.053 567.373C846.373 561.887 841.101 557.568 840.128 551.54C839.379 546.903 841.207 541.495 838.25 537.845C836.745 535.988 834.198 534.963 833.303 532.748C832.739 531.353 832.965 529.771 832.662 528.297C832.359 526.824 831.073 525.283 829.618 525.665C825.393 526.773 824.045 539.819 821.783 542.989C818.345 547.807 811.287 544.634 812.369 538.697Z" fill="#3F3D56"/>
<path d="M734.283 512.501C732.84 512.096 731.263 511.697 729.88 512.276C728.497 512.854 727.689 514.884 728.799 515.892C737.485 515.553 746.223 515.217 754.835 516.397C764.757 517.755 774.576 521.12 784.542 520.13C778.849 518.451 773.062 517.109 767.212 516.11L757.456 514.247C754.839 513.699 752.194 513.291 749.534 513.024C743.968 512.564 739.756 514.034 734.283 512.501Z" fill="#3F3D56"/>
<path d="M742.978 482.261C742.257 482.201 741.364 482.149 740.991 482.769C740.635 483.361 741.043 484.143 740.851 484.807C740.589 485.715 739.401 485.946 738.465 485.823C737.528 485.699 736.516 485.404 735.686 485.855C735.266 486.142 734.949 486.558 734.785 487.04C734.621 487.522 734.618 488.045 734.776 488.529C735.115 489.49 735.663 490.364 736.382 491.088C737.608 492.633 739.006 494.035 740.548 495.266C743.534 497.469 747.578 498.53 749.458 501.728C749.723 502.347 750.131 502.896 750.648 503.329C751.55 503.9 752.727 503.465 753.699 503.022L757.106 501.466C757.719 501.245 758.267 500.872 758.698 500.383C759.476 499.327 758.998 497.827 758.345 496.689C757.692 495.552 756.856 494.375 756.996 493.072C757.246 490.747 760.236 489.858 761.465 487.869C762.704 485.864 761.898 483.281 762.04 480.928C762.208 478.177 763.937 474.599 761.155 472.543C758.79 470.796 756.53 472.41 754.832 474.339C751.252 478.406 749.56 482.811 742.978 482.261Z" fill="#3F3D56"/>
<path d="M763.655 441.155C764.818 443.381 767.243 444.71 768.511 446.878C769.886 449.227 769.729 452.263 771.22 454.541C772.75 456.877 775.829 458.118 776.687 460.776C777.624 463.677 775.498 467.204 777.193 469.739C777.509 470.153 777.907 470.498 778.363 470.75C778.819 471.002 779.323 471.157 779.842 471.205C780.361 471.253 780.884 471.192 781.379 471.027C781.873 470.862 782.328 470.596 782.714 470.246C783.428 469.469 783.81 468.443 783.779 467.388C783.748 466.333 783.306 465.332 782.547 464.598C781.544 463.683 780.103 463.288 779.266 462.22C778.83 461.604 778.539 460.897 778.416 460.152C777.959 458.003 778.032 455.776 778.629 453.662C778.853 453.126 778.91 452.534 778.792 451.965C778.415 450.869 776.931 450.791 775.89 450.283C773.524 449.129 773.581 445.791 773.995 443.192C773.72 444.923 767.554 441.98 766.909 441C765.626 439.053 766.324 435.297 766.07 433.146C763.301 434.479 762.234 438.434 763.655 441.155Z" fill="#3F3D56"/>
<path d="M701.543 475.404C700.405 474.131 698.691 472.799 697.166 473.567C696.002 474.153 695.681 475.763 696.138 476.983C696.693 478.168 697.549 479.188 698.62 479.941C701.799 482.563 705.223 484.928 707.997 487.975C712.96 493.428 715.59 500.786 720.988 505.809C722.073 506.974 723.51 507.751 725.078 508.022C726.651 508.169 728.417 507.162 728.598 505.594C728.747 504.302 727.846 503.145 726.965 502.188C724.868 499.907 722.573 497.809 720.593 495.426C719.678 494.511 719.104 493.311 718.964 492.026C718.954 490.743 720.124 489.4 721.367 489.718C719.855 489.331 718.734 486.813 716.515 486.34C714.66 485.944 714.211 487.092 712.004 486.146C707.794 484.341 704.491 478.704 701.543 475.404Z" fill="#3F3D56"/>
<path d="M800.462 351.407C799.255 351.048 798.067 350.624 796.906 350.136C793.78 349.199 789.644 351.495 790.061 354.731C790.338 356.881 792.339 358.33 793.445 360.195C795.084 362.961 794.647 366.468 793.785 369.565C793.574 370.524 793.172 371.431 792.603 372.231C791.807 373.076 790.856 373.76 789.802 374.245C785.581 376.612 781.858 379.773 778.84 383.555C778.512 383.904 778.283 384.335 778.178 384.802C778.029 385.895 779.127 386.691 779.748 387.602C781.128 389.626 780.131 392.349 780.267 394.795C780.246 395.141 780.314 395.486 780.464 395.798C780.614 396.111 780.841 396.379 781.125 396.579C781.956 397.001 782.941 396.284 783.392 395.468C784.888 392.759 783.761 388.411 786.567 387.105C787.098 386.858 787.741 386.754 788.095 386.288C788.657 385.548 788.115 384.453 788.4 383.57C788.827 382.243 790.643 382.183 792.036 382.242C794.436 382.342 796.835 382.023 799.125 381.299C800.023 381.085 800.839 380.613 801.472 379.94C802.311 378.894 802.236 377.406 802.069 376.075C801.229 369.443 799.127 363.032 795.877 357.189C798.342 357.504 801.023 357.777 803.15 356.492C804.341 355.773 805.769 353.623 805.179 352.16C804.244 349.845 802.557 351.793 800.462 351.407Z" fill="#3F3D56"/>
<path d="M484.485 387.885C484.78 389.466 485.07 391.132 484.551 392.655C484.033 394.177 482.402 395.45 480.862 394.983C479.667 394.621 478.976 393.42 478.127 392.504C473.408 387.41 462.759 390.359 459.844 384.058C458.654 381.486 459.463 378.405 458.651 375.69C458.139 374.121 457.12 372.766 455.754 371.839C454.389 370.912 452.754 370.464 451.106 370.566C449.603 370.783 448.14 371.22 446.764 371.862C437.546 375.552 427.868 377.972 417.997 379.054C416.121 379.169 414.265 379.506 412.47 380.06C408.416 381.529 405.647 385.285 403.676 389.118C401.705 392.951 400.251 397.101 397.608 400.506C394.831 404.085 390.94 406.591 387.31 409.302C385.912 410.203 384.748 411.423 383.913 412.862C383.126 414.477 383.17 416.355 383.231 418.15L383.973 439.956C384.069 442.761 384.189 445.666 385.444 448.176C387.012 451.31 390.11 453.363 392.259 456.132C394.452 458.977 395.595 462.492 395.493 466.083C395.447 467.527 395.304 469.234 396.428 470.141C397.113 470.584 397.913 470.814 398.728 470.802L428.235 473.216C433.426 473.641 439.178 474.339 442.566 478.292C444.166 480.158 445.451 482.841 447.9 483.041C448.951 483.127 449.973 482.695 451.024 482.612C453.676 482.402 456.005 484.414 457.475 486.63C459.7 490.007 460.71 494.041 460.339 498.068C460.098 500.596 459.314 503.053 459.145 505.587C458.502 515.227 466.677 523.603 466.836 533.263C466.929 538.946 464.231 544.255 461.6 549.293C465.846 555.723 462.369 564.286 464.059 571.803C465.663 578.935 471.612 584.518 473.094 591.677C473.772 594.954 473.812 598.986 476.702 600.674C477.971 601.292 479.377 601.573 480.785 601.491C489.282 601.592 497.682 599.68 505.298 595.913C508.872 594.14 512.576 591.493 513.2 587.553C513.704 584.376 512.092 580.822 513.732 578.054C515.665 574.793 520.618 575.051 523.462 572.544C528.077 568.475 524.478 560.716 526.348 554.857C528.029 549.59 533.814 546.791 536.681 542.064C537.81 540.031 538.619 537.837 539.082 535.558C540.396 530.112 541.214 524.559 541.526 518.966C541.602 515.567 541.853 512.175 542.276 508.802C545.368 489.601 564.357 476.743 570.523 458.297C571.111 456.535 571.388 454.189 569.82 453.192C568.89 452.749 567.836 452.638 566.834 452.88L553.233 454.594C551.543 454.807 549.752 455.006 548.201 454.304C546.649 453.603 545.537 451.641 546.36 450.151C548.67 445.967 543.918 440.681 541.807 436.394C536.121 424.851 529.35 413.874 521.586 403.612C521.089 403.084 520.778 402.408 520.699 401.687L524.56 401.816C523.257 397.142 521.106 392.026 516.563 390.316C514.003 389.353 511.169 389.686 508.437 389.835C500.614 390.263 492.227 389.082 484.485 387.885Z" fill="#3F3D56"/>
<path d="M508.444 282.547C510.491 284.72 512.785 287.024 515.747 287.403C520.978 288.072 524.739 282.664 527.134 277.966C527.223 279.164 527.775 280.28 528.674 281.076C529.573 281.873 530.747 282.288 531.947 282.232C533.239 282.015 534.471 281.533 535.567 280.817C545.933 275.155 557.543 272.155 569.354 272.086C569.241 271.192 569.463 270.287 569.977 269.546C570.492 268.806 571.263 268.282 572.141 268.076C574.542 267.6 576.706 269.676 577.864 271.832C579.023 273.988 579.745 276.487 581.586 278.101C583.426 279.715 586.99 279.645 587.717 277.308C588.415 275.064 586.077 273.15 584.134 271.828C582.191 270.505 580.144 268.057 581.452 266.104C591.376 263.908 601.362 261.704 611.518 261.267C613.247 261.327 614.97 261.031 616.579 260.396C618.128 259.636 619.358 257.911 618.942 256.238C616.726 256.759 614.405 256.608 612.275 255.805C610.145 255.002 608.302 253.582 606.982 251.728C621.073 250.566 636.061 249.575 648.549 256.203C650.048 259.419 642.41 262.095 644.453 264.996C645.105 265.921 646.411 266.029 647.543 266.05C656.221 266.211 664.949 266.369 673.529 265.059C676.665 264.581 679.832 263.905 682.98 264.293C688.223 264.94 692.708 268.437 697.867 269.577C699.966 270.042 702.32 270.057 704.09 268.836C705.86 267.616 706.621 264.836 705.171 263.249C710.028 258.49 718.089 259.67 724.496 261.948C730.904 264.226 736.974 267.9 743.756 268.408C748.619 268.772 753.55 267.464 758.355 268.296C761.375 268.818 764.185 270.161 767.137 270.986C772.719 272.546 778.624 272.217 784.419 272.292C799.207 272.491 813.833 275.397 827.573 280.864C829.36 281.446 830.998 282.413 832.37 283.698C833.649 285.066 834.301 287.193 833.442 288.857L819.243 286.783C820.581 289.416 824.042 289.864 826.852 290.772C829.663 291.681 832.577 294.783 830.888 297.206C827.843 296.236 825.083 299.28 823.545 302.08C822.007 304.881 820.132 308.235 816.941 308.405C814.083 308.558 810.627 306.125 808.764 308.297C811.337 311.543 813.541 315.065 815.334 318.798C817.174 322.63 818.485 327.46 815.998 330.908C815.607 331.524 815.013 331.984 814.319 332.209C812.288 332.723 810.968 330.239 809.511 328.733C807.675 326.836 804.899 326.299 802.413 325.409C799.927 324.519 797.308 322.768 797.114 320.136C796.993 318.498 797.858 316.975 798.495 315.461C799.566 312.91 800.034 310.146 799.864 307.384C799.724 305.162 799.101 302.851 797.505 301.298C795.908 299.746 793.153 299.254 791.439 300.675C790.639 301.339 789.999 302.4 788.96 302.44C787.125 302.51 785.717 299.312 784.241 300.404C784.414 301.567 784.173 302.754 783.559 303.757C779.154 307.587 772.388 305.966 766.709 307.319C764.009 308.092 761.423 309.22 759.021 310.675C758.123 311.06 757.358 311.701 756.824 312.519C756.115 313.896 756.897 315.66 758.146 316.575C759.471 317.388 760.96 317.896 762.505 318.063C769.428 319.374 776.452 321.403 781.918 325.848C787.383 330.293 790.968 337.641 789.238 344.469L775.586 331.428C776.104 336.904 776.398 342.394 776.468 347.9C776.557 348.975 776.409 350.056 776.036 351.068C775.062 353.217 772.425 353.94 770.113 354.415C769.47 354.537 768.86 354.794 768.324 355.168C767.787 355.543 767.336 356.026 766.999 356.587C766.663 357.149 766.449 357.775 766.372 358.424C766.295 359.074 766.356 359.732 766.552 360.357C767.373 363.033 769.421 365.119 771.296 367.198C773.171 369.277 775.016 371.64 775.261 374.428C775.507 377.216 773.402 380.359 770.609 380.166C768.491 380.019 766.92 378.124 766.017 376.203C765.114 374.283 764.577 372.144 763.219 370.512C759.112 365.574 749.885 367.69 746.206 362.425C745.268 363.488 744.617 364.774 744.316 366.16C744.015 367.545 744.073 368.985 744.485 370.342C746.197 369.27 748.54 370.266 749.826 371.822C751.113 373.379 751.719 375.375 752.73 377.123C754.093 379.482 756.262 381.574 756.452 384.292C756.401 385.319 756.419 386.349 756.504 387.375C756.842 389.021 758.234 390.204 759.199 391.58C761.446 394.783 761.335 399.183 759.887 402.817C758.439 406.451 755.838 409.487 753.262 412.431C748.762 417.573 744.17 422.685 738.835 426.955C737.313 428.173 735.688 429.371 734.74 431.075C733.792 432.778 733.743 435.17 735.2 436.465C734.158 436.518 732.288 437.03 731.246 437.082C730.879 432.902 730.8 428.701 731.007 424.51C726.894 422.535 722.464 427.823 722.995 432.354C723.526 436.886 726.804 440.522 729.138 444.442C730.845 447.308 732.114 450.651 731.544 453.938C730.974 457.225 728.039 460.257 724.714 459.968C719.426 459.506 717.214 451.917 711.977 451.049C711.516 450.941 711.031 450.989 710.599 451.186C709.822 451.612 709.687 452.652 709.643 453.537C709.429 457.882 709.243 462.4 710.94 466.407C713.423 472.267 719.835 477.19 718.49 483.411C711.244 480.043 707.476 471.919 705.765 464.116C704.054 456.313 703.769 448.121 700.703 440.744C698.374 443.727 693.48 441.261 691.353 438.131C689.336 435.164 688.094 431.731 686.137 428.724C684.18 425.717 681.182 423.024 677.597 422.859C673.839 422.685 670.579 425.264 667.712 427.7C665.355 429.703 662.935 431.785 661.557 434.555C659.552 438.584 660.076 443.335 659.98 447.835C659.875 452.7 658.844 457.832 655.527 461.394C652.21 464.955 646.089 466.195 642.43 462.986C640.52 461.31 639.596 458.806 638.772 456.403C634.801 444.819 631.495 433.019 628.868 421.059C628.253 423.788 625.855 427.307 623.565 425.699C623.051 425.266 622.634 424.73 622.343 424.125C618.07 416.886 610.157 412.543 602.162 409.94C594.167 407.336 585.755 406.121 577.849 403.26C573.418 401.656 569.186 399.548 565.236 396.98C564.23 398.458 563.642 400.182 563.535 401.968C563.428 403.753 563.807 405.535 564.63 407.123C566.384 410.227 570.353 412.023 573.75 410.938C575.506 410.377 576.988 409.159 578.73 408.557C580.472 407.956 582.81 408.251 583.572 409.929C584.301 411.535 583.199 413.477 583.746 415.154C584.578 417.708 588.431 417.904 589.778 420.228C590.781 421.957 589.956 424.253 588.525 425.648C587.093 427.044 585.184 427.809 583.437 428.78C577.768 431.931 573.737 437.311 568.782 441.496C563.828 445.681 556.838 448.737 550.934 446.052C552.341 438.928 543.852 433.698 542.29 426.606C541.776 424.271 542.043 421.792 541.309 419.517C540.247 416.223 537.324 413.959 534.926 411.463C532.017 408.403 529.751 404.791 528.262 400.842C526.772 396.892 526.089 392.684 526.253 388.466C526.382 385.535 526.921 382.556 526.253 379.7C525.585 376.843 523.219 374.078 520.287 374.207C513.59 374.503 505.154 375.001 501.641 369.294C500.387 367.257 499.841 364.274 501.654 362.714C502.933 361.613 504.821 361.717 506.5 361.882L521.589 363.366C525.118 363.713 528.933 363.999 531.961 362.155C534.989 360.31 536.301 355.415 533.497 353.245C531.449 351.66 527.778 351.746 527.182 349.225C526.686 347.126 529.011 344.744 527.755 342.989C526.855 341.731 524.831 342.08 523.605 343.023C522.378 343.966 521.489 345.345 520.116 346.059C517.709 347.312 514.832 346.12 512.241 345.31C509.651 344.5 506.178 344.431 504.922 346.836C503.517 349.526 506.168 353.05 504.774 355.745C502.93 359.309 496.686 357.28 494.097 360.345C491.126 363.862 496.119 369.107 495.117 373.6C493.838 374.234 492.416 374.525 490.991 374.445C489.565 374.364 488.185 373.916 486.985 373.144C485.804 372.341 484.864 371.234 484.263 369.939C483.661 368.644 483.423 367.211 483.571 365.792C483.82 363.77 484.874 361.707 484.167 359.797C483.596 358.253 482.045 357.333 480.603 356.537L465.941 348.437C464.58 350.962 466.301 354.091 468.453 355.987C470.605 357.884 473.301 359.312 474.715 361.807C475.61 363.536 475.81 365.541 475.276 367.413C474.741 369.284 473.512 370.882 471.84 371.878C471.63 372.023 471.392 372.12 471.141 372.164C470.89 372.208 470.633 372.197 470.386 372.131C470.152 371.994 469.949 371.811 469.787 371.593C469.625 371.376 469.508 371.128 469.444 370.864C466.857 364.246 462.972 357.721 456.763 354.263C450.553 350.806 441.629 351.517 437.557 357.341C436.59 358.724 435.941 360.301 435.098 361.764C430.622 369.534 421.025 373.213 412.058 372.973C411.181 373.021 410.308 372.816 409.545 372.382C408.095 371.382 408.161 369.259 408.383 367.512L409.324 360.1C409.513 358.612 409.787 356.967 410.965 356.038C412.626 354.728 415.022 355.555 417.138 355.524C418.74 355.449 420.281 354.883 421.551 353.904C422.821 352.924 423.759 351.577 424.238 350.046C424.666 348.5 424.663 346.867 424.23 345.323C423.798 343.778 422.952 342.381 421.784 341.282C420.814 340.372 419.513 339.228 420.025 338.001C420.229 337.661 420.506 337.371 420.834 337.15C421.163 336.928 421.536 336.782 421.928 336.72C425.728 335.617 429.743 335.328 433.479 334.026C437.215 332.725 440.839 330.062 441.724 326.207C441.995 325.025 442.118 323.594 443.18 323.008C443.713 322.783 444.285 322.667 444.863 322.665C446.889 322.377 448.733 321.341 450.033 319.761C451.333 318.182 451.994 316.173 451.887 314.131C453.678 312.88 456.187 313.8 457.919 315.13C459.651 316.461 461.181 318.218 463.289 318.792C467.217 319.86 471.013 316.384 475.084 316.368C476.796 316.361 478.568 316.966 480.179 316.386C481.812 315.797 482.787 314.173 484.04 312.972C485.293 311.772 487.492 311.04 488.649 312.333L487.664 305.037C489.648 305.538 491.717 305.609 493.731 305.245C495.745 304.881 497.658 304.09 499.341 302.926L486.606 298.625C486.163 298.514 485.754 298.295 485.415 297.988C484.489 296.991 485.409 295.438 486.162 294.305C487.963 291.595 488.265 287.131 485.303 285.782C483.282 284.861 480.961 285.966 479.021 287.048L469.726 292.229C469.431 293.995 471.591 294.996 472.93 296.185C473.74 296.905 474.313 297.853 474.575 298.905C474.836 299.956 474.773 301.062 474.394 302.077C474.015 303.092 473.338 303.969 472.451 304.592C471.565 305.215 470.51 305.556 469.427 305.569C470.039 306.365 470.464 307.288 470.671 308.27C470.878 309.252 470.861 310.268 470.622 311.242L464.368 311.692C463.666 311.833 462.937 311.691 462.34 311.296C461.671 310.702 461.762 309.662 461.607 308.781C461.232 306.655 459.15 305.165 457.025 304.783C454.9 304.401 452.726 304.891 450.622 305.374C449.728 305.696 448.747 305.673 447.869 305.311C447.366 304.984 446.984 304.502 446.78 303.937C445.858 301.701 446.72 299.073 448.202 297.16C449.684 295.248 451.712 293.85 453.534 292.258C457.89 288.437 461.091 283.474 462.774 277.931C466.217 276.489 469.781 274.529 473.224 273.087C478.532 270.401 484.484 269.248 490.411 269.759L502.07 269.981C505.522 270.047 509.068 270.132 512.259 271.447C515.451 272.763 518.256 275.608 518.476 279.052C518.543 279.442 518.509 279.843 518.378 280.216C518.248 280.589 518.024 280.923 517.729 281.187C517.278 281.433 516.767 281.548 516.255 281.519C513.035 281.632 511.663 282.434 508.444 282.547Z" fill="#3F3D56"/>
<path d="M415.512 319.075C415.968 318.644 416.296 318.095 416.46 317.49C416.624 316.885 416.618 316.247 416.443 315.645C415.334 315.217 414.128 315.107 412.961 315.328C411.793 315.548 410.711 316.09 409.835 316.892C409.144 317.59 408.549 318.377 408.064 319.232C406.532 321.73 405.177 324.715 406.065 327.508C406.137 327.813 406.27 328.1 406.455 328.352C406.64 328.605 406.873 328.818 407.141 328.98C407.539 329.139 407.968 329.207 408.396 329.176C410.084 329.174 411.77 329.07 413.445 328.865C414.474 328.74 415.669 328.449 416.067 327.492C416.589 326.235 415.324 324.811 415.693 323.5C415.936 322.914 416.303 322.387 416.77 321.958C417.002 321.741 417.18 321.474 417.29 321.177C417.401 320.88 417.44 320.561 417.406 320.246C417.257 319.631 416.315 319.282 415.975 319.816" fill="#3F3D56"/>
<path d="M424.264 307.732C422.765 307.388 421.219 307.291 419.689 307.445C419.35 307.435 419.015 307.511 418.714 307.666C418.422 307.881 418.211 308.187 418.113 308.536C417.79 309.573 417.869 310.694 418.335 311.675C418.802 312.657 419.621 313.426 420.629 313.831C421.179 313.958 421.706 314.169 422.19 314.458C423.484 315.462 422.659 317.513 422.904 319.132C423.179 320.95 424.939 322.476 424.617 324.286C424.362 325.712 422.839 326.841 423.084 328.269C423.341 329.764 425.239 330.214 426.752 330.333C427.629 330.487 428.531 330.383 429.35 330.036C430.172 329.474 430.756 328.629 430.99 327.662C431.609 325.819 431.87 323.874 431.757 321.934C431.75 321.051 431.528 320.183 431.111 319.405C430.655 318.789 430.15 318.211 429.6 317.677C426.702 314.306 429.754 309.279 424.264 307.732Z" fill="#3F3D56"/>
<path opacity="0.8" d="M805.422 571.765C805.422 571.765 583.42 444.375 487.844 468.512C487.844 468.512 285.292 490.302 261.818 538.241C261.818 538.241 197.43 337.099 173.956 330.394" stroke="#BA2626" stroke-width="2" stroke-miterlimit="10"/>
<path opacity="0.8" d="M261.818 538.241C299.042 439.011 634.393 329.053 634.393 329.053C586.773 341.122 487.844 468.512 487.844 468.512C487.844 468.512 278.585 316.314 173.955 330.394C173.955 330.394 634.728 345.48 805.422 571.765" stroke="#BA2626" stroke-width="2" stroke-miterlimit="10"/>
<path d="M173.956 340.116C179.327 340.116 183.681 335.763 183.681 330.394C183.681 325.025 179.327 320.672 173.956 320.672C168.584 320.672 164.23 325.025 164.23 330.394C164.23 335.763 168.584 340.116 173.956 340.116Z" fill="#BA2626"/>
<path d="M261.818 547.963C267.189 547.963 271.543 543.61 271.543 538.241C271.543 532.872 267.189 528.519 261.818 528.519C256.446 528.519 252.092 532.872 252.092 538.241C252.092 543.61 256.446 547.963 261.818 547.963Z" fill="#BA2626"/>
<path d="M634.393 338.775C639.764 338.775 644.118 334.422 644.118 329.053C644.118 323.684 639.764 319.331 634.393 319.331C629.022 319.331 624.668 323.684 624.668 329.053C624.668 334.422 629.022 338.775 634.393 338.775Z" fill="#BA2626"/>
<path d="M805.422 581.487C810.793 581.487 815.147 577.134 815.147 571.765C815.147 566.396 810.793 562.043 805.422 562.043C800.051 562.043 795.697 566.396 795.697 571.765C795.697 577.134 800.051 581.487 805.422 581.487Z" fill="#BA2626"/>
<path d="M487.844 478.234C493.216 478.234 497.57 473.881 497.57 468.512C497.57 463.143 493.216 458.79 487.844 458.79C482.473 458.79 478.119 463.143 478.119 468.512C478.119 473.881 482.473 478.234 487.844 478.234Z" fill="#BA2626"/>
</g>
<g clip-path="url(#clip1)">
<path d="M953.503 200.008C948.262 201.823 939.055 203.315 928.401 204.515C899.43 207.783 859.73 208.943 859.73 208.943C859.73 208.943 655.642 224.851 502.683 165.685C502.683 165.685 480.434 154.723 501.073 139.969C504.251 137.764 507.63 135.827 511.17 134.18L511.422 133.943C513.77 131.904 516.307 130.067 519.003 128.452C526.927 123.637 540.307 117.929 556.595 120.516L958.332 181.583C958.332 181.583 973.005 193.236 953.503 200.008Z" fill="#302E3F"/>
<path d="M873.458 172.33L957.559 116.25L994.625 122.276L958.332 181.583C958.332 181.583 874.424 182.213 873.458 172.33Z" fill="#302E3F"/>
<path d="M661.726 138.26L829.246 94.1043L856.248 99.4088L780.575 131.402L756.927 156.271L661.726 138.26Z" fill="#302E3F"/>
<path d="M901.474 203.305L976.369 232.046L995.183 230.085L950.386 198.439C950.386 198.439 896.2 187.573 901.474 203.305Z" fill="#302E3F"/>
<path d="M868.55 302.654L820.464 305.018L685.267 219.34L660.17 203.431L647.981 195.701C670.852 177.549 764.164 202.584 764.164 202.584C765.951 204.001 766.519 206.356 766.439 208.958C766.283 213.829 763.848 219.546 762.909 221.604C762.683 222.108 762.544 222.375 762.544 222.375L868.55 302.654Z" fill="#302E3F"/>
<path d="M888.139 183.24L889.776 176.902L896.878 177.9L896.583 179.997L891.544 179.289L890.848 181.969C891.49 181.734 892.148 181.664 892.821 181.759C894.028 181.928 894.921 182.435 895.5 183.28C896.08 184.125 896.275 185.22 896.086 186.566C895.971 187.385 895.694 188.094 895.254 188.695C894.821 189.291 894.258 189.724 893.563 189.993C892.869 190.256 892.084 190.326 891.208 190.203C890.442 190.096 889.753 189.842 889.14 189.442C888.529 189.037 888.071 188.526 887.767 187.909C887.469 187.293 887.359 186.624 887.437 185.901L889.926 186.251C889.904 186.786 890.029 187.224 890.301 187.564C890.579 187.899 890.974 188.102 891.484 188.174C892.053 188.254 892.52 188.112 892.884 187.75C893.25 187.381 893.485 186.822 893.59 186.074C893.691 185.354 893.592 184.778 893.292 184.345C892.991 183.913 892.516 183.651 891.867 183.559C891.269 183.475 890.762 183.564 890.347 183.825L890.072 184.017L888.139 183.24ZM902.741 187.147L897.841 186.458L898.126 184.43L903.026 185.119L902.741 187.147ZM915.565 187.28C915.389 188.528 915.015 189.591 914.442 190.469C913.869 191.347 913.135 191.983 912.239 192.378C911.349 192.774 910.373 192.897 909.311 192.747C908.261 192.6 907.36 192.216 906.607 191.595C905.854 190.975 905.316 190.165 904.995 189.168C904.675 188.164 904.597 187.053 904.763 185.833L904.851 185.207C905.026 183.959 905.403 182.894 905.983 182.011C906.569 181.123 907.307 180.484 908.196 180.094C909.092 179.699 910.068 179.576 911.124 179.725C912.18 179.873 913.081 180.26 913.827 180.886C914.58 181.506 915.113 182.324 915.427 183.338C915.746 184.347 915.819 185.473 915.644 186.715L915.565 187.28ZM913 186.334C913.186 185.005 913.09 183.962 912.712 183.205C912.333 182.448 911.702 182.007 910.821 181.883C909.944 181.76 909.22 182.007 908.648 182.625C908.077 183.237 907.696 184.201 907.505 185.518L907.418 186.135C907.236 187.429 907.333 188.467 907.709 189.247C908.084 190.028 908.719 190.481 909.612 190.606C910.488 190.73 911.21 190.482 911.776 189.863C912.343 189.239 912.722 188.268 912.913 186.952L913 186.334ZM927.153 190.773C926.863 192.123 926.207 193.125 925.186 193.78C924.171 194.437 922.921 194.66 921.435 194.451C919.811 194.223 918.608 193.498 917.827 192.276C917.053 191.049 916.8 189.481 917.068 187.572L917.177 186.797C917.348 185.578 917.714 184.535 918.274 183.667C918.833 182.799 919.546 182.174 920.41 181.793C921.281 181.406 922.244 181.287 923.3 181.436C924.762 181.641 925.885 182.199 926.669 183.107C927.452 184.016 927.814 185.188 927.754 186.624L925.143 186.257C925.194 185.43 925.048 184.806 924.705 184.385C924.369 183.959 923.8 183.689 922.999 183.577C922.129 183.455 921.432 183.676 920.909 184.242C920.392 184.802 920.036 185.737 919.84 187.047L919.705 188.004C919.513 189.374 919.578 190.404 919.901 191.094C920.23 191.785 920.841 192.193 921.735 192.319C922.542 192.432 923.168 192.334 923.614 192.024C924.066 191.709 924.376 191.17 924.542 190.406L927.153 190.773ZM939.036 185.982L935.155 185.436L933.671 195.993L931.06 195.627L932.544 185.069L928.714 184.531L929.011 182.416L939.334 183.867L939.036 185.982Z" fill="white"/>
<g filter="url(#filter0_d)">
<path d="M710.188 258.231L701.845 263.193L706.899 254.555C705.468 253.482 703.697 252.888 701.867 252.866H701.732C701.154 252.877 700.575 252.836 700.005 252.745L697.183 254.429L698.39 252.362C696.391 251.702 694.664 250.467 693.454 248.832L688.406 251.858L691.593 246.402C688.642 243.069 684.661 241.027 680.278 241.027C675.026 241.027 670.348 243.961 667.327 248.54C666.431 249.911 665.165 251.034 663.657 251.796C662.15 252.558 660.454 252.93 658.743 252.876H658.464C652.665 252.876 647.965 259.053 647.965 266.677C647.965 274.301 652.665 280.478 658.464 280.478C659.739 280.474 660.993 280.178 662.118 279.615C664.092 278.715 666.251 278.228 668.445 278.188C670.64 278.148 672.817 278.556 674.827 279.383C676.527 280.096 678.368 280.465 680.23 280.465C682.091 280.465 683.932 280.096 685.632 279.383C687.626 278.571 689.782 278.171 691.954 278.21C694.127 278.25 696.265 278.727 698.224 279.61C699.342 280.159 700.584 280.447 701.845 280.452C707.645 280.452 712.344 274.276 712.344 266.652C712.386 263.719 711.644 260.824 710.188 258.231Z" fill="white"/>
<path d="M945.708 251.676L937.366 256.638L942.419 248C940.988 246.927 939.218 246.333 937.387 246.311H937.253C936.674 246.322 936.096 246.281 935.525 246.19L932.703 247.874L933.911 245.807C931.911 245.147 930.184 243.912 928.975 242.277L923.926 245.303L927.113 239.847C924.162 236.514 920.182 234.472 915.799 234.472C910.546 234.472 905.868 237.406 902.848 241.985C901.952 243.356 900.686 244.479 899.178 245.241C897.67 246.003 895.975 246.375 894.264 246.321H893.985C888.185 246.321 883.486 252.498 883.486 260.122C883.486 267.746 888.185 273.923 893.985 273.923C895.259 273.919 896.513 273.623 897.638 273.06C899.613 272.16 901.772 271.673 903.966 271.633C906.16 271.593 908.338 272.001 910.348 272.828C912.048 273.541 913.889 273.91 915.75 273.91C917.612 273.91 919.453 273.541 921.153 272.828C923.146 272.016 925.302 271.616 927.475 271.655C929.647 271.695 931.785 272.172 933.744 273.055C934.862 273.604 936.104 273.893 937.366 273.897C943.165 273.897 947.865 267.721 947.865 260.097C947.906 257.164 947.165 254.269 945.708 251.676Z" fill="white"/>
<path d="M945.708 86.2888L937.366 91.2504L942.419 82.613C940.988 81.5398 939.218 80.9455 937.387 80.9238H937.253C936.674 80.9344 936.096 80.8939 935.525 80.8028L932.703 82.4869L933.911 80.4195C931.911 79.76 930.184 78.525 928.975 76.8899L923.926 79.9153L927.113 74.4596C924.162 71.1266 920.182 69.0845 915.799 69.0845C910.546 69.0845 905.868 72.0191 902.848 76.5975C901.952 77.9685 900.686 79.0921 899.178 79.8538C897.67 80.6155 895.974 80.9882 894.264 80.9339H893.985C888.185 80.9339 883.486 87.1107 883.486 94.7346C883.486 102.359 888.185 108.535 893.985 108.535C895.259 108.532 896.513 108.236 897.638 107.673C899.613 106.773 901.772 106.286 903.966 106.246C906.16 106.206 908.337 106.614 910.348 107.441C912.046 108.158 913.886 108.531 915.747 108.535C917.609 108.54 919.451 108.176 921.153 107.466C923.146 106.654 925.302 106.254 927.475 106.293C929.647 106.333 931.785 106.81 933.744 107.693C934.862 108.242 936.104 108.531 937.366 108.535C943.165 108.535 947.865 102.359 947.865 94.7346C947.911 91.7939 947.169 88.8895 945.708 86.2888Z" fill="white"/>
<path d="M601.269 68.4441L597.111 70.9198L599.632 66.6137C598.92 66.0754 598.036 65.7772 597.122 65.7666H597.057C596.768 65.7694 596.479 65.7492 596.194 65.7061L594.788 66.5431L595.389 65.5347C594.391 65.2063 593.53 64.5904 592.926 63.7749L590.41 65.2876L592.02 62.5698C591.35 61.7563 590.496 61.0934 589.52 60.6293C588.544 60.1653 587.47 59.9118 586.376 59.8873C583.758 59.8873 581.424 61.3496 579.938 63.6337C579.491 64.3194 578.857 64.881 578.103 65.2611C577.349 65.6412 576.501 65.8261 575.646 65.7969H575.506C572.615 65.7969 570.27 68.8828 570.27 72.6846C570.27 76.4865 572.615 79.5674 575.506 79.5674C576.142 79.5654 576.768 79.4184 577.33 79.1388C578.315 78.6882 579.392 78.4445 580.488 78.4245C581.583 78.4044 582.669 78.6086 583.672 79.0228C584.516 79.3756 585.43 79.5579 586.354 79.5579C587.278 79.5579 588.192 79.3756 589.037 79.0228C590.031 78.6173 591.107 78.4177 592.191 78.4377C593.275 78.4577 594.342 78.6968 595.319 79.1388C595.876 79.4099 596.494 79.5533 597.122 79.5573C600.013 79.5573 602.358 76.4765 602.358 72.6746C602.378 71.2009 602.004 69.746 601.269 68.4441Z" fill="white"/>
<path d="M971.449 315.012L967.291 317.488L969.813 313.182C969.1 312.644 968.216 312.345 967.302 312.335H967.238C966.948 312.338 966.659 312.317 966.374 312.274L964.968 313.111L965.569 312.103C964.572 311.774 963.71 311.159 963.107 310.343L960.59 311.856L962.2 309.138C961.531 308.324 960.677 307.662 959.7 307.197C958.724 306.733 957.65 306.48 956.556 306.455C953.938 306.455 951.604 307.918 950.118 310.202C949.671 310.888 949.038 311.449 948.283 311.829C947.529 312.209 946.681 312.394 945.826 312.365H945.687C942.795 312.365 940.45 315.451 940.45 319.253C940.45 323.055 942.795 326.136 945.687 326.136C946.323 326.134 946.949 325.987 947.511 325.707C948.495 325.256 949.573 325.013 950.668 324.993C951.763 324.973 952.849 325.177 953.852 325.591C954.697 325.944 955.61 326.126 956.535 326.126C957.459 326.126 958.372 325.944 959.217 325.591C960.212 325.185 961.288 324.986 962.372 325.006C963.456 325.026 964.522 325.265 965.499 325.707C966.057 325.978 966.674 326.121 967.302 326.125C970.194 326.125 972.538 323.045 972.538 319.243C972.558 317.769 972.184 316.314 971.449 315.012Z" fill="white"/>
<path d="M777.249 17.2093L768.907 22.171L773.961 13.5335C772.529 12.4604 770.759 11.866 768.928 11.8443H768.794C768.215 11.855 767.637 11.8145 767.067 11.7233L764.245 13.4075L765.452 11.3401C763.453 10.6806 761.725 9.44553 760.516 7.8105L755.468 10.8359L758.654 5.38012C755.704 2.04717 751.723 0.0050354 747.34 0.0050354C742.087 0.0050354 737.409 2.93965 734.389 7.51805C733.493 8.8891 732.227 10.0126 730.719 10.7744C729.211 11.5361 727.516 11.9087 725.805 11.8544H725.526C719.726 11.8544 715.027 18.0312 715.027 25.6552C715.027 33.2791 719.726 39.4559 725.526 39.4559C726.8 39.4521 728.054 39.1562 729.179 38.5937C731.154 37.6934 733.313 37.2064 735.507 37.1664C737.701 37.1263 739.879 37.5342 741.889 38.3618C743.587 39.0788 745.427 39.4516 747.289 39.4559C749.15 39.4603 750.992 39.0961 752.694 38.387C754.688 37.5749 756.844 37.1749 759.016 37.214C761.188 37.2532 763.326 37.7306 765.285 38.6139C766.404 39.1623 767.645 39.4511 768.907 39.4559C774.706 39.4559 779.406 33.2791 779.406 25.6552C779.452 22.7144 778.71 19.81 777.249 17.2093Z" fill="white"/>
<path d="M1061.58 103.74L1057.42 106.216L1059.94 101.91C1059.23 101.371 1058.35 101.073 1057.43 101.063H1057.37C1057.08 101.065 1056.79 101.045 1056.5 101.002L1055.1 101.839L1055.7 100.831C1054.7 100.502 1053.84 99.8865 1053.24 99.071L1050.72 100.584L1052.33 97.8659C1051.66 97.0524 1050.81 96.3894 1049.83 95.9254C1048.85 95.4613 1047.78 95.2078 1046.69 95.1834C1044.07 95.1834 1041.73 96.6456 1040.25 98.9298C1039.8 99.6155 1039.17 100.177 1038.41 100.557C1037.66 100.937 1036.81 101.122 1035.96 101.093H1035.82C1032.93 101.093 1030.58 104.179 1030.58 107.981C1030.58 111.783 1032.93 114.863 1035.82 114.863C1036.45 114.862 1037.08 114.714 1037.64 114.435C1038.63 113.984 1039.7 113.741 1040.8 113.721C1041.89 113.7 1042.98 113.905 1043.98 114.319C1044.83 114.672 1045.74 114.854 1046.67 114.854C1047.59 114.854 1048.5 114.672 1049.35 114.319C1050.34 113.913 1051.42 113.714 1052.5 113.734C1053.59 113.754 1054.65 113.993 1055.63 114.435C1056.19 114.706 1056.81 114.849 1057.43 114.853C1060.32 114.853 1062.67 111.773 1062.67 107.971C1062.69 106.497 1062.31 105.042 1061.58 103.74Z" fill="white"/>
<path d="M585.174 328.122L581.016 330.598L583.538 326.292C582.825 325.754 581.941 325.455 581.027 325.445H580.962C580.673 325.448 580.384 325.427 580.099 325.384L578.693 326.221L579.294 325.213C578.297 324.884 577.435 324.269 576.832 323.453L574.315 324.966L575.925 322.248C575.256 321.434 574.402 320.771 573.425 320.307C572.449 319.843 571.375 319.59 570.281 319.565C567.663 319.565 565.329 321.028 563.843 323.312C563.396 323.998 562.763 324.559 562.008 324.939C561.254 325.319 560.406 325.504 559.551 325.475H559.412C556.52 325.475 554.175 328.561 554.175 332.363C554.175 336.165 556.52 339.245 559.412 339.245C560.048 339.244 560.674 339.096 561.236 338.817C562.22 338.366 563.298 338.123 564.393 338.103C565.488 338.083 566.574 338.287 567.577 338.701C568.421 339.054 569.335 339.236 570.259 339.236C571.184 339.236 572.097 339.054 572.942 338.701C573.937 338.295 575.013 338.096 576.097 338.116C577.181 338.136 578.247 338.375 579.224 338.817C579.782 339.088 580.399 339.231 581.027 339.235C583.919 339.235 586.263 336.155 586.263 332.353C586.283 330.879 585.909 329.424 585.174 328.122Z" fill="#F2F2F2"/>
</g>
<path opacity="0.03" d="M694.495 278.425C691.466 277.887 688.334 278.206 685.498 279.343C683.8 280.058 681.959 280.427 680.098 280.427C678.237 280.427 676.397 280.058 674.699 279.343C672.689 278.513 670.511 278.104 668.317 278.144C666.122 278.184 663.963 278.672 661.989 279.575C660.861 280.136 659.606 280.432 658.33 280.437C653.18 280.437 648.893 275.556 648.003 269.122C649.033 268.419 649.908 267.533 650.578 266.515C653.598 261.942 658.277 259.007 663.529 259.007C668.781 259.007 673.411 261.882 676.426 266.42C677.326 267.787 678.587 268.913 680.086 269.688C681.585 270.463 683.272 270.86 684.983 270.842H685.117C689.216 270.832 692.768 273.918 694.495 278.425Z" fill="#D7D7D7"/>
<path opacity="0.03" d="M930.016 271.87C926.986 271.332 923.855 271.651 921.019 272.788C919.32 273.503 917.48 273.872 915.619 273.872C913.758 273.872 911.918 273.503 910.219 272.788C908.209 271.958 906.032 271.549 903.837 271.589C901.642 271.629 899.483 272.117 897.51 273.02C896.382 273.581 895.126 273.877 893.851 273.882C888.7 273.882 884.414 269.001 883.523 262.567C884.554 261.864 885.428 260.979 886.098 259.961C889.119 255.387 893.797 252.453 899.049 252.453C904.302 252.453 908.931 255.327 911.947 259.865C912.849 261.236 914.114 262.364 915.618 263.14C917.123 263.915 918.815 264.31 920.53 264.287H920.665C924.737 264.277 928.288 267.363 930.016 271.87Z" fill="#D7D7D7"/>
<path opacity="0.03" d="M930.016 106.483C926.986 105.944 923.855 106.264 921.019 107.401C919.32 108.116 917.48 108.485 915.619 108.485C913.758 108.485 911.918 108.116 910.219 107.401C908.209 106.571 906.032 106.162 903.837 106.202C901.642 106.242 899.483 106.73 897.51 107.633C896.382 108.194 895.126 108.489 893.851 108.495C888.7 108.495 884.414 103.614 883.523 97.1801C884.554 96.4768 885.428 95.5913 886.098 94.5733C889.119 89.9999 893.797 87.0653 899.049 87.0653C904.302 87.0653 908.931 89.9394 911.947 94.4775C912.849 95.849 914.114 96.9773 915.618 97.7523C917.123 98.5273 918.815 98.9226 920.53 98.8996H920.665C924.737 98.8895 928.288 101.975 930.016 106.483Z" fill="#D7D7D7"/>
<path opacity="0.03" d="M593.441 78.5186C591.929 78.2465 590.365 78.4063 588.951 78.9775C588.106 79.3282 587.192 79.5102 586.268 79.5119C585.334 79.5117 584.41 79.3243 583.559 78.9623C582.556 78.5499 581.469 78.3471 580.374 78.368C579.279 78.3889 578.202 78.633 577.218 79.0833C576.658 79.3629 576.033 79.51 575.399 79.5119C572.829 79.5119 570.689 77.0765 570.243 73.8696C570.756 73.5161 571.193 73.0747 571.531 72.5687C573.033 70.2845 575.367 68.8223 577.969 68.8223C580.571 68.8223 582.894 70.2694 584.407 72.5233C584.858 73.2087 585.49 73.7722 586.243 74.1585C586.995 74.5447 587.841 74.7406 588.699 74.7268H588.768C590.791 74.7268 592.578 76.2697 593.441 78.5186Z" fill="#D7D7D7"/>
<path opacity="0.03" d="M963.622 325.087C962.11 324.815 960.546 324.974 959.131 325.546C958.286 325.896 957.373 326.078 956.449 326.08C955.514 326.08 954.591 325.892 953.739 325.53C952.736 325.118 951.649 324.915 950.555 324.936C949.46 324.957 948.383 325.201 947.398 325.651C946.838 325.931 946.214 326.078 945.579 326.08C943.009 326.08 940.869 323.645 940.424 320.438C940.936 320.084 941.373 319.643 941.711 319.137C943.213 316.853 945.547 315.39 948.149 315.39C950.751 315.39 953.074 316.838 954.587 319.091C955.038 319.777 955.671 320.34 956.423 320.727C957.175 321.113 958.022 321.309 958.879 321.295H958.949C960.971 321.295 962.758 322.838 963.622 325.087Z" fill="#D7D7D7"/>
<path opacity="0.03" d="M577.347 338.197C575.835 337.925 574.27 338.084 572.856 338.656C572.011 339.006 571.097 339.188 570.174 339.19C569.239 339.19 568.316 339.002 567.464 338.64C566.461 338.228 565.374 338.025 564.28 338.046C563.185 338.067 562.108 338.311 561.123 338.761C560.563 339.041 559.939 339.188 559.304 339.19C556.734 339.19 554.594 336.755 554.149 333.548C554.661 333.194 555.098 332.753 555.436 332.247C556.938 329.963 559.272 328.5 561.874 328.5C564.476 328.5 566.799 329.947 568.312 332.201C568.763 332.887 569.396 333.45 570.148 333.837C570.9 334.223 571.747 334.419 572.604 334.405H572.674C574.696 334.405 576.483 335.948 577.347 338.197Z" fill="#D7D7D7"/>
<path opacity="0.03" d="M761.557 37.4037C758.527 36.865 755.396 37.1844 752.56 38.3214C750.861 39.0362 749.021 39.4057 747.16 39.4057C745.299 39.4057 743.459 39.0362 741.76 38.3214C739.751 37.4915 737.573 37.0824 735.378 37.1225C733.184 37.1625 731.025 37.6508 729.051 38.5534C727.923 39.1142 726.668 39.41 725.392 39.4156C720.241 39.4156 715.955 34.5347 715.064 28.1007C716.095 27.3973 716.97 26.5119 717.639 25.4938C720.66 20.9205 725.338 17.9859 730.59 17.9859C735.843 17.9859 740.473 20.86 743.488 25.398C744.39 26.7695 745.655 27.8978 747.159 28.6729C748.664 29.4479 750.356 29.8432 752.072 29.8201H752.206C756.278 29.81 759.829 32.8959 761.557 37.4037Z" fill="#D7D7D7"/>
<path opacity="0.03" d="M1053.75 113.815C1052.24 113.542 1050.68 113.702 1049.26 114.274C1048.42 114.624 1047.5 114.806 1046.58 114.808C1045.65 114.804 1044.74 114.617 1043.9 114.258C1042.89 113.846 1041.81 113.643 1040.71 113.664C1039.62 113.685 1038.54 113.929 1037.56 114.379C1037 114.659 1036.37 114.806 1035.74 114.808C1033.17 114.808 1031.03 112.373 1030.58 109.166C1031.09 108.812 1031.53 108.371 1031.87 107.865C1033.37 105.581 1035.7 104.118 1038.31 104.118C1040.91 104.118 1043.23 105.565 1044.74 107.819C1045.19 108.501 1045.82 109.062 1046.57 109.448C1047.32 109.834 1048.16 110.032 1049.01 110.023H1049.08C1051.1 110.023 1052.89 111.566 1053.75 113.815Z" fill="#D7D7D7"/>
<path d="M928.401 204.515C899.43 207.783 859.73 208.943 859.73 208.943C859.73 208.943 655.642 224.851 502.683 165.685C502.683 165.685 480.434 154.723 501.073 139.969L501.143 140.241C501.143 140.241 534.148 161.207 691.845 178.709L928.401 204.515Z" fill="#BA2626"/>
<path d="M528.3 143.312C524.727 143.368 516.54 137.735 511.449 133.943C513.797 131.904 516.334 130.067 519.03 128.452C523.134 131.412 530.436 136.202 534.497 136.016C540.361 135.789 533.681 143.221 528.3 143.312Z" fill="white"/>
</g>
<defs>
<filter id="filter0_d" x="550.175" y="0.0050354" width="516.494" height="347.24" filterUnits="userSpaceOnUse" color-interpolation-filters="sRGB">
<feFlood flood-opacity="0" result="BackgroundImageFix"/>
<feColorMatrix in="SourceAlpha" type="matrix" values="0 0 0 0 0 0 0 0 0 0 0 0 0 0 0 0 0 0 127 0"/>
<feOffset dy="4"/>
<feGaussianBlur stdDeviation="2"/>
<feColorMatrix type="matrix" values="0 0 0 0 0 0 0 0 0 0 0 0 0 0 0 0 0 0 0.1 0"/>
<feBlend mode="normal" in2="BackgroundImageFix" result="effect1_dropShadow"/>
<feBlend mode="normal" in="SourceGraphic" in2="effect1_dropShadow" result="shape"/>
</filter>
<clipPath id="clip0">
<rect width="956.107" height="709.951" fill="white" transform="translate(0 78.0495)"/>
</clipPath>
<clipPath id="clip1">
<rect width="570.362" height="339.215" fill="white" transform="translate(492.312)"/>
</clipPath>
</defs>
</svg>
