<svg width="358" height="359" viewBox="0 0 358 359" fill="none" xmlns="http://www.w3.org/2000/svg">
<path fill-rule="evenodd" clip-rule="evenodd" d="M189.833 7.16174L178.999 0L168.165 7.16174L156.52 1.41541L146.669 9.87962L134.396 5.63933L125.682 15.2725L112.974 12.6051L105.536 23.2554L92.5946 22.203L86.5483 33.7023L73.5774 34.2814L69.0189 46.4485L56.2228 48.6501L53.2239 61.2931L40.8045 65.0824L39.4125 78.0018L27.5655 83.3191L27.8024 96.3113L16.7148 103.073L18.5768 115.933L8.42331 124.031L11.8812 136.556L2.82196 145.865L7.82108 157.858L-0.000976562 168.229L6.46056 179.5L-0.000976562 190.771L7.82108 201.142L2.82196 213.135L11.8812 222.444L8.42331 234.969L18.5768 243.067L16.7148 255.927L27.8024 262.689L27.5655 275.681L39.4125 280.998L40.8045 293.918L53.2239 297.707L56.2228 310.35L69.0189 312.551L73.5774 324.719L86.5483 325.298L92.5946 336.797L105.536 335.745L112.974 346.395L125.682 343.727L134.396 353.361L146.669 349.12L156.52 357.585L168.165 351.838L178.999 359L189.833 351.838L201.478 357.585L211.33 349.12L223.603 353.361L232.316 343.727L245.024 346.395L252.462 335.745L265.403 336.797L271.45 325.298L284.421 324.719L288.979 312.551L301.775 310.35L304.774 297.707L317.194 293.918L318.586 280.998L330.433 275.681L330.196 262.689L341.283 255.927L339.421 243.067L349.575 234.969L346.117 222.444L355.176 213.135L350.177 201.142L357.999 190.771L351.538 179.5L357.999 168.229L350.177 157.858L355.176 145.865L346.117 136.556L349.575 124.031L339.421 115.933L341.283 103.073L330.196 96.3113L330.433 83.3191L318.586 78.0018L317.194 65.0824L304.774 61.2931L301.775 48.6501L288.979 46.4485L284.421 34.2814L271.45 33.7023L265.403 22.203L252.462 23.2554L245.024 12.6051L232.316 15.2725L223.603 5.63933L211.33 9.87962L201.478 1.41541L189.833 7.16174ZM179.259 348.137C272.176 348.137 347.5 272.751 347.5 179.759C347.5 86.7659 272.176 11.3804 179.259 11.3804C86.3422 11.3804 11.0181 86.7659 11.0181 179.759C11.0181 272.751 86.3422 348.137 179.259 348.137Z" fill="#BA2525"/>
<path d="M340.831 179.759C340.831 269.067 268.491 341.464 179.258 341.464C90.0256 341.464 17.686 269.067 17.686 179.759C17.686 90.4501 90.0256 18.0533 179.258 18.0533C268.491 18.0533 340.831 90.4501 340.831 179.759Z" stroke="#BA2525" stroke-width="3"/>
<path d="M134.298 126.198C134.712 126.071 135.089 126.165 135.429 126.479C135.801 126.783 136.089 127.27 136.294 127.94C136.674 129.183 136.673 130.264 136.291 131.183C135.326 133.5 134.218 135.407 132.968 136.905C131.708 138.371 130.01 139.431 127.875 140.085C125.803 140.719 123.863 140.702 122.056 140.035C120.281 139.358 118.326 137.865 116.192 135.555C114.478 133.709 113.162 132.369 112.245 131.534C111.318 130.667 110.483 130.103 109.741 129.842C109.031 129.571 108.231 129.52 107.341 129.688C107.418 130.396 107.695 132.612 108.17 136.336C108.402 138.008 108.539 139.029 108.583 139.399C108.858 141.441 108.678 143.135 108.044 144.479C107.399 145.792 106.104 146.746 104.16 147.341C102.024 147.994 99.938 147.953 97.9008 147.217C95.8856 146.439 94.091 145.071 92.5168 143.113C90.9329 141.122 89.7027 138.693 88.8262 135.823C87.1901 130.468 86.7024 125.562 87.3631 121.108C88.0556 116.643 89.7636 112.878 92.4872 109.814C95.2329 106.708 98.8051 104.482 103.204 103.136C106.264 102.2 108.971 101.877 111.325 102.168C113.679 102.458 115.599 103.265 117.084 104.589C118.6 105.902 119.67 107.579 120.294 109.62C120.839 111.405 120.944 113.29 120.609 115.275C120.297 117.218 119.496 119.101 118.205 120.925C116.915 122.749 115.156 124.351 112.929 125.73C114.585 125.676 115.969 125.984 117.08 126.655C118.192 127.326 119.434 128.428 120.808 129.959C122.285 131.599 123.59 132.733 124.723 133.363C125.889 133.982 127.045 134.116 128.192 133.765C129.212 133.453 130.082 132.821 130.802 131.869C131.512 130.884 132.315 129.349 133.211 127.262C133.458 126.699 133.82 126.344 134.298 126.198ZM100.729 131.659C99.645 131.99 98.818 131.964 98.2478 131.581C97.7095 131.188 97.343 130.673 97.1482 130.035C96.9145 129.27 96.9685 128.591 97.3103 127.999C97.684 127.396 98.1895 126.998 98.827 126.803L100.022 126.437C99.5779 123.157 99.2332 120.317 98.988 117.917C98.7693 115.718 99.7916 114.272 102.055 113.579C103.872 113.024 105.028 113.559 105.525 115.184C105.632 115.535 105.699 115.811 105.725 116.012L106.716 124.389C108.408 123.766 109.843 122.874 111.022 121.712C112.232 120.54 113.052 119.173 113.482 117.613C113.943 116.042 113.92 114.428 113.414 112.77C112.8 110.762 111.633 109.394 109.912 108.666C108.191 107.937 106.007 107.978 103.362 108.787C100.238 109.743 97.7353 111.363 95.8538 113.647C93.9944 115.889 92.8787 118.74 92.5067 122.2C92.125 125.629 92.6013 129.527 93.9354 133.894C94.5587 135.934 95.3015 137.624 96.1638 138.964C97.0262 140.304 97.8722 141.247 98.7018 141.795C99.5314 142.343 100.217 142.534 100.759 142.368C101.173 142.242 101.445 141.932 101.573 141.44C101.733 140.937 101.752 140.2 101.629 139.226L100.729 131.659ZM140.036 136.364C138.06 136.968 136.263 136.734 134.645 135.66C133.027 134.586 131.863 132.886 131.152 130.559C130.373 128.009 130.228 125.421 130.716 122.797C131.194 120.141 132.196 117.83 133.721 115.864C135.269 113.857 137.143 112.517 139.342 111.844C140.043 111.629 140.549 111.631 140.86 111.85C141.193 112.027 141.546 112.442 141.92 113.094C142.55 112.762 143.232 112.483 143.965 112.259C145.527 111.781 146.478 112.1 146.819 113.216C147.024 113.885 147.271 115.553 147.563 118.217C147.949 122.108 148.362 124.77 148.8 126.205C148.946 126.683 149.175 127.031 149.485 127.25C149.828 127.459 150.191 127.505 150.573 127.388C151.179 127.202 151.795 126.596 152.422 125.567C153.039 124.507 153.813 122.876 154.744 120.674C154.99 120.11 155.352 119.756 155.83 119.609C156.244 119.482 156.622 119.576 156.962 119.89C157.333 120.195 157.622 120.682 157.826 121.351C158.216 122.627 158.215 123.708 157.823 124.594C157.013 126.62 156.045 128.415 154.92 129.979C153.795 131.544 152.547 132.536 151.176 132.955C150.124 133.277 149.045 133.224 147.938 132.795C146.853 132.326 145.898 131.537 145.072 130.43C144.233 133.615 142.554 135.593 140.036 136.364ZM140.282 131.007C140.983 130.793 141.526 130.174 141.91 129.15C142.294 128.126 142.42 126.884 142.289 125.426L141.37 116.086C140.041 116.527 138.954 117.418 138.108 118.757C137.284 120.055 136.782 121.603 136.599 123.402C136.417 125.201 136.598 126.993 137.143 128.778C137.445 129.766 137.861 130.441 138.389 130.802C138.95 131.153 139.58 131.222 140.282 131.007ZM180.558 113.664C181.291 113.44 181.809 113.822 182.111 114.81C182.491 116.053 182.501 117.113 182.141 117.99C181.814 118.857 181.172 119.437 180.215 119.73L178.432 120.223C178.103 120.289 177.636 120.414 177.031 120.6C177.713 122.378 178.332 124.175 178.887 125.992C180.358 130.806 181.001 135.193 180.816 139.154C180.664 143.105 179.249 145.49 176.572 146.309C174.755 146.865 173.047 146.237 171.448 144.426C169.891 142.636 168.654 140.243 167.739 137.247C166.599 133.517 165.889 129.708 165.608 125.82C165.03 127.81 163.865 129.072 162.112 129.609C160.359 130.145 158.669 129.861 157.041 128.755C155.446 127.64 154.293 125.919 153.582 123.591C152.812 121.073 152.672 118.502 153.16 115.877C153.679 113.243 154.718 110.939 156.275 108.963C157.855 106.946 159.776 105.591 162.04 104.899C162.804 104.665 163.472 104.739 164.042 105.122C164.018 104.015 164.238 103.197 164.705 102.671C165.172 102.145 165.915 101.726 166.935 101.414C168.019 101.082 168.785 101.022 169.233 101.234C169.712 101.435 170.029 101.844 170.182 102.459C170.299 102.842 170.364 103.798 170.379 105.327C170.415 106.815 170.437 107.802 170.446 108.287C170.482 110.228 170.528 112.376 170.584 114.729C170.673 117.072 170.814 119.19 171.009 121.083C171.547 126.495 172.415 131.162 173.613 135.083C174.061 136.55 174.552 137.759 175.087 138.711C175.663 139.685 176.143 140.113 176.525 139.996C176.844 139.899 177.013 139.254 177.033 138.063C177.084 136.862 176.96 135.314 176.66 133.419C176.36 131.524 175.898 129.556 175.275 127.516C174.535 125.093 173.766 122.975 172.968 121.163C172.887 121.013 172.794 120.763 172.686 120.412C172.365 119.36 172.352 118.406 172.648 117.548C172.976 116.681 173.618 116.101 174.574 115.809C174.701 115.77 175.898 115.351 178.164 114.553C179.091 114.165 179.889 113.869 180.558 113.664ZM162.549 124.194C163.282 123.97 163.847 123.309 164.244 122.211C164.631 121.082 164.773 119.836 164.67 118.473L164.067 109.141C162.675 109.602 161.535 110.491 160.647 111.808C159.792 113.116 159.257 114.674 159.043 116.482C158.851 118.249 159.023 120.009 159.558 121.763C159.86 122.751 160.269 123.462 160.785 123.897C161.324 124.29 161.911 124.389 162.549 124.194ZM185.396 122.484C183.962 122.923 182.583 122.631 181.259 121.606C179.958 120.54 179.005 119.019 178.401 117.043C177.671 114.652 177.163 112.419 176.878 110.345C176.583 108.239 176.462 105.959 176.513 103.503C176.54 102.449 176.777 101.627 177.224 101.037C177.671 100.447 178.516 99.9618 179.759 99.5814C180.46 99.3668 180.973 99.3321 181.296 99.4772C181.651 99.6126 181.896 99.9035 182.033 100.35C182.111 100.605 182.198 101.519 182.296 103.093C182.337 104.37 182.409 105.516 182.509 106.531C182.894 110.073 183.257 112.402 183.598 113.518C183.803 114.187 184.029 114.641 184.276 114.879C184.513 115.086 184.807 115.135 185.157 115.028C185.636 114.882 186.079 114.223 186.488 113.052C186.929 111.871 187.251 110.187 187.454 107.998C187.689 105.8 187.755 103.165 187.653 100.094C187.616 99.0597 187.789 98.2572 188.173 97.6868C188.588 97.1065 189.322 96.6555 190.373 96.3337C191.106 96.1093 191.646 96.0489 191.991 96.1524C192.327 96.224 192.567 96.4989 192.713 96.9771C192.957 97.7741 193.226 100.08 193.519 103.894C193.873 108.248 194.197 110.903 194.489 111.859C194.674 112.465 194.947 112.904 195.309 113.176C195.662 113.417 196.045 113.474 196.46 113.347C197.097 113.152 197.729 112.541 198.356 111.512C199.005 110.442 199.795 108.806 200.726 106.604C200.972 106.041 201.334 105.686 201.812 105.54C202.226 105.413 202.604 105.507 202.944 105.821C203.315 106.125 203.604 106.612 203.808 107.282C204.198 108.557 204.197 109.638 203.805 110.525C202.951 112.634 201.892 114.474 200.63 116.045C199.399 117.607 197.78 118.695 195.771 119.31C194.241 119.778 192.93 119.534 191.836 118.579C190.775 117.614 189.918 116.064 189.265 113.928C189.386 116.261 189.084 118.184 188.361 119.695C187.627 121.174 186.639 122.104 185.396 122.484ZM220.598 99.7916C221.012 99.6648 221.39 99.7585 221.73 100.073C222.101 100.377 222.39 100.864 222.594 101.534C222.984 102.809 222.983 103.89 222.591 104.776C221.85 106.572 220.581 108.407 218.783 110.282C217.018 112.146 214.908 113.454 212.454 114.205C209.107 115.229 206.232 115.116 203.828 113.864C201.424 112.613 199.74 110.409 198.776 107.253C198.104 105.053 197.943 102.872 198.293 100.708C198.633 98.5124 199.445 96.6081 200.73 94.9949C202.046 93.372 203.741 92.2435 205.813 91.6096C207.661 91.0439 209.314 91.1483 210.77 91.9227C212.217 92.6652 213.228 93.9769 213.802 95.8578C214.474 98.0574 214.257 100.198 213.15 102.28C212.065 104.32 209.784 106.377 206.305 108.453C207.55 109.675 209.288 109.945 211.519 109.263C212.953 108.824 214.428 107.832 215.943 106.288C217.48 104.702 218.669 102.891 219.512 100.856C219.758 100.293 220.12 99.9379 220.598 99.7916ZM206.431 96.5445C205.252 96.9054 204.457 97.898 204.047 99.5224C203.669 101.137 203.777 102.917 204.371 104.861L204.4 104.957C206.145 103.935 207.422 102.812 208.233 101.588C209.044 100.364 209.27 99.1619 208.909 97.9823C208.724 97.3766 208.403 96.9521 207.945 96.7087C207.51 96.4237 207.005 96.369 206.431 96.5445ZM233.059 100.266C233.312 99.8402 233.614 99.5736 233.965 99.4663C234.348 99.3492 234.718 99.4797 235.078 99.8578C235.46 100.194 235.743 100.665 235.928 101.271C236.337 102.61 236.185 103.824 235.472 104.914C234.234 106.792 232.562 108.052 230.459 108.696C227.43 109.623 224.831 109.041 222.659 106.952C220.477 104.831 218.763 101.73 217.517 97.6494C216.329 93.7602 215.469 89.1778 214.938 83.9023C214.439 78.6171 214.616 73.8918 215.469 69.7264C216.355 65.5513 218.152 63.0492 220.862 62.2202C222.392 61.7521 223.806 62.1036 225.105 63.2748C226.426 64.4044 227.491 66.2922 228.299 68.9382C229.458 72.7318 229.75 77.4529 229.175 83.1016C228.632 88.7406 227.305 94.5499 225.193 100.529C225.815 101.768 226.501 102.587 227.25 102.985C227.999 103.383 228.868 103.431 229.856 103.129C230.398 102.963 230.955 102.618 231.527 102.095C232.13 101.561 232.641 100.952 233.059 100.266ZM221.256 67.2761C220.523 67.5004 220.098 69.077 219.982 72.0058C219.866 74.9346 220.056 78.4668 220.553 82.6025C221.05 86.7382 221.816 90.6169 222.853 94.2388C223.977 89.8165 224.638 85.5356 224.838 81.3961C225.027 77.2248 224.65 73.5929 223.705 70.5007C222.965 68.0779 222.149 67.003 221.256 67.2761ZM199.399 180.475C198.314 184.223 196.686 187.737 194.515 191.015L200.077 194.333C201.044 194.874 201.654 195.559 201.908 196.387C202.151 197.184 202.032 197.935 201.55 198.641C201.078 199.378 200.316 199.907 199.264 200.229C197.798 200.677 196.546 200.573 195.509 199.914L190.046 196.409C186.86 199.441 183.545 201.483 180.103 202.536C177.553 203.317 175.2 203.601 173.044 203.389C170.888 203.177 169.07 202.531 167.589 201.45C166.141 200.36 165.154 198.953 164.628 197.232C163.917 194.905 163.972 192.518 164.793 190.07C165.636 187.581 167.397 184.846 170.076 181.865C167.195 179.052 165.36 176.354 164.571 173.772C163.87 171.477 163.73 169.306 164.151 167.26C164.571 165.214 165.48 163.454 166.877 161.981C168.306 160.498 170.121 159.42 172.32 158.747C175.125 157.889 177.541 158.039 179.567 159.196C181.616 160.312 183.069 162.273 183.926 165.078C184.637 167.406 184.624 169.815 183.886 172.307C183.17 174.756 181.418 177.576 178.628 180.765C181.515 182.914 185.207 185.358 189.703 188.096C191.232 185.571 192.594 182.557 193.789 179.054C193.984 178.437 194.291 177.959 194.711 177.622C195.121 177.252 195.677 176.96 196.378 176.746C198.227 176.18 199.312 176.423 199.633 177.475C199.838 178.145 199.76 179.145 199.399 180.475ZM173.519 163.871C172.021 164.329 171.017 165.264 170.507 166.675C169.987 168.054 169.985 169.588 170.501 171.278C171.115 173.286 172.456 175.281 174.525 177.262C176.564 175.035 177.82 173.099 178.293 171.456C178.767 169.812 178.756 168.177 178.259 166.551C177.899 165.372 177.313 164.54 176.503 164.056C175.693 163.571 174.698 163.51 173.519 163.871ZM178.783 197.189C181.269 196.428 183.478 195.159 185.41 193.383C180.794 190.368 177.076 187.724 174.256 185.449C171.374 188.911 170.323 191.916 171.102 194.467C171.55 195.933 172.459 196.91 173.828 197.398C175.187 197.853 176.838 197.783 178.783 197.189ZM153.058 288.198C150.859 288.871 148.701 288.938 146.585 288.401C144.501 287.853 142.637 286.715 140.994 284.987C139.341 283.227 138.086 280.945 137.229 278.139C135.749 273.294 135.417 268.498 136.232 263.751C137.038 258.973 139.085 254.721 142.374 250.996C145.652 247.239 150.129 244.493 155.802 242.756C157.269 242.308 158.864 241.942 160.59 241.658C162.348 241.364 163.98 241.23 165.487 241.257C166.457 241.239 167.098 241.74 167.41 242.76C167.663 243.589 167.583 244.468 167.169 245.396C166.788 246.315 166.183 246.901 165.354 247.154C165.099 247.232 164.903 247.275 164.765 247.282C162.991 247.407 161.49 247.57 160.262 247.771C159.024 247.941 157.752 248.225 156.445 248.625C152.397 249.864 149.256 251.906 147.023 254.75C144.78 257.563 143.45 260.793 143.031 264.442C142.612 268.091 142.972 271.781 144.111 275.51C144.939 278.22 146.108 280.163 147.617 281.34C149.149 282.475 150.776 282.779 152.497 282.252C154.441 281.657 155.903 280.338 156.882 278.296C157.862 276.253 158.412 273.261 158.532 269.32C158.653 265.379 158.368 260.168 157.677 253.686C157.596 252.735 157.793 252.012 158.27 251.518C158.746 251.024 159.462 250.63 160.419 250.338C162.682 249.645 164.037 250.032 164.485 251.499C164.563 251.754 164.613 252.087 164.634 252.499C164.75 255.845 165.032 259.506 165.48 263.482C165.95 267.417 166.482 270.356 167.076 272.301C167.602 274.022 168.241 275.204 168.995 275.845C169.738 276.454 170.636 276.597 171.688 276.275C172.708 275.963 173.578 275.331 174.298 274.379C175.008 273.395 175.811 271.859 176.707 269.772C176.953 269.209 177.315 268.854 177.794 268.708C178.208 268.581 178.585 268.675 178.925 268.989C179.297 269.294 179.585 269.781 179.79 270.45C180.169 271.693 180.168 272.774 179.787 273.693C178.8 276.051 177.708 277.954 176.512 279.401C175.315 280.847 173.634 281.902 171.466 282.566C169.235 283.248 167.239 283.162 165.479 282.306C163.709 281.418 162.289 279.849 161.217 277.597C160.368 283.26 157.648 286.793 153.058 288.198ZM181.991 279.345C180.78 279.716 179.724 279.341 178.825 278.222C177.957 277.094 177.095 275.126 176.238 272.321C174.972 268.177 174.359 264.059 174.399 259.969C174.403 258.956 174.661 258.145 175.172 257.536C175.705 256.885 176.561 256.379 177.74 256.018C178.378 255.823 178.849 255.766 179.152 255.847C179.456 255.929 179.676 256.193 179.812 256.639C179.968 257.149 180.08 258.37 180.147 260.301C180.218 261.674 180.303 262.868 180.404 263.883C180.505 264.898 180.706 266.126 181.007 267.568C181.222 264.504 181.719 261.912 182.5 259.79C183.281 257.669 184.181 256.052 185.2 254.938C186.251 253.815 187.303 253.092 188.355 252.77C190.427 252.136 191.779 252.855 192.412 254.928C192.792 256.171 193.128 258.526 193.42 261.992C193.661 264.951 193.919 266.876 194.191 267.769C194.581 269.044 195.238 269.54 196.162 269.257C196.8 269.062 197.432 268.451 198.059 267.422C198.708 266.352 199.498 264.716 200.428 262.514C200.674 261.951 201.036 261.596 201.515 261.45C201.929 261.323 202.306 261.417 202.646 261.731C203.018 262.035 203.306 262.522 203.511 263.192C203.9 264.467 203.899 265.548 203.508 266.435C202.653 268.544 201.595 270.384 200.332 271.955C199.102 273.517 197.482 274.605 195.474 275.22C193.848 275.717 192.48 275.63 191.369 274.959C190.248 274.257 189.415 273.013 188.869 271.227C188.597 270.335 188.333 268.672 188.078 266.241C187.879 264.105 187.662 262.655 187.429 261.89C187.273 261.38 187.02 261.179 186.669 261.286C186.255 261.413 185.831 262.135 185.397 263.453C184.985 264.73 184.648 266.366 184.387 268.363C184.158 270.351 184.101 272.39 184.217 274.481C184.324 276.087 184.221 277.233 183.909 277.922C183.618 278.568 182.979 279.043 181.991 279.345ZM226.142 253.914C226.557 253.787 226.934 253.881 227.274 254.195C227.646 254.5 227.934 254.987 228.138 255.656C228.528 256.931 228.527 258.012 228.136 258.899C227.316 260.893 226.3 262.702 225.089 264.328C223.868 265.922 222.492 266.953 220.962 267.421C218.54 268.162 216.258 267.309 214.116 264.862C213.293 266.961 212.46 268.454 211.615 269.34C210.802 270.216 209.726 270.859 208.388 271.268C206.443 271.863 204.615 271.638 202.901 270.594C201.21 269.508 200.009 267.801 199.298 265.474C198.519 262.924 198.341 260.399 198.762 257.9C199.174 255.368 200.111 253.13 201.572 251.183C203.056 249.196 204.939 247.713 207.22 246.736C205.936 240.367 205.472 234.74 205.827 229.855C206.204 224.929 207.779 222.042 210.553 221.194C211.923 220.774 213.245 221.05 214.517 222.02C215.821 222.98 216.858 224.72 217.627 227.238C218.718 230.809 219.117 235.253 218.825 240.571C218.532 245.889 217.689 251.516 216.296 257.45C216.988 259.26 217.663 260.5 218.321 261.17C219.011 261.83 219.69 262.058 220.359 261.853C221.22 261.59 221.98 260.939 222.638 259.901C223.297 258.863 224.103 257.222 225.056 254.979C225.302 254.415 225.664 254.06 226.142 253.914ZM211.458 226.041C210.853 226.226 210.578 227.495 210.635 229.848C210.682 232.169 211.013 235.136 211.628 238.747C212.275 242.349 213.082 246.076 214.05 249.928C215.244 241.057 215.12 234.262 213.679 229.544C213.309 228.333 212.91 227.427 212.482 226.825C212.086 226.214 211.745 225.953 211.458 226.041ZM208.586 265.927C209.191 265.741 209.724 265.317 210.183 264.653C210.633 263.958 211.116 262.799 211.631 261.178C210.787 259.554 210.038 257.674 209.386 255.538C209.152 254.773 208.804 253.52 208.342 251.779C206.754 252.857 205.648 254.485 205.024 256.663C204.422 258.8 204.457 260.968 205.129 263.167C205.84 265.494 206.992 266.414 208.586 265.927ZM230.317 264.559C229.105 264.929 228.05 264.555 227.15 263.436C226.283 262.307 225.42 260.34 224.563 257.534C223.297 253.39 222.684 249.273 222.724 245.182C222.729 244.17 222.986 243.359 223.497 242.749C224.03 242.098 224.887 241.592 226.066 241.231C226.703 241.036 227.174 240.979 227.478 241.061C227.781 241.142 228.001 241.406 228.138 241.852C228.294 242.362 228.405 243.583 228.472 245.515C228.543 246.887 228.629 248.081 228.73 249.096C228.831 250.111 229.032 251.339 229.333 252.781C229.547 249.718 230.045 247.125 230.826 245.004C231.607 242.882 232.507 241.265 233.526 240.151C234.577 239.028 235.628 238.305 236.68 237.984C238.752 237.35 240.104 238.069 240.737 240.141C240.864 240.555 241.027 241.603 241.227 243.285C241.362 244.638 241.478 245.474 241.575 245.793C241.916 246.909 242.485 247.345 243.282 247.101C244.174 246.828 245.108 245.775 246.082 243.944C246.369 243.402 246.736 243.064 247.183 242.927C247.597 242.8 247.974 242.894 248.314 243.208C248.676 243.481 248.95 243.92 249.135 244.526C249.495 245.705 249.459 246.727 249.026 247.592C248.416 248.789 247.607 249.908 246.601 250.948C245.616 251.947 244.454 252.651 243.116 253.06C241.426 253.577 240.004 253.542 238.849 252.954C237.725 252.357 236.939 251.325 236.491 249.859C236.345 249.38 236.247 248.888 236.196 248.38C236.065 247.723 235.966 247.283 235.898 247.06C235.742 246.55 235.489 246.348 235.138 246.456C234.66 246.602 234.188 247.339 233.722 248.667C233.279 249.953 232.942 251.589 232.713 253.577C232.483 255.564 232.427 257.603 232.543 259.694C232.65 261.3 232.547 262.447 232.234 263.135C231.944 263.782 231.305 264.256 230.317 264.559ZM266.674 241.512C267.088 241.385 267.465 241.479 267.805 241.794C268.177 242.098 268.465 242.585 268.67 243.254C269.059 244.53 269.058 245.611 268.667 246.497C267.926 248.293 266.657 250.128 264.859 252.002C263.094 253.867 260.984 255.175 258.529 255.926C255.182 256.95 252.307 256.836 249.903 255.585C247.5 254.333 245.816 252.13 244.851 248.974C244.179 246.774 244.018 244.592 244.368 242.429C244.708 240.233 245.521 238.329 246.805 236.716C248.122 235.093 249.816 233.964 251.888 233.33C253.737 232.765 255.389 232.869 256.846 233.643C258.293 234.386 259.303 235.698 259.878 237.578C260.55 239.778 260.332 241.919 259.226 244C258.141 246.04 255.859 248.098 252.38 250.173C253.625 251.396 255.363 251.666 257.594 250.983C259.029 250.544 260.503 249.553 262.018 248.009C263.556 246.423 264.745 244.612 265.587 242.577C265.833 242.013 266.195 241.659 266.674 241.512ZM252.507 238.265C251.328 238.626 250.533 239.619 250.123 241.243C249.745 242.858 249.853 244.637 250.447 246.582L250.476 246.678C252.22 245.656 253.498 244.533 254.309 243.309C255.12 242.084 255.345 240.883 254.985 239.703C254.8 239.097 254.479 238.673 254.021 238.429C253.585 238.144 253.081 238.09 252.507 238.265ZM266.204 225.499C264.865 225.909 263.768 225.913 262.914 225.512C262.05 225.079 261.447 224.305 261.106 223.189C260.766 222.074 260.914 221.017 261.55 220.021C262.209 218.983 263.192 218.264 264.499 217.864C265.678 217.503 266.722 217.497 267.63 217.847C268.539 218.196 269.154 218.897 269.475 219.949C269.864 221.224 269.762 222.371 269.167 223.39C268.562 224.377 267.574 225.08 266.204 225.499ZM269.458 252.582C268.438 252.894 267.674 252.901 267.164 252.604C266.655 252.307 266.264 251.712 265.992 250.819C265.914 250.564 265.809 250.108 265.678 249.451C264.406 243.461 263.629 237.895 263.348 232.752C263.301 231.686 263.506 230.873 263.963 230.315C264.442 229.716 265.335 229.216 266.642 228.816C268.012 228.397 268.868 228.745 269.209 229.861C269.258 230.02 269.318 230.333 269.391 230.798C270.041 238.059 270.928 244.045 272.053 248.755C272.301 249.795 272.217 250.605 271.802 251.185C271.387 251.765 270.606 252.231 269.458 252.582Z" fill="#BA2525"/>
</svg>
