<svg width="108" height="109" viewBox="0 0 108 109" fill="none" xmlns="http://www.w3.org/2000/svg">
<path fill-rule="evenodd" clip-rule="evenodd" d="M57.268 2.17446L53.9997 0L50.7314 2.17446L47.2183 0.429749L44.2464 2.99966L40.5439 1.71222L37.9151 4.63706L34.0817 3.82718L31.8376 7.06082L27.9336 6.74129L26.1095 10.2327L22.1965 10.4086L20.8213 14.1028L16.9611 14.7712L16.0564 18.6099L12.3097 19.7604L11.8898 23.683L8.31584 25.2974L8.38731 29.2421L5.04243 31.295L5.60417 35.1996L2.5411 37.6586L3.58426 41.4614L0.851307 44.2877L2.35942 47.9289L-0.000305176 51.0779L1.94899 54.5L-0.000305176 57.9221L2.35942 61.0711L0.851307 64.7123L3.58426 67.5386L2.5411 71.3414L5.60417 73.8004L5.04243 77.705L8.38731 79.7579L8.31584 83.7026L11.8898 85.317L12.3097 89.2396L16.0564 90.3901L16.9611 94.2288L20.8213 94.8972L22.1965 98.5914L26.1095 98.7673L27.9336 102.259L31.8376 101.939L34.0817 105.173L37.9151 104.363L40.5439 107.288L44.2464 106L47.2183 108.57L50.7314 106.826L53.9997 109L57.268 106.826L60.7811 108.57L63.753 106L67.4555 107.288L70.0843 104.363L73.9177 105.173L76.1618 101.939L80.0658 102.259L81.8899 98.7673L85.8029 98.5914L87.1781 94.8972L91.0383 94.2288L91.943 90.3901L95.6897 89.2396L96.1096 85.317L99.6836 83.7026L99.6121 79.7579L102.957 77.705L102.395 73.8004L105.458 71.3414L104.415 67.5386L107.148 64.7123L105.64 61.0711L108 57.9221L106.05 54.5L108 51.0779L105.64 47.9289L107.148 44.2877L104.415 41.4614L105.458 37.6586L102.395 35.1996L102.957 31.295L99.6121 29.2421L99.6836 25.2974L96.1096 23.683L95.6897 19.7604L91.943 18.6099L91.0383 14.7712L87.1781 14.1028L85.8029 10.4086L81.8899 10.2327L80.0658 6.74129L76.1618 7.06082L73.9177 3.82718L70.0843 4.63706L67.4555 1.71222L63.753 2.99966L60.7811 0.429749L57.268 2.17446ZM54.0782 105.702C82.1091 105.702 104.833 82.8131 104.833 54.5785C104.833 26.344 82.1091 3.45533 54.0782 3.45533C26.0474 3.45533 3.3239 26.344 3.3239 54.5785C3.3239 82.8131 26.0474 105.702 54.0782 105.702Z" fill="white"/>
<path d="M101.773 54.5785C101.773 81.1274 80.409 102.631 54.0779 102.631C27.7469 102.631 6.38287 81.1274 6.38287 54.5785C6.38287 28.0295 27.7469 6.52588 54.0779 6.52588C80.409 6.52588 101.773 28.0295 101.773 54.5785Z" stroke="white" stroke-width="3"/>
<path d="M40.6016 38.4304C40.7258 38.3921 40.8388 38.4201 40.9406 38.5143C41.0519 38.6056 41.138 38.7517 41.199 38.9527C41.3123 39.3259 41.3115 39.6505 41.1967 39.9265C40.9065 40.6227 40.5736 41.1961 40.1983 41.6465C39.82 42.0874 39.3107 42.4064 38.6704 42.6036C38.0492 42.7949 37.4679 42.7908 36.9267 42.5912C36.3949 42.3888 35.8097 41.9412 35.171 41.2485C34.6581 40.6949 34.2644 40.293 33.9899 40.0427C33.7125 39.7828 33.4626 39.6139 33.2404 39.5359C33.0277 39.4549 32.788 39.4397 32.5212 39.4905C32.544 39.7032 32.6258 40.3686 32.7666 41.4867C32.8353 41.9887 32.8761 42.2953 32.889 42.4064C32.9706 43.0195 32.9159 43.5281 32.7251 43.9322C32.5313 44.3267 32.1429 44.6137 31.5599 44.7933C30.9196 44.9904 30.2943 44.979 29.6841 44.7588C29.0805 44.5262 28.5432 44.1161 28.0723 43.5287C27.5985 42.9317 27.2309 42.2026 26.9695 41.3414C26.4816 39.7338 26.3376 38.261 26.5376 36.9229C26.7471 35.5818 27.2607 34.4506 28.0783 33.5291C28.9026 32.5952 29.9741 31.9251 31.293 31.519C32.2105 31.2364 33.0219 31.1383 33.7274 31.2245C34.4328 31.3107 35.0077 31.5521 35.4521 31.9489C35.9061 32.3428 36.226 32.8459 36.4119 33.4583C36.5745 33.9942 36.6053 34.5602 36.504 35.1564C36.4095 35.74 36.1685 36.306 35.7811 36.8543C35.3936 37.4027 34.8658 37.8843 34.1975 38.2994C34.694 38.2825 35.1086 38.3746 35.4413 38.5756C35.774 38.7765 36.146 39.1067 36.5571 39.566C36.999 40.0578 37.3896 40.3979 37.7289 40.5863C38.0779 40.7718 38.4243 40.8116 38.7684 40.7057C39.0742 40.6115 39.3352 40.4213 39.5514 40.135C39.7646 39.8391 40.006 39.3776 40.2755 38.7505C40.3495 38.5813 40.4582 38.4745 40.6016 38.4304ZM30.5385 40.0854C30.2136 40.1854 29.9658 40.1781 29.7951 40.0632C29.6339 39.9454 29.5243 39.7909 29.4662 39.5995C29.3965 39.3698 29.413 39.1659 29.5157 38.9878C29.6279 38.8068 29.7796 38.6868 29.9708 38.6279L30.3292 38.5176C30.1974 37.5327 30.0954 36.68 30.023 35.9594C29.9584 35.2992 30.2654 34.8646 30.944 34.6556C31.4887 34.4878 31.8352 34.648 31.9833 35.136C32.0152 35.2413 32.0351 35.3241 32.043 35.3844L32.3361 37.8995C32.8435 37.7119 33.2741 37.4433 33.6278 37.0937C33.991 36.7412 34.2374 36.3305 34.3668 35.8616C34.5057 35.3898 34.4997 34.9052 34.3487 34.4076C34.1657 33.8047 33.8164 33.3943 33.3009 33.1764C32.7854 32.9585 32.131 32.9717 31.3378 33.2159C30.4012 33.5044 29.6505 33.9919 29.0855 34.6786C28.5273 35.3527 28.1917 36.2095 28.0786 37.2488C27.9627 38.2785 28.1037 39.4488 28.5016 40.7597C28.6875 41.3722 28.9094 41.8793 29.1672 42.2812C29.425 42.6831 29.6782 42.9662 29.9265 43.1303C30.1749 43.2945 30.3804 43.3516 30.5428 43.3015C30.6671 43.2633 30.7485 43.1702 30.7872 43.0222C30.8355 42.8714 30.8414 42.6498 30.805 42.3576L30.5385 40.0854ZM42.3167 41.4807C41.7242 41.6632 41.1857 41.5935 40.7014 41.2718C40.2171 40.9501 39.8689 40.44 39.6569 39.7415C39.4246 38.976 39.3821 38.1991 39.5295 37.4108C39.674 36.6129 39.9753 35.9185 40.4334 35.3275C40.8981 34.724 41.4602 34.3207 42.1196 34.1176C42.3299 34.0529 42.4816 34.0532 42.5746 34.1188C42.6743 34.1718 42.78 34.2962 42.8917 34.492C43.0807 34.3919 43.2852 34.308 43.505 34.2403C43.9733 34.0961 44.2583 34.1915 44.3599 34.5264C44.4209 34.7273 44.4945 35.2278 44.5805 36.0279C44.6947 37.196 44.8172 37.9954 44.9479 38.426C44.9915 38.5695 45.0598 38.6741 45.1528 38.7396C45.2554 38.8022 45.364 38.8158 45.4787 38.7805C45.6603 38.7245 45.8453 38.542 46.0336 38.2329C46.219 37.9142 46.4517 37.424 46.7316 36.7624C46.8056 36.5931 46.9143 36.4864 47.0576 36.4422C47.1819 36.404 47.2949 36.4319 47.3966 36.5262C47.5079 36.6175 47.5941 36.7636 47.6551 36.9645C47.7713 37.3473 47.7705 37.6719 47.6528 37.9383C47.4091 38.547 47.1183 39.0865 46.7803 39.5568C46.4423 40.0271 46.0679 40.3255 45.6569 40.4521C45.3415 40.5492 45.0181 40.5337 44.6866 40.4056C44.3617 40.265 44.0758 40.0286 43.8287 39.6967C43.5757 40.6535 43.0717 41.2482 42.3167 41.4807ZM42.3928 39.8721C42.603 39.8073 42.766 39.6211 42.8816 39.3134C42.9972 39.0058 43.0356 38.633 42.9967 38.195L42.7255 35.3907C42.327 35.5238 42.0008 35.7917 41.7467 36.1943C41.4994 36.5844 41.348 37.0496 41.2925 37.5898C41.237 38.1301 41.2906 38.6681 41.4532 39.204C41.5433 39.5006 41.6674 39.7031 41.8257 39.8113C41.9935 39.9165 42.1825 39.9368 42.3928 39.8721ZM54.4713 34.6457C54.6911 34.578 54.846 34.6925 54.9361 34.9891C55.0493 35.3623 55.0519 35.6807 54.9438 35.9442C54.8452 36.2047 54.6525 36.3791 54.3658 36.4674L53.8311 36.6164C53.7326 36.6363 53.5926 36.6742 53.411 36.7301C53.6147 37.2637 53.7994 37.8033 53.965 38.3487C54.4035 39.7936 54.5943 41.1108 54.5373 42.3002C54.4899 43.4867 54.0648 44.2036 53.262 44.4508C52.7172 44.6186 52.2057 44.4308 51.7272 43.8876C51.2613 43.351 50.8918 42.6329 50.6188 41.7334C50.279 40.6139 50.0678 39.4704 49.9852 38.303C49.8113 38.9007 49.4615 39.2804 48.9358 39.4423C48.4102 39.6042 47.9038 39.5195 47.4166 39.1882C46.9389 38.854 46.5941 38.3376 46.382 37.6391C46.1526 36.8831 46.1116 36.111 46.259 35.3227C46.4159 34.5315 46.7282 33.8389 47.1959 33.245C47.6702 32.6385 48.2466 32.2308 48.9252 32.0218C49.1545 31.9512 49.3546 31.9733 49.5253 32.0881C49.5184 31.7555 49.5849 31.51 49.725 31.3518C49.8651 31.1935 50.088 31.0673 50.3939 30.9731C50.7188 30.8731 50.9484 30.8547 51.0825 30.918C51.2263 30.9784 51.3209 31.1009 51.3666 31.2857C51.4014 31.4005 51.4206 31.6876 51.4242 32.1469C51.4344 32.5937 51.4407 32.8899 51.4431 33.0357C51.4529 33.6186 51.4657 34.2634 51.4816 34.97C51.5071 35.6736 51.5486 36.3096 51.6061 36.8778C51.765 38.503 52.023 39.9041 52.3803 41.0811C52.5139 41.5213 52.6606 41.8842 52.8204 42.1698C52.9927 42.462 53.1362 42.5905 53.2509 42.5551C53.3465 42.5257 53.3975 42.3321 53.4038 41.9744C53.4198 41.6138 53.3832 41.1489 53.2941 40.58C53.205 40.011 53.0675 39.4203 52.8816 38.8079C52.6609 38.0807 52.4314 37.445 52.1931 36.9011C52.1691 36.8562 52.1411 36.7811 52.1091 36.6758C52.0133 36.3601 52.0098 36.0734 52.0989 35.8158C52.1974 35.5552 52.3901 35.3808 52.6768 35.2925C52.715 35.2807 53.0738 35.1545 53.7532 34.9139C54.0312 34.7969 54.2706 34.7075 54.4713 34.6457ZM49.0692 37.816C49.2891 37.7483 49.4587 37.5496 49.578 37.2199C49.6945 36.8806 49.7377 36.5063 49.7075 36.097L49.531 33.2949C49.1134 33.434 48.7714 33.7015 48.5049 34.0974C48.248 34.4905 48.087 34.9586 48.022 35.5018C47.9636 36.0324 48.0142 36.5609 48.174 37.0872C48.264 37.3839 48.3863 37.5973 48.5408 37.7276C48.702 37.8454 48.8781 37.8749 49.0692 37.816ZM55.9173 37.2923C55.4872 37.4248 55.0741 37.3375 54.6778 37.0305C54.2882 36.711 54.0034 36.2547 53.8233 35.6614C53.6055 34.9437 53.4544 34.2735 53.3698 33.6508C53.2824 33.0186 53.247 32.3337 53.2635 31.5961C53.2719 31.2796 53.3433 31.0327 53.4776 30.8553C53.6118 30.678 53.8653 30.5319 54.2381 30.4171C54.4483 30.3524 54.6018 30.3417 54.6986 30.3851C54.805 30.4256 54.8785 30.5129 54.9191 30.6468C54.9424 30.7234 54.9682 30.9979 54.9967 31.4705C55.0086 31.854 55.0294 32.1981 55.0592 32.5028C55.173 33.5664 55.2808 34.2656 55.3824 34.6006C55.4434 34.8015 55.5109 34.9377 55.5848 35.0091C55.6558 35.0709 55.7439 35.0856 55.849 35.0533C55.9924 35.0091 56.1256 34.8111 56.2487 34.4593C56.3814 34.1046 56.4786 33.5985 56.5404 32.9413C56.6117 32.281 56.6328 31.4898 56.6037 30.5675C56.593 30.2569 56.6453 30.0159 56.7604 29.8444C56.8851 29.6699 57.1052 29.5342 57.4206 29.437C57.6404 29.3693 57.802 29.351 57.9054 29.3819C58.006 29.4032 58.078 29.4857 58.1216 29.6292C58.1942 29.8685 58.2737 30.5607 58.3601 31.706C58.4642 33.0132 58.5599 33.8104 58.647 34.0975C58.7022 34.2793 58.784 34.411 58.8924 34.4927C58.9979 34.5649 59.1128 34.5818 59.237 34.5436C59.4281 34.4847 59.6179 34.3007 59.8062 33.9916C60.0012 33.67 60.2386 33.1783 60.5185 32.5166C60.5926 32.3474 60.7012 32.2406 60.8446 32.1965C60.9688 32.1582 61.0818 32.1862 61.1836 32.2804C61.2949 32.3717 61.3811 32.5178 61.442 32.7188C61.5582 33.1015 61.5575 33.4261 61.4398 33.6926C61.1828 34.3263 60.8647 34.8794 60.4856 35.3519C60.116 35.8214 59.6302 36.1489 59.0281 36.3343C58.5694 36.4756 58.1764 36.4031 57.8491 36.1167C57.5314 35.8274 57.2752 35.3622 57.0806 34.7211C57.1157 35.4218 57.0244 35.9992 56.807 36.4533C56.5866 36.8979 56.29 37.1776 55.9173 37.2923ZM66.4773 30.4619C66.6015 30.4236 66.7145 30.4516 66.8163 30.5458C66.9276 30.6371 67.0137 30.7832 67.0747 30.9842C67.1909 31.3669 67.1901 31.6915 67.0725 31.958C66.8495 32.4975 66.4683 33.0491 65.9288 33.6129C65.3989 34.1737 64.7659 34.5674 64.03 34.794C63.0265 35.103 62.1649 35.0702 61.445 34.6954C60.7251 34.3207 60.2214 33.6597 59.9339 32.7124C59.7335 32.0521 59.6862 31.397 59.792 30.7471C59.8949 30.0876 60.1392 29.5154 60.525 29.0304C60.9203 28.5424 61.4285 28.2028 62.0497 28.0115C62.6041 27.8408 63.0993 27.8714 63.5354 28.1033C63.9687 28.3256 64.271 28.7191 64.4424 29.2836C64.6428 29.9439 64.5766 30.5868 64.244 31.2124C63.918 31.8255 63.2333 32.4444 62.1898 33.0692C62.5623 33.4358 63.0831 33.5161 63.7521 33.3101C64.1821 33.1777 64.6245 32.8792 65.0792 32.4148C65.5406 31.9379 65.8979 31.3937 66.1512 30.782C66.2252 30.6128 66.3339 30.506 66.4773 30.4619ZM62.233 29.4932C61.8794 29.6021 61.6408 29.9005 61.5172 30.3885C61.4031 30.8735 61.4347 31.4079 61.6119 31.9916L61.6206 32.0203C62.1438 31.7127 62.5272 31.3749 62.7708 31.0069C63.0144 30.6389 63.0825 30.2779 62.9751 29.9238C62.9199 29.742 62.8237 29.6147 62.6867 29.5418C62.5562 29.4564 62.405 29.4402 62.233 29.4932ZM70.2117 30.5989C70.2878 30.4708 70.3784 30.3906 70.4835 30.3582C70.5982 30.3229 70.7093 30.3619 70.8169 30.4753C70.9311 30.5761 71.0158 30.7175 71.071 30.8993C71.1929 31.3012 71.1469 31.6659 70.9328 31.9934C70.5607 32.5579 70.0593 32.9373 69.4285 33.1315C68.5206 33.4111 67.7417 33.2377 67.0917 32.6112C66.4388 31.9752 65.9265 31.0448 65.5547 29.82C65.2004 28.6526 64.9448 27.2769 64.788 25.6929C64.6408 24.106 64.696 22.6869 64.9537 21.4356C65.2209 20.1814 65.7607 19.4292 66.5731 19.1791C67.0318 19.0378 67.4555 19.1427 67.8443 19.4939C68.2397 19.8325 68.5579 20.3989 68.799 21.1931C69.1446 22.3318 69.23 23.7495 69.0552 25.446C68.89 27.1397 68.4896 28.8848 67.854 30.6814C68.04 31.0531 68.2452 31.2986 68.4695 31.4179C68.6938 31.5372 68.9541 31.5512 69.2503 31.4599C69.4128 31.4099 69.5799 31.3061 69.7515 31.1486C69.9327 30.9882 70.0861 30.8049 70.2117 30.5989ZM66.689 20.6972C66.4692 20.7649 66.3412 21.2385 66.3051 22.1181C66.269 22.9976 66.3245 24.0583 66.4715 25.3C66.6185 26.5417 66.8465 27.7062 67.1556 28.7934C67.4943 27.4648 67.6945 26.179 67.7561 24.9358C67.8147 23.6831 67.7032 22.5926 67.4215 21.6644C67.2007 20.9372 66.9566 20.6148 66.689 20.6972ZM59.9429 54.2222C59.6159 55.3484 59.1264 56.4042 58.4746 57.3897L60.14 58.3835C60.4295 58.5455 60.612 58.7508 60.6876 58.9996C60.7602 59.2389 60.7241 59.4645 60.5795 59.6764C60.4377 59.898 60.2091 60.0573 59.8937 60.1544C59.4541 60.2898 59.079 60.2588 58.7683 60.0615L57.1328 59.0114C56.1764 59.9232 55.1821 60.5381 54.15 60.856C53.3854 61.0914 52.6801 61.1778 52.034 61.1152C51.388 61.0525 50.8434 60.8593 50.4002 60.5354C49.9666 60.2085 49.6714 59.7867 49.5145 59.27C49.3025 58.5715 49.3201 57.8546 49.5671 57.1193C49.8209 56.3715 50.3499 55.5494 51.1542 54.653C50.292 53.8094 49.7433 53 49.5081 52.2249C49.299 51.536 49.2579 50.8842 49.3848 50.2696C49.5118 49.655 49.785 49.1262 50.2044 48.6832C50.6333 48.2372 51.1775 47.9126 51.837 47.7095C52.678 47.4505 53.4019 47.4944 54.0088 47.8412C54.6223 48.1754 55.0569 48.7635 55.3125 49.6056C55.5245 50.3041 55.5194 51.0277 55.2973 51.7762C55.0817 52.5122 54.5552 53.3597 53.7176 54.3187C54.582 54.9629 55.6872 55.695 57.0334 56.5151C57.4929 55.7563 57.9025 54.8506 58.2623 53.7981C58.3209 53.6126 58.4132 53.4691 58.5392 53.3675C58.6622 53.2564 58.8288 53.1685 59.0391 53.1037C59.5934 52.933 59.9185 53.0056 60.0143 53.3213C60.0753 53.5223 60.0515 53.8226 59.9429 54.2222ZM52.1941 49.2475C51.7449 49.3859 51.4436 49.667 51.2901 50.091C51.1337 50.5053 51.1325 50.9661 51.2864 51.4733C51.4694 52.0761 51.8705 52.6745 52.4897 53.2686C53.1016 52.5989 53.4788 52.0171 53.6215 51.5232C53.7643 51.0293 53.7615 50.5384 53.6134 50.0504C53.506 49.6963 53.3309 49.4468 53.0884 49.3017C52.8458 49.1567 52.5477 49.1387 52.1941 49.2475ZM53.7567 59.2506C54.5022 59.021 55.1648 58.6391 55.7446 58.1048C54.3627 57.2015 53.2496 56.409 52.4052 55.7274C51.5402 56.768 51.2238 57.6711 51.4562 58.4366C51.5898 58.8768 51.8616 59.1698 52.2716 59.3156C52.6787 59.4518 53.1738 59.4301 53.7567 59.2506ZM46.2391 87.3578C45.5797 87.5609 44.933 87.5822 44.299 87.4217C43.6746 87.2582 43.1166 86.9173 42.6249 86.3991C42.1303 85.8713 41.7552 85.1864 41.4996 84.3443C41.0581 82.8898 40.9606 81.4497 41.2072 80.024C41.4508 78.5888 42.0662 77.3111 43.0534 76.1909C44.0377 75.0612 45.3805 74.2344 47.0816 73.7105C47.5213 73.5751 47.9997 73.4644 48.517 73.3783C49.0439 73.2893 49.5331 73.2485 49.9847 73.256C50.2756 73.2501 50.4675 73.4003 50.5604 73.7065C50.6359 73.9553 50.6115 74.2191 50.4872 74.4981C50.3724 74.7741 50.1907 74.9504 49.9423 75.0269C49.8658 75.0504 49.807 75.0633 49.7659 75.0655C49.2341 75.1037 48.7841 75.1534 48.4159 75.2144C48.0449 75.2659 47.6635 75.352 47.2716 75.4726C46.0579 75.8464 45.1157 76.4609 44.4452 77.3161C43.7718 78.1618 43.3715 79.1326 43.2444 80.2285C43.1172 81.3245 43.2235 82.4322 43.5633 83.5518C43.8102 84.3652 44.1596 84.9482 44.6115 85.3008C45.07 85.6409 45.5573 85.7315 46.0734 85.5725C46.6564 85.393 47.0951 84.9963 47.3895 84.3825C47.6839 83.7687 47.8501 82.87 47.8879 81.6864C47.9258 80.5028 47.8427 78.938 47.6387 76.9919C47.6147 76.7063 47.6742 76.4892 47.8172 76.3405C47.9602 76.1918 48.175 76.0733 48.4617 75.9851C49.1403 75.7761 49.5464 75.8917 49.68 76.3319C49.7032 76.4084 49.7179 76.5085 49.7241 76.6322C49.7574 77.6369 49.8402 78.7362 49.9727 79.9301C50.1118 81.1114 50.2699 81.994 50.4471 82.5777C50.6039 83.0944 50.7951 83.4488 51.0206 83.641C51.2433 83.8235 51.5123 83.8662 51.8276 83.7691C52.1335 83.6749 52.3945 83.4847 52.6106 83.1984C52.8239 82.9025 53.0653 82.4411 53.3347 81.814C53.4088 81.6447 53.5175 81.538 53.6608 81.4938C53.7851 81.4556 53.8981 81.4836 53.9998 81.5778C54.1111 81.6691 54.1973 81.8152 54.2583 82.0161C54.3715 82.3893 54.3708 82.7139 54.256 82.9899C53.9591 83.6987 53.631 84.2706 53.2719 84.7055C52.9127 85.1405 52.4082 85.458 51.7583 85.6582C51.0893 85.8642 50.4913 85.8391 49.9641 85.5829C49.4341 85.3171 49.009 84.8464 48.689 84.1707C48.432 85.8716 47.6153 86.934 46.2391 87.3578ZM54.9141 84.6864C54.5509 84.7982 54.2348 84.6863 53.9657 84.3506C53.7061 84.012 53.4486 83.4217 53.193 82.5796C52.8154 81.3356 52.6335 80.0994 52.6473 78.871C52.6491 78.567 52.7267 78.3234 52.8801 78.1401C53.0401 77.9443 53.2969 77.792 53.6506 77.6831C53.8417 77.6242 53.9828 77.607 54.0737 77.6313C54.1647 77.6556 54.2305 77.7347 54.2712 77.8687C54.3177 78.0218 54.3506 78.3883 54.3698 78.9683C54.3904 79.3805 54.4156 79.739 54.4454 80.0437C54.4752 80.3484 54.5349 80.7172 54.6245 81.15C54.6901 80.2299 54.8404 79.4512 55.0754 78.8138C55.3104 78.1764 55.5808 77.6903 55.8868 77.3554C56.2023 77.0176 56.5177 76.8002 56.8331 76.703C57.4543 76.5117 57.8593 76.7271 58.0481 77.3491C58.1613 77.7222 58.261 78.4292 58.347 79.47C58.4181 80.3584 58.4943 80.9366 58.5756 81.2045C58.6918 81.5873 58.8884 81.736 59.1656 81.6506C59.3567 81.5918 59.5465 81.4078 59.7348 81.0987C59.9298 80.777 60.1672 80.2854 60.4471 79.6237C60.5211 79.4544 60.6298 79.3477 60.7732 79.3036C60.8974 79.2653 61.0104 79.2933 61.1122 79.3875C61.2235 79.4788 61.3096 79.6249 61.3706 79.8258C61.4868 80.2086 61.4861 80.5332 61.3684 80.7996C61.1113 81.4333 60.7933 81.9865 60.4142 82.459C60.0446 82.9285 59.5588 83.256 58.9567 83.4414C58.4693 83.5915 58.0592 83.5661 57.7265 83.3651C57.3909 83.1545 57.1418 82.7813 56.9791 82.2455C56.8978 81.9776 56.8195 81.4785 56.7442 80.7483C56.6854 80.1072 56.6212 79.6719 56.5515 79.4422C56.505 79.2891 56.4292 79.2287 56.3241 79.2611C56.1999 79.2994 56.0724 79.5165 55.9418 79.9125C55.8178 80.2959 55.7163 80.7876 55.6371 81.3875C55.5675 81.9844 55.5496 82.5968 55.5834 83.2246C55.6147 83.7068 55.5834 84.0512 55.4895 84.258C55.4021 84.4523 55.2103 84.5951 54.9141 84.6864ZM68.1574 77.0296C68.2816 76.9913 68.3946 77.0193 68.4964 77.1135C68.6077 77.2048 68.6938 77.3509 68.7548 77.5519C68.871 77.9346 68.8703 78.2592 68.7526 78.5257C68.5059 79.1248 68.2008 79.6687 67.837 80.1574C67.4704 80.6365 67.0577 80.9467 66.599 81.088C65.8726 81.3116 65.1891 81.0565 64.5483 80.3226C64.3008 80.9534 64.0503 81.402 63.7968 81.6684C63.5528 81.9319 63.2301 82.1254 62.8287 82.249C62.2457 82.4286 61.6977 82.3619 61.1847 82.049C60.6784 81.7236 60.3192 81.2117 60.1072 80.5131C59.8749 79.7476 59.8224 78.9895 59.9498 78.2387C60.0744 77.4784 60.3561 76.8057 60.7951 76.2206C61.2407 75.623 61.8056 75.177 62.4895 74.8826C62.1077 72.9703 61.971 71.2807 62.0797 69.8138C62.1949 68.3344 62.6683 67.4666 63.4998 67.2106C63.9107 67.084 64.3067 67.1661 64.6875 67.4569C65.0779 67.7447 65.3879 68.2666 65.6173 69.0226C65.9426 70.0943 66.0603 71.4288 65.9703 73.026C65.8803 74.6232 65.6252 76.3131 65.2048 78.0958C65.4115 78.639 65.6133 79.0111 65.8101 79.2121C66.0165 79.4101 66.2201 79.4782 66.4208 79.4164C66.6788 79.3369 66.9068 79.1412 67.1047 78.8291C67.3026 78.517 67.5448 78.0239 67.8313 77.3497C67.9053 77.1804 68.014 77.0737 68.1574 77.0296ZM63.769 68.6658C63.5875 68.7217 63.5046 69.1029 63.5205 69.8095C63.5335 70.5066 63.6314 71.3972 63.8142 72.4814C64.0066 73.5627 64.2469 74.6815 64.5352 75.8379C64.8969 73.1734 64.8628 71.1331 64.433 69.7169C64.3226 69.3533 64.2035 69.0813 64.0756 68.901C63.9572 68.7177 63.8551 68.6393 63.769 68.6658ZM62.8904 80.6448C63.072 80.5889 63.2318 80.4612 63.3698 80.2618C63.5049 80.0527 63.6501 79.7046 63.8052 79.2174C63.5528 78.7301 63.3293 78.1659 63.1347 77.5247C63.065 77.2951 62.9613 76.919 62.8236 76.3964C62.3473 76.7209 62.0152 77.2103 61.8271 77.8647C61.6457 78.5065 61.6552 79.1575 61.8556 79.8178C62.0676 80.5163 62.4126 80.792 62.8904 80.6448ZM69.4037 80.2242C69.0405 80.3361 68.7244 80.2242 68.4553 79.8885C68.1958 79.5499 67.9382 78.9595 67.6826 78.1175C67.3051 76.8735 67.1232 75.6373 67.137 74.4088C67.1387 74.1049 67.2163 73.8612 67.3697 73.678C67.5298 73.4822 67.7866 73.3299 68.1402 73.221C68.3313 73.1621 68.4724 73.1448 68.5634 73.1691C68.6544 73.1934 68.7202 73.2726 68.7608 73.4065C68.8073 73.5596 68.8402 73.9262 68.8595 74.5062C68.8801 74.9184 68.9053 75.2768 68.9351 75.5816C68.9649 75.8863 69.0245 76.2551 69.1141 76.6879C69.1797 75.7678 69.33 74.9891 69.565 74.3517C69.8 73.7143 70.0705 73.2282 70.3764 72.8933C70.6919 72.5555 71.0073 72.338 71.3227 72.2409C71.9439 72.0496 72.3489 72.265 72.5377 72.8869C72.5755 73.0113 72.6239 73.326 72.6831 73.8309C72.7229 74.2372 72.7572 74.4882 72.7863 74.5839C72.8879 74.9188 73.0582 75.0495 73.2972 74.9759C73.5648 74.8935 73.8449 74.577 74.1376 74.0265C74.2241 73.8639 74.3343 73.7619 74.4681 73.7207C74.5923 73.6825 74.7053 73.7104 74.8071 73.8047C74.9155 73.8864 74.9973 74.0181 75.0524 74.1999C75.1599 74.554 75.1486 74.8609 75.0184 75.1207C74.835 75.4806 74.5923 75.817 74.2901 76.1298C73.9946 76.4301 73.6461 76.642 73.2447 76.7656C72.7382 76.9216 72.3119 76.9116 71.9659 76.7357C71.6294 76.5568 71.3944 76.2472 71.2608 75.8071C71.2172 75.6635 71.188 75.5156 71.1731 75.3632C71.1341 75.1659 71.1045 75.0338 71.0841 74.9668C71.0377 74.8137 70.9619 74.7534 70.8567 74.7857C70.7134 74.8299 70.5716 75.0514 70.4314 75.4504C70.2979 75.8368 70.1963 76.3284 70.1267 76.9254C70.0571 77.5223 70.0392 78.1347 70.073 78.7625C70.1044 79.2446 70.0731 79.5891 69.9791 79.7959C69.8918 79.9902 69.7 80.133 69.4037 80.2242ZM80.3101 73.2871C80.4343 73.2489 80.5473 73.2768 80.6491 73.3711C80.7604 73.4623 80.8465 73.6085 80.9075 73.8094C81.0237 74.1922 81.023 74.5168 80.9053 74.7832C80.6823 75.3227 80.3011 75.8743 79.7616 76.4381C79.2317 76.9989 78.5987 77.3926 77.8628 77.6192C76.8593 77.9282 75.9977 77.8954 75.2778 77.5207C74.5579 77.1459 74.0542 76.4849 73.7667 75.5376C73.5663 74.8773 73.519 74.2223 73.6248 73.5723C73.7277 72.9128 73.972 72.3406 74.3578 71.8556C74.7531 71.3676 75.2613 71.028 75.8826 70.8367C76.4369 70.666 76.9321 70.6966 77.3683 70.9285C77.8015 71.1508 78.1038 71.5443 78.2752 72.1089C78.4756 72.7691 78.4095 73.412 78.0768 74.0376C77.7508 74.6507 77.0661 75.2697 76.0226 75.8945C76.3951 76.2611 76.9159 76.3413 77.5849 76.1353C78.0149 76.0029 78.4573 75.7045 78.9121 75.2401C79.3734 74.7632 79.7307 74.2189 79.984 73.6073C80.058 73.438 80.1667 73.3313 80.3101 73.2871ZM76.0658 72.3184C75.7122 72.4273 75.4736 72.7257 75.35 73.2137C75.2359 73.6987 75.2675 74.2331 75.4447 74.8168L75.4534 74.8455C75.9766 74.5379 76.36 74.2001 76.6036 73.8321C76.8473 73.4641 76.9153 73.1031 76.8079 72.7491C76.7527 72.5672 76.6566 72.4399 76.5195 72.367C76.3891 72.2816 76.2378 72.2654 76.0658 72.3184ZM80.1764 68.4785C79.775 68.6021 79.4463 68.6039 79.1905 68.4839C78.9317 68.3544 78.7514 68.1221 78.6498 67.7872C78.5481 67.4523 78.5929 67.1351 78.7842 66.8355C78.9821 66.5235 79.2769 66.3071 79.6688 66.1864C80.0224 66.0775 80.3352 66.0754 80.6073 66.1799C80.8794 66.2845 81.0634 66.4946 81.1592 66.8104C81.2754 67.1931 81.2441 67.5376 81.0653 67.8438C80.8836 68.1404 80.5873 68.352 80.1764 68.4785ZM81.1397 76.6101C80.8338 76.7043 80.6047 76.7068 80.4522 76.6178C80.2998 76.5287 80.1829 76.3502 80.1016 76.0823C80.0784 76.0057 80.0473 75.8688 80.0083 75.6715C79.6297 73.8733 79.3994 72.2021 79.3173 70.6579C79.3037 70.3377 79.3655 70.0937 79.5027 69.9259C79.6465 69.7456 79.9144 69.5951 80.3062 69.4744C80.7172 69.3479 80.9735 69.452 81.0751 69.787C81.0897 69.8348 81.1077 69.9286 81.1292 70.0685C81.3207 72.2487 81.584 74.0458 81.9191 75.4598C81.993 75.7719 81.9675 76.0151 81.8428 76.1895C81.7181 76.364 81.4837 76.5042 81.1397 76.6101Z" fill="white"/>
</svg>
