<svg width="161" height="124" viewBox="0 0 161 124" fill="none" xmlns="http://www.w3.org/2000/svg">
<g clip-path="url(#clip0)">
<path d="M62.2072 112.772C91.2489 112.772 114.792 89.1766 114.792 60.07C114.792 30.9634 91.2489 7.36789 62.2072 7.36789C33.1656 7.36789 9.62268 30.9634 9.62268 60.07C9.62268 89.1766 33.1656 112.772 62.2072 112.772Z" fill="url(#paint0_linear)"/>
<path d="M62.2073 111.479C90.5365 111.479 113.502 88.4626 113.502 60.0701C113.502 31.6775 90.5365 8.66077 62.2073 8.66077C33.878 8.66077 10.9127 31.6775 10.9127 60.0701C10.9127 88.4626 33.878 111.479 62.2073 111.479Z" fill="#C4C1C1"/>
<path opacity="0.05" d="M45.6214 36.7419C49.1404 36.7419 51.9932 33.8827 51.9932 30.3558C51.9932 26.8289 49.1404 23.9697 45.6214 23.9697C42.1023 23.9697 39.2496 26.8289 39.2496 30.3558C39.2496 33.8827 42.1023 36.7419 45.6214 36.7419Z" fill="black"/>
<path opacity="0.05" d="M65.1105 105.129C68.6295 105.129 71.4823 102.27 71.4823 98.743C71.4823 95.2161 68.6295 92.357 65.1105 92.357C61.5914 92.357 58.7386 95.2161 58.7386 98.743C58.7386 102.27 61.5914 105.129 65.1105 105.129Z" fill="black"/>
<path opacity="0.05" d="M71.4823 65.8178C78.6774 65.8178 84.5102 59.972 84.5102 52.7608C84.5102 45.5495 78.6774 39.7037 71.4823 39.7037C64.2872 39.7037 58.4543 45.5495 58.4543 52.7608C58.4543 59.972 64.2872 65.8178 71.4823 65.8178Z" fill="black"/>
<path d="M86.4496 65.6924C80.6496 68.5275 74.3405 71.2673 67.7574 73.7933C53.1252 79.4096 38.8433 83.3239 27.5453 84.8157C16.1644 86.3155 9.13218 85.1624 7.75655 81.5631C7.05951 79.7407 7.83646 77.4298 10.0635 74.6962L10.3697 74.9541C8.23981 77.5677 7.48528 79.7427 8.12705 81.4218C8.76882 83.1009 10.827 84.2398 14.2209 84.751C17.5561 85.253 22.0185 85.1405 27.4903 84.4241C38.7599 82.9371 53.0076 79.0305 67.6121 73.4241C82.2166 67.8177 95.4238 61.186 104.798 54.7502C109.346 51.6216 112.744 48.7212 114.892 46.115C117.079 43.4626 117.858 41.2558 117.208 39.557C116.47 37.6228 113.808 36.4073 109.515 36.0423L109.549 35.6399C114.074 36.024 116.776 37.2937 117.585 39.4128C118.961 43.0137 114.5 48.5783 105.026 55.0809C99.8667 58.6193 93.5309 62.229 86.4496 65.6924Z" fill="url(#paint1_linear)"/>
<path opacity="0.5" d="M109.541 35.4309C113.823 35.7958 116.609 36.9885 117.405 39.074C120.174 46.3202 97.9165 61.5989 67.6908 73.1999C37.4651 84.801 10.7179 88.3321 7.94893 81.0859C7.25955 79.2978 8.11246 77.0204 10.2234 74.4197" stroke="#BDBDBD" stroke-width="3" stroke-miterlimit="10"/>
<path d="M98.4368 92.4546C92.2956 89.1061 86.0277 85.3696 79.8092 81.3455C61.3833 69.4277 44.9358 56.0529 33.4966 43.6792C21.9694 31.2134 16.8968 21.1978 19.2099 15.475C20.3815 12.577 23.332 10.9679 27.9755 10.6884L28.0012 11.3586C23.5595 11.63 20.7613 13.1116 19.682 15.7789C18.6027 18.4463 19.3044 22.2724 21.8021 27.0563C24.2547 31.7561 28.3059 37.1777 33.8421 43.1637C45.2491 55.5101 61.6601 68.8552 80.0495 80.7485C86.2594 84.7645 92.5144 88.4956 98.6471 91.8386L98.4368 92.4546Z" fill="url(#paint2_linear)"/>
<path d="M98.6471 92.4546C92.6319 89.1642 86.4006 85.4473 80.0728 81.3418C42.0912 56.6954 15.0692 27.3675 19.716 15.8418C20.8638 12.9943 23.8382 11.4945 28.2408 11.2228" stroke="#BDBDBD" stroke-width="3" stroke-miterlimit="10"/>
<path d="M113.113 96.8032C109.85 97.0503 105.13 95.8364 98.6816 93.1711L98.7508 92.7333C111.056 97.8166 116.939 97.6152 118.421 92.0591C118.991 89.9235 118.075 86.8189 115.774 83.0817L116.005 82.7888C118.429 86.7237 119.342 89.9061 118.717 92.2456C117.963 95.0551 116.174 96.5696 113.113 96.8032Z" fill="url(#paint3_linear)"/>
<path d="M116.144 83.424C118.351 87.2059 119.223 90.3942 118.452 92.6419C116.684 97.8033 111.132 98.4661 97.6339 92.4784" stroke="#BDBDBD" stroke-width="3" stroke-miterlimit="10"/>
<g opacity="0.5">
<path opacity="0.5" d="M15.8564 107.742H15.3333V110.711H15.8564V107.742Z" fill="#47E6B1"/>
<path opacity="0.5" d="M17.0749 109.49V108.965H14.1132V109.49H17.0749Z" fill="#47E6B1"/>
</g>
<g opacity="0.5">
<path opacity="0.5" d="M122.138 0.524292H121.615V3.49262H122.138V0.524292Z" fill="#47E6B1"/>
<path opacity="0.5" d="M123.357 2.27143V1.74713L120.395 1.74713V2.27143H123.357Z" fill="#47E6B1"/>
</g>
<g opacity="0.5">
<path opacity="0.5" d="M133.464 81.5485H132.941V84.5168H133.464V81.5485Z" fill="#47E6B1"/>
<path opacity="0.5" d="M134.682 83.2956V82.7713H131.721V83.2956H134.682Z" fill="#47E6B1"/>
</g>
<g opacity="0.5">
<path opacity="0.5" d="M17.5981 7.68381H17.075V10.6521H17.5981V7.68381Z" fill="#47E6B1"/>
<path opacity="0.5" d="M18.8181 9.43095V8.90665H15.8564V9.43095H18.8181Z" fill="#47E6B1"/>
</g>
<path opacity="0.8" d="M32.5284 117.922C32.3843 117.86 32.2683 117.746 32.2024 117.603C32.1365 117.46 32.1253 117.298 32.171 117.147C32.1787 117.124 32.1836 117.1 32.1856 117.076C32.1872 117.008 32.1676 116.941 32.1295 116.885C32.0915 116.829 32.0368 116.786 31.9733 116.763C31.9097 116.739 31.8405 116.736 31.7751 116.754C31.7098 116.772 31.6517 116.81 31.6089 116.862C31.5945 116.882 31.5825 116.903 31.5731 116.926C31.5106 117.07 31.3972 117.187 31.2546 117.253C31.112 117.319 30.9501 117.33 30.7998 117.284C30.7767 117.276 30.7527 117.271 30.7283 117.269C30.6606 117.268 30.5941 117.288 30.5381 117.326C30.4821 117.364 30.4394 117.419 30.4159 117.482C30.3925 117.546 30.3895 117.615 30.4073 117.681C30.4252 117.746 30.463 117.805 30.5155 117.848C30.5351 117.862 30.5564 117.874 30.5789 117.883C30.723 117.946 30.839 118.06 30.9049 118.203C30.9708 118.346 30.982 118.508 30.9363 118.658C30.9286 118.682 30.9237 118.706 30.9217 118.73C30.9201 118.798 30.9397 118.865 30.9778 118.921C31.0158 118.977 31.0705 119.02 31.134 119.043C31.1976 119.067 31.2668 119.07 31.3322 119.052C31.3975 119.034 31.4556 118.996 31.4984 118.943C31.5128 118.924 31.5248 118.902 31.5342 118.88C31.5967 118.735 31.7101 118.619 31.8527 118.553C31.9953 118.487 32.1572 118.476 32.3075 118.522C32.3306 118.529 32.3546 118.534 32.379 118.536C32.4467 118.538 32.5132 118.518 32.5692 118.48C32.6252 118.442 32.6679 118.387 32.6914 118.323C32.7148 118.26 32.7178 118.19 32.7 118.125C32.6821 118.059 32.6443 118.001 32.5918 117.958C32.5722 117.944 32.5509 117.932 32.5284 117.922Z" fill="#23A6DE"/>
<path opacity="0.8" d="M64.4119 120.024C64.2678 119.962 64.1518 119.848 64.0859 119.705C64.02 119.562 64.0088 119.4 64.0545 119.249C64.0622 119.226 64.0671 119.202 64.0691 119.178C64.0707 119.11 64.0511 119.043 64.013 118.987C63.9749 118.931 63.9203 118.888 63.8568 118.865C63.7932 118.841 63.7239 118.838 63.6586 118.856C63.5933 118.874 63.5352 118.912 63.4924 118.964C63.478 118.984 63.466 119.005 63.4566 119.028C63.3941 119.172 63.2807 119.289 63.1381 119.355C62.9955 119.421 62.8336 119.432 62.6833 119.386C62.6601 119.378 62.6361 119.374 62.6118 119.372C62.5441 119.37 62.4776 119.39 62.4216 119.428C62.3656 119.466 62.3228 119.521 62.2994 119.584C62.2759 119.648 62.2729 119.717 62.2908 119.783C62.3087 119.848 62.3465 119.907 62.399 119.95C62.4186 119.964 62.4399 119.976 62.4624 119.985C62.6064 120.048 62.7225 120.162 62.7884 120.305C62.8543 120.448 62.8655 120.61 62.8198 120.76C62.8121 120.784 62.8072 120.808 62.8052 120.832C62.8036 120.9 62.8232 120.967 62.8613 121.023C62.8993 121.079 62.954 121.122 63.0175 121.145C63.0811 121.169 63.1503 121.172 63.2157 121.154C63.281 121.136 63.3391 121.098 63.3819 121.045C63.3963 121.026 63.4083 121.004 63.4176 120.982C63.4802 120.837 63.5936 120.721 63.7362 120.655C63.8788 120.589 64.0407 120.578 64.191 120.624C64.2141 120.631 64.2381 120.636 64.2625 120.638C64.3302 120.64 64.3967 120.62 64.4527 120.582C64.5087 120.544 64.5514 120.489 64.5749 120.426C64.5983 120.362 64.6013 120.292 64.5835 120.227C64.5656 120.161 64.5278 120.103 64.4753 120.06C64.4557 120.046 64.4344 120.034 64.4119 120.024Z" fill="#BA2525"/>
<path opacity="0.8" d="M127.485 35.6802C127.341 35.6175 127.225 35.5039 127.159 35.3609C127.093 35.218 127.082 35.0558 127.128 34.9052C127.135 34.8819 127.14 34.8579 127.142 34.8335C127.144 34.7656 127.124 34.699 127.086 34.6428C127.048 34.5867 126.993 34.5439 126.93 34.5204C126.866 34.4969 126.797 34.4939 126.732 34.5118C126.666 34.5297 126.608 34.5676 126.566 34.6202C126.551 34.6399 126.539 34.6612 126.53 34.6837C126.467 34.8281 126.354 34.9444 126.211 35.0105C126.069 35.0765 125.907 35.0877 125.756 35.0419C125.733 35.0342 125.709 35.0293 125.685 35.0273C125.617 35.0257 125.551 35.0453 125.495 35.0835C125.439 35.1217 125.396 35.1764 125.373 35.2401C125.349 35.3038 125.346 35.3732 125.364 35.4387C125.382 35.5042 125.42 35.5624 125.472 35.6053C125.492 35.6197 125.513 35.6318 125.536 35.6411C125.68 35.7039 125.796 35.8175 125.862 35.9604C125.927 36.1033 125.939 36.2656 125.893 36.4162C125.885 36.4394 125.88 36.4635 125.878 36.4878C125.877 36.5557 125.896 36.6224 125.934 36.6785C125.973 36.7347 126.027 36.7775 126.091 36.801C126.154 36.8245 126.224 36.8275 126.289 36.8096C126.354 36.7917 126.412 36.7538 126.455 36.7011C126.469 36.6815 126.481 36.6602 126.491 36.6376C126.553 36.4932 126.667 36.3769 126.809 36.3109C126.952 36.2448 127.114 36.2336 127.264 36.2794C127.287 36.2871 127.311 36.2921 127.336 36.2941C127.403 36.2957 127.47 36.276 127.526 36.2378C127.582 36.1997 127.625 36.1449 127.648 36.0813C127.671 36.0176 127.674 35.9481 127.657 35.8826C127.639 35.8172 127.601 35.7589 127.548 35.716C127.529 35.7016 127.508 35.6896 127.485 35.6802Z" fill="#BA2525"/>
<path opacity="0.8" d="M3.29155 81.8905C3.14746 81.8278 3.03142 81.7141 2.96551 81.5712C2.8996 81.4283 2.88843 81.2661 2.93413 81.1154C2.94183 81.0922 2.94674 81.0682 2.94875 81.0438C2.95034 80.9759 2.93072 80.9093 2.89265 80.8531C2.85457 80.797 2.79995 80.7541 2.7364 80.7306C2.67286 80.7071 2.60358 80.7041 2.53824 80.722C2.47291 80.7399 2.41479 80.7778 2.37201 80.8305C2.35763 80.8501 2.34563 80.8715 2.33627 80.894C2.27368 81.0384 2.1603 81.1547 2.0177 81.2208C1.8751 81.2868 1.71324 81.298 1.56294 81.2522C1.53978 81.2445 1.51578 81.2396 1.49146 81.2375C1.42374 81.2359 1.35723 81.2556 1.30121 81.2938C1.2452 81.3319 1.20248 81.3867 1.17903 81.4504C1.15558 81.514 1.15258 81.5835 1.17043 81.649C1.18829 81.7144 1.22612 81.7727 1.27863 81.8156C1.29826 81.83 1.31953 81.842 1.34199 81.8514C1.48608 81.9141 1.60213 82.0278 1.66803 82.1707C1.73394 82.3136 1.74511 82.4758 1.69941 82.6265C1.69171 82.6497 1.6868 82.6737 1.68479 82.6981C1.6832 82.766 1.70282 82.8326 1.74089 82.8888C1.77897 82.9449 1.8336 82.9877 1.89714 83.0112C1.96068 83.0347 2.02996 83.0377 2.0953 83.0198C2.16063 83.0019 2.21875 82.964 2.26153 82.9114C2.27592 82.8917 2.28791 82.8704 2.29728 82.8479C2.35986 82.7035 2.47324 82.5872 2.61584 82.5211C2.75844 82.4551 2.9203 82.4439 3.0706 82.4897C3.09376 82.4974 3.11776 82.5023 3.14208 82.5043C3.2098 82.5059 3.27631 82.4863 3.33233 82.4481C3.38835 82.4099 3.43107 82.3552 3.45451 82.2915C3.47796 82.2278 3.48097 82.1584 3.46311 82.0929C3.44525 82.0274 3.40742 81.9692 3.35491 81.9263C3.33528 81.9119 3.31401 81.8999 3.29155 81.8905Z" fill="#BA2525"/>
<path opacity="0.8" d="M1.04464 39.8128C1.62158 39.8128 2.08928 39.344 2.08928 38.7658C2.08928 38.1876 1.62158 37.7188 1.04464 37.7188C0.467701 37.7188 0 38.1876 0 38.7658C0 39.344 0.467701 39.8128 1.04464 39.8128Z" fill="#23A6DE"/>
<path opacity="0.8" d="M86.2454 4.71383C86.8223 4.71383 87.29 4.24508 87.29 3.66685C87.29 3.08862 86.8223 2.61987 86.2454 2.61987C85.6684 2.61987 85.2007 3.08862 85.2007 3.66685C85.2007 4.24508 85.6684 4.71383 86.2454 4.71383Z" fill="#23A6DE"/>
<path opacity="0.8" d="M28.7479 2.09395C29.3248 2.09395 29.7925 1.6252 29.7925 1.04698C29.7925 0.468747 29.3248 0 28.7479 0C28.1709 0 27.7032 0.468747 27.7032 1.04698C27.7032 1.6252 28.1709 2.09395 28.7479 2.09395Z" fill="#BA2525"/>
<path opacity="0.8" d="M106.108 113.679C106.685 113.679 107.153 113.21 107.153 112.632C107.153 112.054 106.685 111.585 106.108 111.585C105.531 111.585 105.064 112.054 105.064 112.632C105.064 113.21 105.531 113.679 106.108 113.679Z" fill="#23A6DE"/>
<path d="M81.4218 64.1894C80.9539 64.4824 80.4582 64.6324 79.9346 64.6394C79.4178 64.6421 78.9155 64.4942 78.4277 64.1956C77.9356 63.8902 77.5033 63.4388 77.1308 62.8414C76.4875 61.8095 76.1132 60.7177 76.0079 59.566C75.8984 58.4075 76.1091 57.2938 76.64 56.225C77.1667 55.1495 78.0335 54.2338 79.2404 53.478C79.5522 53.2827 79.8993 53.0984 80.2815 52.9251C80.6704 52.7475 81.0403 52.615 81.3911 52.5275C81.6148 52.4629 81.7944 52.5392 81.9299 52.7564C82.0399 52.9329 82.0758 53.1417 82.0375 53.3828C82.0061 53.6196 81.9022 53.7932 81.7259 53.9036C81.6717 53.9376 81.6289 53.9597 81.5975 53.9699C81.1942 54.1092 80.8565 54.2405 80.5844 54.3636C80.3082 54.48 80.0311 54.6252 79.7531 54.7993C78.892 55.3386 78.2909 56.0076 77.9499 56.8064C77.6047 57.5984 77.4966 58.4307 77.6258 59.3032C77.755 60.1757 78.0672 61.009 78.5624 61.8033C78.9221 62.3803 79.3134 62.7583 79.736 62.9373C80.1612 63.1052 80.5569 63.0745 80.923 62.8452C81.3366 62.5862 81.5936 62.1893 81.6938 61.6545C81.7941 61.1198 81.736 60.3916 81.5196 59.4699C81.3032 58.5482 80.9141 57.3571 80.3523 55.8966C80.2745 55.681 80.2754 55.5011 80.3552 55.3567C80.4349 55.2124 80.5764 55.0766 80.7798 54.9492C81.2612 54.6477 81.5993 54.6531 81.794 54.9654C81.8278 55.0197 81.86 55.094 81.8904 55.1882C82.1247 55.9571 82.417 56.7887 82.7673 57.6832C83.1201 58.5667 83.4256 59.2154 83.6838 59.6295C83.9123 59.9961 84.1338 60.2303 84.3481 60.3321C84.5581 60.4271 84.775 60.4045 84.9988 60.2644C85.2157 60.1285 85.3781 59.9277 85.4858 59.662C85.5893 59.3895 85.6802 58.9834 85.7584 58.4435C85.7805 58.2975 85.8424 58.1927 85.9441 58.129C86.0323 58.0738 86.1255 58.0721 86.2237 58.1238C86.3288 58.1713 86.4257 58.2663 86.5146 58.4089C86.6797 58.6736 86.7465 58.9244 86.715 59.1612C86.6325 59.7698 86.4975 60.2791 86.3101 60.6892C86.1226 61.0992 85.7983 61.4486 85.3373 61.7373C84.8627 62.0345 84.395 62.1387 83.9341 62.0497C83.469 61.9539 83.0426 61.6782 82.6548 61.2226C82.8091 62.5891 82.3981 63.578 81.4218 64.1894ZM87.5761 60.3352C87.3184 60.4966 87.0507 60.4754 86.7729 60.2718C86.5019 60.064 86.1802 59.6614 85.8077 59.064C85.2575 58.1814 84.8602 57.2645 84.6159 56.3131C84.5542 56.078 84.5636 55.8739 84.6442 55.7007C84.7273 55.5165 84.8943 55.3458 85.1452 55.1887C85.2808 55.1038 85.3863 55.0613 85.4617 55.0613C85.5371 55.0613 85.6044 55.1088 85.6637 55.2038C85.7314 55.3125 85.8329 55.5887 85.9682 56.0325C86.0697 56.3466 86.1636 56.6181 86.2499 56.8473C86.3362 57.0764 86.4589 57.3488 86.618 57.6645C86.4778 56.9405 86.4324 56.3082 86.4818 55.7676C86.5312 55.2269 86.6395 54.7957 86.8065 54.4739C86.9804 54.1479 87.1792 53.9149 87.4029 53.7748C87.8436 53.4988 88.2016 53.5814 88.4767 54.0227C88.6417 54.2874 88.8656 54.8127 89.1481 55.5986C89.3875 56.2699 89.5665 56.7005 89.685 56.8906C89.8543 57.1622 90.0373 57.2364 90.2339 57.1132C90.3695 57.0283 90.478 56.8471 90.5595 56.5695C90.6435 56.2809 90.7251 55.8522 90.8042 55.2835C90.8263 55.1375 90.8882 55.0327 90.9899 54.969C91.0781 54.9138 91.1712 54.9121 91.2695 54.9638C91.3745 55.0113 91.4715 55.1063 91.5604 55.2489C91.7297 55.5204 91.7965 55.7712 91.7608 56.0013C91.6935 56.5436 91.5624 57.0364 91.3673 57.4795C91.179 57.9184 90.8712 58.2716 90.4441 58.5391C90.0983 58.7556 89.7759 58.8207 89.4769 58.7342C89.1736 58.641 88.9035 58.4042 88.6664 58.0241C88.5479 57.834 88.3838 57.4648 88.1739 56.9166C87.9954 56.4337 87.8554 56.1108 87.7538 55.9479C87.6861 55.8393 87.6149 55.8083 87.5404 55.855C87.4522 55.9102 87.3987 56.1042 87.3799 56.4369C87.3636 56.7586 87.3872 57.1592 87.4504 57.6387C87.5205 58.114 87.6338 58.5906 87.7903 59.0684C87.9146 59.4341 87.9619 59.7066 87.9322 59.8857C87.905 60.0537 87.7863 60.2036 87.5761 60.3352ZM96.2285 51.6882C96.3167 51.633 96.4098 51.6313 96.5081 51.6831C96.6131 51.7306 96.7101 51.8256 96.799 51.9681C96.9683 52.2397 97.0351 52.4905 96.9994 52.7205C96.933 53.234 96.8099 53.717 96.63 54.1695C96.446 54.6151 96.1912 54.9399 95.8657 55.1437C95.3505 55.4664 94.7689 55.4106 94.121 54.9762C94.0605 55.5144 93.9599 55.9125 93.8191 56.1705C93.6851 56.4244 93.4758 56.6405 93.191 56.8188C92.7774 57.0778 92.3398 57.1395 91.8781 57.0039C91.419 56.8572 91.0349 56.5361 90.726 56.0405C90.3874 55.4974 90.1894 54.9228 90.1321 54.3169C90.0706 53.7041 90.1488 53.1265 90.3669 52.584C90.5875 52.0306 90.9317 51.5696 91.3995 51.201C90.7073 49.8034 90.2508 48.527 90.0303 47.3719C89.8124 46.2058 89.9983 45.438 90.5882 45.0686C90.8797 44.886 91.203 44.8676 91.5579 45.0135C91.9196 45.1551 92.2676 45.4941 92.602 46.0304C93.076 46.7907 93.444 47.7968 93.706 49.0486C93.968 50.3005 94.1215 51.658 94.1664 53.1212C94.439 53.498 94.6723 53.7436 94.8663 53.8582C95.067 53.9684 95.2386 53.979 95.381 53.8898C95.564 53.7752 95.6997 53.5769 95.7879 53.2951C95.8762 53.0133 95.9612 52.5825 96.0428 52.0028C96.0649 51.8568 96.1268 51.7519 96.2285 51.6882ZM91.0985 46.1366C90.9697 46.2172 90.9848 46.5287 91.1438 47.071C91.2985 47.6066 91.5591 48.274 91.9255 49.0734C92.2987 49.8686 92.7168 50.6828 93.1798 51.5162C92.9065 49.3842 92.4566 47.8158 91.8302 46.8111C91.6693 46.5531 91.5207 46.3677 91.3844 46.2549C91.2548 46.1378 91.1595 46.0984 91.0985 46.1366ZM92.9057 55.5674C93.0345 55.4867 93.1316 55.3551 93.1969 55.1726C93.2581 54.9833 93.298 54.6845 93.3169 54.2763C93.0205 53.9522 92.7306 53.5627 92.447 53.1078C92.3454 52.9449 92.1871 52.6759 91.9721 52.3008C91.6712 52.6498 91.5159 53.0963 91.5063 53.6403C91.4992 54.1734 91.6417 54.6741 91.9337 55.1425C92.2427 55.6381 92.5667 55.7797 92.9057 55.5674ZM97.8555 53.8976C97.5979 54.0589 97.3302 54.0378 97.0524 53.8342C96.7814 53.6263 96.4596 53.2237 96.0872 52.6263C95.537 51.7438 95.1397 50.8268 94.8953 49.8754C94.8336 49.6404 94.843 49.4362 94.9236 49.2631C95.0067 49.0788 95.1737 48.9082 95.4246 48.7511C95.5602 48.6662 95.6657 48.6237 95.7411 48.6236C95.8165 48.6236 95.8838 48.6711 95.9431 48.7662C96.0108 48.8748 96.1123 49.151 96.2477 49.5949C96.3492 49.9089 96.4431 50.1805 96.5294 50.4096C96.6156 50.6387 96.7383 50.9111 96.8975 51.2268C96.7572 50.5029 96.7118 49.8706 96.7612 49.3299C96.8106 48.7892 96.9189 48.358 97.086 48.0363C97.2598 47.7103 97.4586 47.4772 97.6824 47.3371C98.1231 47.0611 98.481 47.1437 98.7561 47.585C98.8111 47.6732 98.914 47.9062 99.0646 48.2838C99.1796 48.5894 99.2583 48.7761 99.3006 48.8439C99.4488 49.0815 99.6076 49.1473 99.7771 49.0411C99.9669 48.9222 100.118 48.62 100.23 48.1345C100.263 47.991 100.327 47.8896 100.422 47.8301C100.51 47.7749 100.603 47.7732 100.702 47.8249C100.802 47.8656 100.893 47.9505 100.973 48.0795C101.13 48.3307 101.185 48.57 101.138 48.7975C101.071 49.1132 100.953 49.4231 100.785 49.727C100.618 50.0199 100.393 50.2555 100.108 50.4338C99.7487 50.6589 99.417 50.7392 99.1128 50.6748C98.8155 50.6061 98.5695 50.4157 98.3748 50.1034C98.3113 50.0016 98.258 49.8934 98.2148 49.7788C98.1437 49.6345 98.0934 49.5386 98.0638 49.4911C97.996 49.3825 97.9249 49.3516 97.8503 49.3983C97.7486 49.462 97.685 49.6623 97.6594 49.9993C97.6363 50.3252 97.6598 50.7258 97.7299 51.2011C97.7999 51.6764 97.9132 52.1529 98.0697 52.6307C98.1941 52.9965 98.2414 53.2689 98.2116 53.448C98.1844 53.6161 98.0657 53.7659 97.8555 53.8976ZM104.85 46.2889C104.938 46.2337 105.031 46.2319 105.13 46.2837C105.235 46.3312 105.332 46.4262 105.421 46.5688C105.59 46.8403 105.657 47.0911 105.621 47.3211C105.561 47.7837 105.38 48.2884 105.08 48.8351C104.787 49.3775 104.379 49.8122 103.857 50.1392C103.145 50.585 102.472 50.7376 101.837 50.597C101.203 50.4563 100.676 50.0499 100.257 49.3778C99.9648 48.9094 99.7922 48.4134 99.7391 47.8897C99.6818 47.3593 99.7519 46.8669 99.9496 46.4128C100.154 45.9544 100.477 45.5872 100.917 45.3112C101.311 45.0649 101.7 44.9863 102.085 45.0752C102.467 45.1574 102.782 45.3988 103.032 45.7993C103.324 46.2678 103.406 46.7778 103.279 47.3296C103.154 47.8703 102.753 48.4896 102.076 49.1875C102.44 49.3936 102.859 49.3481 103.334 49.0508C103.639 48.8598 103.919 48.538 104.174 48.0855C104.432 47.622 104.595 47.128 104.664 46.6034C104.686 46.4574 104.748 46.3526 104.85 46.2889ZM101.367 46.4174C101.116 46.5745 100.993 46.8542 100.999 47.2565C101.011 47.6546 101.147 48.0607 101.405 48.4748L101.418 48.4951C101.758 48.1496 101.985 47.8096 102.097 47.4751C102.209 47.1407 102.186 46.8479 102.03 46.5967C101.949 46.4677 101.849 46.3892 101.728 46.3612C101.609 46.3222 101.489 46.341 101.367 46.4174ZM103.748 42.6036C103.464 42.782 103.21 42.8512 102.987 42.8114C102.76 42.7648 102.572 42.6227 102.424 42.3851C102.276 42.1475 102.245 41.8933 102.331 41.6225C102.419 41.3407 102.602 41.1128 102.88 40.9387C103.131 40.7816 103.372 40.7153 103.605 40.7398C103.837 40.7643 104.023 40.8886 104.162 41.1126C104.332 41.3842 104.379 41.6566 104.304 41.93C104.225 42.1965 104.04 42.4211 103.748 42.6036ZM106.181 48.6833C105.964 48.8192 105.788 48.8685 105.651 48.8312C105.515 48.7939 105.388 48.6802 105.269 48.4901C105.235 48.4358 105.183 48.3365 105.112 48.1923C104.446 46.882 103.921 45.6392 103.536 44.4638C103.46 44.2194 103.457 44.0182 103.528 43.8603C103.602 43.6914 103.778 43.5199 104.056 43.3458C104.347 43.1632 104.567 43.1907 104.715 43.4283C104.736 43.4622 104.77 43.531 104.815 43.6345C105.416 45.2784 105.993 46.6116 106.545 47.6341C106.667 47.8599 106.698 48.0529 106.638 48.2134C106.578 48.3738 106.426 48.5305 106.181 48.6833Z" fill="#BA2525"/>
<path d="M30.746 76.5599C30.8472 76.5362 30.936 76.5646 31.0124 76.6453C31.0965 76.7242 31.1577 76.8454 31.1959 77.009C31.2669 77.3129 31.2493 77.5717 31.1431 77.7856C30.8748 78.3252 30.5789 78.7644 30.2555 79.1032C29.9303 79.4342 29.5068 79.661 28.9849 79.7834C28.4787 79.9022 28.0146 79.8673 27.5926 79.6787C27.1785 79.4882 26.7344 79.0994 26.2604 78.5121C25.8797 78.0427 25.5862 77.7007 25.38 77.4861C25.172 77.2638 24.9812 77.1154 24.8078 77.0411C24.6421 76.9649 24.4514 76.9398 24.2357 76.9658C24.2427 77.1367 24.2732 77.6718 24.3272 78.5713C24.3559 78.9754 24.3724 79.2222 24.3769 79.3115C24.41 79.805 24.3397 80.2077 24.1661 80.5196C23.9907 80.8237 23.6654 81.0315 23.1903 81.143C22.6685 81.2654 22.1696 81.2222 21.6936 81.0134C21.2236 80.795 20.8159 80.4387 20.4705 79.9446C20.1232 79.4426 19.8677 78.8411 19.704 78.14C19.3983 76.8312 19.3603 75.6486 19.5901 74.5922C19.8276 73.5339 20.2971 72.6596 20.9984 71.9691C21.7058 71.269 22.5968 70.7929 23.6716 70.5407C24.4193 70.3653 25.0727 70.3312 25.6317 70.4383C26.1907 70.5454 26.6373 70.7693 26.9716 71.11C27.3136 71.4488 27.5428 71.8675 27.6593 72.3661C27.7612 72.8024 27.7561 73.2555 27.6441 73.7255C27.538 74.1859 27.3159 74.6243 26.9777 75.0405C26.6395 75.4568 26.1926 75.8123 25.6371 76.1069C26.0346 76.1205 26.3609 76.2165 26.6162 76.3949C26.8715 76.5733 27.1513 76.8569 27.4557 77.2456C27.7829 77.6619 28.0772 77.9544 28.3384 78.1232C28.6074 78.2902 28.8821 78.3408 29.1625 78.275C29.4118 78.2165 29.6302 78.079 29.8179 77.8624C30.0037 77.638 30.2207 77.283 30.4687 76.7975C30.5367 76.6665 30.6291 76.5873 30.746 76.5599ZM22.6207 77.3323C22.3559 77.3945 22.1583 77.3751 22.028 77.2742C21.9054 77.1715 21.8259 77.0422 21.7895 76.8864C21.7459 76.6995 21.7697 76.5377 21.8611 76.4013C21.9602 76.263 22.0877 76.1755 22.2434 76.139L22.5355 76.0705C22.4818 75.2778 22.4449 74.5921 22.4247 74.0134C22.4077 73.4832 22.6757 73.1533 23.2287 73.0236C23.6726 72.9194 23.941 73.066 24.0338 73.4633C24.0538 73.549 24.0654 73.6161 24.0685 73.6647L24.1711 75.6867C24.5862 75.5647 24.9442 75.3738 25.245 75.1143C25.5537 74.8528 25.7719 74.5387 25.8998 74.1718C26.0355 73.803 26.0561 73.4161 25.9615 73.011C25.8468 72.5202 25.5893 72.1739 25.1889 71.972C24.7885 71.7701 24.2651 71.745 23.6186 71.8967C22.8554 72.0758 22.2301 72.4238 21.7429 72.9407C21.2617 73.4481 20.9488 74.1132 20.8041 74.9359C20.6576 75.751 20.709 76.6921 20.9583 77.7594C21.0747 78.258 21.2254 78.6746 21.4104 79.0092C21.5953 79.3438 21.7827 79.5833 21.9725 79.7277C22.1623 79.8722 22.3235 79.9289 22.4559 79.8978C22.5571 79.8741 22.6271 79.8042 22.6657 79.6884C22.7122 79.5706 22.7285 79.3942 22.7147 79.1592L22.6207 77.3323ZM31.9565 79.0862C31.4736 79.1995 31.0471 79.1147 30.6771 78.8317C30.307 78.5488 30.0556 78.123 29.9228 77.5543C29.7772 76.931 29.7839 76.309 29.9429 75.6883C30.1001 75.0598 30.3771 74.5223 30.774 74.0759C31.1768 73.6198 31.6469 73.3287 32.1843 73.2026C32.3557 73.1624 32.4768 73.171 32.5477 73.2283C32.6245 73.276 32.7025 73.381 32.7814 73.5432C32.9377 73.4737 33.1054 73.4179 33.2846 73.3759C33.6662 73.2863 33.8889 73.3779 33.9525 73.6506C33.9907 73.8142 34.0233 74.2174 34.0502 74.8602C34.0803 75.7981 34.1363 76.4424 34.2182 76.793C34.2455 76.9098 34.2946 76.9969 34.3654 77.0542C34.4441 77.1097 34.5302 77.1265 34.6237 77.1046C34.7716 77.0698 34.929 76.9343 35.0956 76.698C35.2604 76.4539 35.4719 76.0756 35.7301 75.5631C35.7981 75.4321 35.8905 75.3529 36.0073 75.3255C36.1086 75.3017 36.1974 75.3302 36.2737 75.4109C36.3579 75.4897 36.419 75.611 36.4572 75.7746C36.53 76.0862 36.5124 76.3451 36.4045 76.5512C36.1779 77.0234 35.9174 77.4379 35.6228 77.7946C35.3282 78.1513 35.0134 78.369 34.6785 78.4475C34.4215 78.5078 34.164 78.4779 33.9058 78.3577C33.6537 78.2278 33.4376 78.0238 33.2576 77.7455C33.0055 78.495 32.5717 78.9418 31.9565 79.0862ZM32.1014 77.8073C32.2727 77.7671 32.4126 77.6274 32.5211 77.3883C32.6296 77.1492 32.6797 76.854 32.6716 76.5026L32.6017 74.251C32.2764 74.3355 32.0018 74.5314 31.7778 74.8387C31.5598 75.1364 31.4145 75.4992 31.3419 75.9271C31.2693 76.355 31.2839 76.787 31.3858 77.2233C31.4422 77.4648 31.5308 77.633 31.6516 77.7279C31.7801 77.821 31.93 77.8475 32.1014 77.8073ZM42.0236 74.296C42.2027 74.254 42.3205 74.3537 42.3769 74.5952C42.4478 74.899 42.4332 75.1531 42.333 75.3574C42.2407 75.5598 42.0777 75.6885 41.844 75.7433L41.409 75.833C41.3293 75.8435 41.2155 75.8661 41.0675 75.9008C41.2023 76.3376 41.3216 76.778 41.4253 77.222C41.7001 78.3984 41.7836 79.4593 41.6758 80.405C41.5758 81.3487 41.1987 81.8974 40.5445 82.0509C40.1005 82.155 39.7017 81.9775 39.348 81.5181C39.0038 81.0647 38.7462 80.4719 38.5752 79.7396C38.3623 78.8281 38.2535 77.9046 38.2485 76.969C38.0783 77.4362 37.7791 77.7201 37.3507 77.8206C36.9223 77.9211 36.5222 77.826 36.1503 77.5352C35.7863 77.2427 35.5378 76.812 35.405 76.2433C35.2613 75.6279 35.2689 75.0098 35.4279 74.3891C35.5947 73.7665 35.8804 73.2311 36.285 72.7828C36.6956 72.3249 37.1774 72.0311 37.7304 71.9014C37.9174 71.8575 38.076 71.886 38.2064 71.9869C38.2182 71.7212 38.2843 71.529 38.4044 71.4104C38.5246 71.2918 38.7093 71.2033 38.9586 71.1448C39.2234 71.0827 39.4077 71.0805 39.5116 71.1383C39.6232 71.1943 39.6924 71.2972 39.7192 71.4471C39.7411 71.5405 39.7414 71.7705 39.7202 72.1371C39.705 72.494 39.6945 72.7306 39.6888 72.847C39.6661 73.3125 39.6426 73.8275 39.6183 74.392C39.6019 74.9546 39.6017 75.4641 39.618 75.9205C39.6598 77.2254 39.7927 78.357 40.0165 79.3152C40.1002 79.6735 40.1984 79.971 40.3111 80.2075C40.4335 80.4499 40.5414 80.5602 40.6348 80.5383C40.7127 80.52 40.7636 80.3684 40.7874 80.0834C40.819 79.7966 40.8141 79.4239 40.7727 78.9652C40.7313 78.5065 40.6524 78.0279 40.5359 77.5293C40.3976 76.9372 40.2476 76.4178 40.0857 75.9709C40.0688 75.9338 40.0504 75.8724 40.0303 75.7867C39.9703 75.5296 39.9826 75.3008 40.0672 75.1002C40.1595 74.8977 40.3226 74.7691 40.5562 74.7142C40.5874 74.7069 40.8806 74.6258 41.4359 74.4709C41.6641 74.3927 41.86 74.3344 42.0236 74.296ZM37.5424 76.5307C37.7215 76.4887 37.8674 76.3394 37.98 76.0829C38.0908 75.8186 38.1448 75.5224 38.1422 75.1944L38.1478 72.9497C37.8069 73.0379 37.5197 73.2327 37.2861 73.534C37.0603 73.8335 36.9072 74.1981 36.8268 74.6278C36.7524 75.0479 36.7653 75.4722 36.8653 75.9007C36.9217 76.1422 37.0082 76.3191 37.1248 76.4314C37.2474 76.5342 37.3866 76.5672 37.5424 76.5307ZM43.0402 76.4857C42.6897 76.5679 42.3642 76.4758 42.0638 76.2094C41.7693 75.9334 41.5656 75.5539 41.4528 75.0709C41.3164 74.4866 41.2307 73.9438 41.1958 73.4425C41.159 72.9335 41.1665 72.3853 41.2183 71.7979C41.2416 71.5459 41.3115 71.3528 41.4281 71.2187C41.5446 71.0845 41.7548 70.9818 42.0585 70.9105C42.2299 70.8703 42.353 70.8702 42.4281 70.9101C42.5109 70.9482 42.5651 71.0218 42.5905 71.1308C42.6051 71.1931 42.6114 71.4135 42.6094 71.792C42.5988 72.0985 42.5975 72.3741 42.6053 72.6188C42.6406 73.4733 42.6901 74.0369 42.7538 74.3096C42.792 74.4732 42.8387 74.5855 42.8941 74.6464C42.9476 74.6996 43.0171 74.7162 43.1028 74.6961C43.2196 74.6686 43.3364 74.518 43.4532 74.2441C43.5778 73.9683 43.6819 73.57 43.7656 73.0491C43.8571 72.5264 43.9154 71.8964 43.9404 71.1592C43.9481 70.9109 44.0025 70.7215 44.1034 70.591C44.2122 70.4586 44.3951 70.3623 44.6521 70.302C44.8312 70.26 44.9613 70.2541 45.0423 70.2844C45.1215 70.3069 45.1747 70.3766 45.202 70.4934C45.2475 70.6882 45.2748 71.2447 45.2839 72.1629C45.2987 73.2112 45.3334 73.8522 45.3879 74.086C45.4225 74.234 45.481 74.3435 45.5633 74.4146C45.6438 74.4779 45.7347 74.4976 45.8359 74.4739C45.9917 74.4373 46.1529 74.3009 46.3195 74.0646C46.4921 73.8187 46.7075 73.4394 46.9657 72.9269C47.0337 72.7959 47.1261 72.7167 47.2429 72.6893C47.3442 72.6656 47.433 72.694 47.5093 72.7747C47.5935 72.8536 47.6546 72.9748 47.6928 73.1384C47.7656 73.45 47.748 73.7089 47.6401 73.915C47.4016 74.4065 47.1186 74.8303 46.791 75.1866C46.4712 75.541 46.066 75.7757 45.5753 75.8909C45.2015 75.9786 44.8913 75.8993 44.6449 75.6531C44.4062 75.4051 44.2259 75.0201 44.104 74.4981C44.0954 75.0589 43.9923 75.5145 43.7948 75.8649C43.5955 76.2075 43.3439 76.4144 43.0402 76.4857ZM51.8332 71.6123C51.9345 71.5885 52.0233 71.617 52.0996 71.6977C52.1838 71.7766 52.2449 71.8978 52.2832 72.0614C52.3559 72.373 52.3383 72.6319 52.2304 72.838C52.0241 73.2562 51.6907 73.6754 51.2302 74.0957C50.7775 74.5142 50.2513 74.7938 49.6516 74.9345C48.8338 75.1263 48.1472 75.0532 47.5918 74.7152C47.0363 74.3771 46.6685 73.8225 46.4884 73.0512C46.3629 72.5137 46.3594 71.9886 46.4779 71.476C46.5946 70.9556 46.8197 70.5124 47.1532 70.1466C47.4946 69.7789 47.9183 69.5357 48.4246 69.4169C48.8763 69.3109 49.2703 69.3622 49.6066 69.5709C49.9411 69.7719 50.162 70.1021 50.2693 70.5618C50.3949 71.0993 50.3084 71.6085 50.01 72.0894C49.7175 72.5607 49.1381 73.0171 48.2718 73.4586C48.5502 73.7713 48.962 73.8637 49.5072 73.7358C49.8577 73.6535 50.2267 73.4396 50.6142 73.0939C51.0078 72.7386 51.3217 72.324 51.556 71.8499C51.624 71.7189 51.7164 71.6397 51.8332 71.6123ZM48.4934 70.6087C48.2053 70.6763 47.9991 70.9013 47.8748 71.2838C47.7583 71.6645 47.7556 72.0924 47.8666 72.5676L47.872 72.591C48.3061 72.3741 48.63 72.1256 48.8439 71.8453C49.0577 71.565 49.131 71.2808 49.0637 70.9925C49.0291 70.8445 48.959 70.7377 48.8533 70.6721C48.7536 70.5969 48.6336 70.5758 48.4934 70.6087ZM54.8092 71.9248C54.8767 71.8268 54.9533 71.7677 55.0389 71.7476C55.1324 71.7257 55.2191 71.7629 55.2991 71.8591C55.3851 71.9458 55.4454 72.0631 55.4799 72.2111C55.5563 72.5383 55.5005 72.8267 55.3123 73.0763C54.9855 73.5063 54.5651 73.7816 54.0511 73.9022C53.3112 74.0758 52.698 73.8951 52.2116 73.3601C51.7233 72.8173 51.3628 72.0473 51.1299 71.0501C50.9079 70.0997 50.7757 68.9885 50.7333 67.7166C50.6987 66.4428 50.8171 65.3139 51.0884 64.3299C51.3675 63.3441 51.8381 62.7735 52.5001 62.6182C52.874 62.5305 53.207 62.6372 53.4991 62.9385C53.7973 63.2301 54.0218 63.6992 54.1729 64.3458C54.3894 65.2728 54.3834 66.4082 54.155 67.7519C53.9344 69.0938 53.5233 70.4639 52.9215 71.8623C53.0507 72.1689 53.2017 72.3759 53.3746 72.4832C53.5476 72.5906 53.7548 72.6159 53.9962 72.5593C54.1286 72.5282 54.2675 72.4545 54.4129 72.3382C54.566 72.2201 54.6981 72.0823 54.8092 71.9248ZM52.5133 63.8354C52.3341 63.8774 52.2071 64.2482 52.1323 64.9478C52.0574 65.6474 52.0462 66.4964 52.0987 67.4948C52.1511 68.4932 52.2724 69.4344 52.4624 70.3184C52.8025 69.2772 53.0297 68.2624 53.1439 67.2742C53.2563 66.2782 53.2243 65.4024 53.0478 64.6467C52.9095 64.0546 52.7314 63.7842 52.5133 63.8354Z" fill="#BA2525"/>
</g>
<g clip-path="url(#clip1)">
<path d="M126.555 99.2548C125.852 99.2674 124.685 99.0844 123.354 98.809C119.736 98.0605 114.91 96.6336 114.91 96.6336C114.91 96.6336 89.7052 90.5013 73.6325 77.3099C73.6325 77.3099 71.3881 75.1063 74.458 74.1371C74.928 73.996 75.4116 73.8952 75.9032 73.8358L75.9429 73.8171C76.3064 73.6632 76.6847 73.5412 77.0733 73.4524C78.2183 73.183 80.0557 73.021 81.9144 73.9766L127.867 97.2177C127.867 97.2177 129.172 99.2058 126.555 99.2548Z" fill="#302E3F"/>
<path d="M118.013 92.7658L130.364 89.2892L134.587 91.4821L127.862 97.2363C127.862 97.2363 117.736 94.0015 118.013 92.7658Z" fill="#302E3F"/>
<path d="M93.8721 80.2592L115.794 81.5251L118.834 83.2331L108.454 84.1198L104.619 86.1974L93.8721 80.2592Z" fill="#302E3F"/>
<path d="M120.156 97.6377L128.032 104.075L130.375 104.58L126.238 98.9787C126.238 98.9787 120.146 95.5241 120.156 97.6377Z" fill="#302E3F"/>
<path d="M112.245 108.364L106.362 106.753L93.4903 91.0362L91.101 88.1181L89.9406 86.7005C93.4149 85.4035 103.654 92.1194 103.654 92.1194C103.813 92.3616 103.787 92.6694 103.674 92.9815C103.462 93.5655 102.942 94.1623 102.747 94.3745C102.7 94.4267 102.673 94.4536 102.673 94.4536L112.245 108.364Z" fill="#302E3F"/>
<path d="M123.355 98.8098C119.737 98.061 114.911 96.6341 114.911 96.6341C114.911 96.6341 89.706 90.5003 73.6314 77.3134C73.6314 77.3134 71.3866 75.1106 74.4562 74.1426L74.4538 74.1783C74.4538 74.1783 77.5976 78.0144 95.8929 86.354L123.355 98.8098Z" fill="#BA2626"/>
<path d="M77.6068 75.5878C77.1745 75.4535 76.4128 74.4479 75.9505 73.7875C76.3141 73.633 76.6925 73.5104 77.0812 73.4212C77.4577 73.9419 78.1463 74.8105 78.6426 74.9482C79.3575 75.1521 78.2582 75.7892 77.6068 75.5878Z" fill="white"/>
</g>
<defs>
<linearGradient id="paint0_linear" x1="62.2072" y1="112.772" x2="62.2072" y2="7.36789" gradientUnits="userSpaceOnUse">
<stop stop-color="#808080" stop-opacity="0.25"/>
<stop offset="0.54" stop-color="#808080" stop-opacity="0.12"/>
<stop offset="1" stop-color="#808080" stop-opacity="0.1"/>
</linearGradient>
<linearGradient id="paint1_linear" x1="66809" y1="-17283.8" x2="65060.3" y2="-20861.2" gradientUnits="userSpaceOnUse">
<stop stop-color="#808080" stop-opacity="0.25"/>
<stop offset="0.54" stop-color="#808080" stop-opacity="0.12"/>
<stop offset="1" stop-color="#808080" stop-opacity="0.1"/>
</linearGradient>
<linearGradient id="paint2_linear" x1="33851.1" y1="47946.9" x2="33851.1" y2="23310" gradientUnits="userSpaceOnUse">
<stop stop-color="#808080" stop-opacity="0.25"/>
<stop offset="0.54" stop-color="#808080" stop-opacity="0.12"/>
<stop offset="1" stop-color="#808080" stop-opacity="0.1"/>
</linearGradient>
<linearGradient id="paint3_linear" x1="17222.8" y1="7851.93" x2="17145.3" y2="6828.11" gradientUnits="userSpaceOnUse">
<stop stop-color="#808080" stop-opacity="0.25"/>
<stop offset="0.54" stop-color="#808080" stop-opacity="0.12"/>
<stop offset="1" stop-color="#808080" stop-opacity="0.1"/>
</linearGradient>
<clipPath id="clip0">
<rect width="134.682" height="121.169" fill="white"/>
</clipPath>
<clipPath id="clip1">
<rect width="72.2825" height="43.309" fill="white" transform="matrix(0.950038 0.312134 -0.310878 0.95045 78.9625 56.7752)"/>
</clipPath>
</defs>
</svg>
